STARTFONT 2.1
COMMENT
COMMENT Converted from OpenType font "Vollda-Bold.otf" by "otf2bdf 3.0".
COMMENT
FONT -FreeType-Vollda-Bold-R-Normal--28-200-100-100-P-155-ISO10646-1
SIZE 20 100 100
FONTBOUNDINGBOX 89 38 -5 -8
STARTPROPERTIES 19
FOUNDRY "FreeType"
FAMILY_NAME "Vollda"
WEIGHT_NAME "Bold"
SLANT "R"
SETWIDTH_NAME "Normal"
ADD_STYLE_NAME ""
PIXEL_SIZE 28
POINT_SIZE 200
RESOLUTION_X 100
RESOLUTION_Y 100
SPACING "P"
AVERAGE_WIDTH 155
CHARSET_REGISTRY "ISO10646"
CHARSET_ENCODING "1"
FONT_ASCENT 26
FONT_DESCENT 12
COPYRIGHT "Copyright 2023 Vollda (https://github.com/alexburba/vollda)"
_OTF_FONTFILE "Vollda-Bold.otf"
_OTF_PSNAME "Vollda-Bold"
ENDPROPERTIES
CHARS 1220
STARTCHAR 0000
ENCODING 0
SWIDTH 0 0
DWIDTH 0 0
BBX 0 0 0 0
BITMAP
ENDCHAR
STARTCHAR 000D
ENCODING 13
SWIDTH 180 0
DWIDTH 5 0
BBX 0 0 0 0
BITMAP
ENDCHAR
STARTCHAR 0020
ENCODING 32
SWIDTH 180 0
DWIDTH 5 0
BBX 0 0 0 0
BITMAP
ENDCHAR
STARTCHAR 0021
ENCODING 33
SWIDTH 396 0
DWIDTH 11 0
BBX 5 20 3 0
BITMAP
18
F8
78
78
78
70
70
70
70
70
70
30
30
00
00
00
70
78
F8
70
ENDCHAR
STARTCHAR 0022
ENCODING 34
SWIDTH 360 0
DWIDTH 10 0
BBX 7 8 2 12
BITMAP
46
EE
CE
CE
CC
CC
C4
44
ENDCHAR
STARTCHAR 0023
ENCODING 35
SWIDTH 576 0
DWIDTH 16 0
BBX 15 20 1 0
BITMAP
0608
0618
0618
0618
0618
0C10
7FFE
7FFE
0C30
0C30
1820
1860
1860
FFFC
FFFC
3060
30C0
30C0
30C0
30C0
ENDCHAR
STARTCHAR 0024
ENCODING 36
SWIDTH 540 0
DWIDTH 15 0
BBX 14 23 1 -2
BITMAP
0200
0300
0FC0
3FF0
7B70
7370
7330
7B00
7F00
7F00
3FC0
3FF0
0FF0
03F8
03F8
637C
6338
7338
F378
FFF0
3FE0
0300
0300
ENDCHAR
STARTCHAR 0025
ENCODING 37
SWIDTH 828 0
DWIDTH 23 0
BBX 20 19 2 0
BITMAP
1E00C0
3F00C0
738180
638300
E18600
E38E00
739C00
7F1800
1E3000
006000
00C100
01CFC0
039CE0
031C60
061870
0C1860
181C60
381EE0
300FC0
ENDCHAR
STARTCHAR 0026
ENCODING 38
SWIDTH 756 0
DWIDTH 21 0
BBX 19 20 1 0
BITMAP
03F000
0FFC00
0E3800
1E1800
1E1800
1E0000
0F0000
0F07E0
0F87C0
1FC380
3BE180
79F300
70F300
70FA00
F07E00
783E00
781F00
7C3F80
3FF7E0
1FC7E0
ENDCHAR
STARTCHAR 0027
ENCODING 39
SWIDTH 216 0
DWIDTH 6 0
BBX 3 8 2 12
BITMAP
40
E0
C0
C0
C0
C0
C0
40
ENDCHAR
STARTCHAR 0028
ENCODING 40
SWIDTH 288 0
DWIDTH 8 0
BBX 6 29 1 -8
BITMAP
04
0C
0C
18
38
30
70
70
70
F0
E0
E0
E0
E0
E0
E0
E0
E0
F0
70
70
70
30
38
18
18
0C
04
04
ENDCHAR
STARTCHAR 0029
ENCODING 41
SWIDTH 288 0
DWIDTH 8 0
BBX 6 29 2 -8
BITMAP
80
C0
C0
60
60
70
30
38
38
3C
3C
1C
1C
1C
1C
1C
1C
1C
3C
38
38
38
30
70
60
60
C0
80
80
ENDCHAR
STARTCHAR 002A
ENCODING 42
SWIDTH 468 0
DWIDTH 13 0
BBX 10 10 2 11
BITMAP
0E00
4C00
EC00
F980
1FC0
3CC0
FC00
E600
4700
0400
ENDCHAR
STARTCHAR 002B
ENCODING 43
SWIDTH 540 0
DWIDTH 15 0
BBX 13 14 1 0
BITMAP
0300
0300
0300
0300
0300
0300
FFF8
FFF8
0300
0300
0300
0300
0300
0300
ENDCHAR
STARTCHAR 002C
ENCODING 44
SWIDTH 288 0
DWIDTH 8 0
BBX 4 8 2 -4
BITMAP
F0
F0
F0
70
30
60
60
C0
ENDCHAR
STARTCHAR 002D
ENCODING 45
SWIDTH 396 0
DWIDTH 11 0
BBX 8 2 2 6
BITMAP
FF
FF
ENDCHAR
STARTCHAR 002E
ENCODING 46
SWIDTH 252 0
DWIDTH 7 0
BBX 4 4 2 0
BITMAP
F0
F0
F0
F0
ENDCHAR
STARTCHAR 002F
ENCODING 47
SWIDTH 360 0
DWIDTH 10 0
BBX 9 20 1 0
BITMAP
0100
0180
0300
0300
0300
0600
0600
0C00
0C00
0C00
1800
1800
1800
3000
3000
6000
6000
6000
C000
C000
ENDCHAR
STARTCHAR 0030
ENCODING 48
SWIDTH 612 0
DWIDTH 17 0
BBX 15 14 1 0
BITMAP
0FE0
1FF8
787C
703C
F03E
F01E
F01E
F01E
F01E
F81E
781C
7C3C
3FF8
0FE0
ENDCHAR
STARTCHAR 0031
ENCODING 49
SWIDTH 396 0
DWIDTH 11 0
BBX 9 14 1 0
BITMAP
FF80
7F80
3E00
1E00
1E00
1E00
1E00
1E00
1E00
1E00
1E00
3E00
7F80
7F80
ENDCHAR
STARTCHAR 0032
ENCODING 50
SWIDTH 504 0
DWIDTH 14 0
BBX 12 14 1 0
BITMAP
1FC0
7FE0
71E0
61E0
61E0
01E0
03C0
0780
0E00
1C30
3FF0
7FF0
FFF0
7FF0
ENDCHAR
STARTCHAR 0033
ENCODING 51
SWIDTH 504 0
DWIDTH 14 0
BBX 12 19 1 -5
BITMAP
7FE0
7FF0
7FE0
7FC0
6180
0380
0700
0E00
0FC0
0FE0
03F0
00F0
00F0
00F0
00F0
01E0
C3E0
FF80
1C00
ENDCHAR
STARTCHAR 0034
ENCODING 52
SWIDTH 576 0
DWIDTH 16 0
BBX 15 19 1 -5
BITMAP
0070
00F0
01F0
03F0
03F0
06F0
0CF0
1CF0
38F0
30F0
60F0
FFFE
FFFC
FFFC
00F0
00F0
00F0
00F0
0080
ENDCHAR
STARTCHAR 0035
ENCODING 53
SWIDTH 468 0
DWIDTH 13 0
BBX 11 21 1 -5
BITMAP
0020
0060
3FE0
3FE0
3FE0
7FC0
6000
6000
7C00
7F00
7FC0
1FC0
07E0
03E0
01E0
01E0
01E0
03C0
07C0
FF00
7800
ENDCHAR
STARTCHAR 0036
ENCODING 54
SWIDTH 540 0
DWIDTH 15 0
BBX 13 18 1 0
BITMAP
0060
03E0
0F80
1E00
3C00
7800
7800
F7C0
FFF0
F0F8
F078
F078
F078
F078
F878
7870
3FF0
1FC0
ENDCHAR
STARTCHAR 0037
ENCODING 55
SWIDTH 468 0
DWIDTH 13 0
BBX 11 19 1 -5
BITMAP
FFE0
FFE0
FFE0
FFC0
E0C0
4180
0380
0300
0700
0600
0E00
0E00
1E00
1C00
3C00
3C00
3C00
3800
3000
ENDCHAR
STARTCHAR 0038
ENCODING 56
SWIDTH 540 0
DWIDTH 15 0
BBX 13 18 1 0
BITMAP
0700
3FE0
78F0
78F0
7870
78F0
7EE0
3FC0
1FC0
1FE0
3BF0
70F0
F0F8
F078
F078
7870
7DF0
1FC0
ENDCHAR
STARTCHAR 0039
ENCODING 57
SWIDTH 540 0
DWIDTH 15 0
BBX 13 19 1 -5
BITMAP
0FC0
3FF0
78F0
F078
F078
F078
F078
F078
F878
7FF8
3FF8
0078
00F0
01E0
01E0
0780
1F00
7C00
2000
ENDCHAR
STARTCHAR 003A
ENCODING 58
SWIDTH 252 0
DWIDTH 7 0
BBX 4 12 2 0
BITMAP
F0
F0
F0
E0
00
00
00
00
F0
F0
F0
60
ENDCHAR
STARTCHAR 003B
ENCODING 59
SWIDTH 288 0
DWIDTH 8 0
BBX 5 17 2 -5
BITMAP
F0
F8
F0
70
00
00
00
00
00
F0
F0
F0
70
30
60
60
C0
ENDCHAR
STARTCHAR 003C
ENCODING 60
SWIDTH 540 0
DWIDTH 15 0
BBX 11 14 2 0
BITMAP
0060
01E0
0780
0F00
3C00
F000
C000
E000
7800
1E00
0780
01E0
00E0
0020
ENDCHAR
STARTCHAR 003D
ENCODING 61
SWIDTH 540 0
DWIDTH 15 0
BBX 13 7 1 4
BITMAP
7FF8
FFF8
0000
0000
0000
7FF8
FFF8
ENDCHAR
STARTCHAR 003E
ENCODING 62
SWIDTH 540 0
DWIDTH 15 0
BBX 12 14 2 0
BITMAP
6000
F000
3C00
0E00
0780
01E0
0070
00E0
03C0
0F00
1E00
7800
E000
4000
ENDCHAR
STARTCHAR 003F
ENCODING 63
SWIDTH 504 0
DWIDTH 14 0
BBX 10 20 3 0
BITMAP
3F00
FF80
E3C0
E3C0
E3C0
03C0
0780
0F00
1E00
1C00
1C00
1C00
1C00
0C00
0000
0000
1E00
1E00
1E00
1E00
ENDCHAR
STARTCHAR 0040
ENCODING 64
SWIDTH 972 0
DWIDTH 27 0
BBX 22 24 3 -6
BITMAP
01FF80
0783E0
0E0070
180038
300018
70FF1C
61FF8C
E3878C
C3878C
C7878C
C7878C
C7878C
C78F88
C78F98
C79F98
E7F7B0
63F7E0
63E7C0
700000
380018
1C0030
0F81E0
03FF80
007800
ENDCHAR
STARTCHAR 0041
ENCODING 65
SWIDTH 684 0
DWIDTH 19 0
BBX 19 19 0 0
BITMAP
006000
00E000
00F000
01F000
01F000
01F800
037800
037C00
063C00
063E00
041E00
0C1F00
0FFF00
1FFF00
180F80
300780
3007C0
7C0FE0
FC1FE0
ENDCHAR
STARTCHAR 0042
ENCODING 66
SWIDTH 648 0
DWIDTH 18 0
BBX 16 19 1 0
BITMAP
FFF0
FFFC
3C3E
3C1E
3C1E
3C1E
3C1E
3C3C
3FF0
3FFC
3C3E
3C1F
3C0F
3C0F
3C0F
3C0F
3E1F
FFFE
FFF8
ENDCHAR
STARTCHAR 0043
ENCODING 67
SWIDTH 612 0
DWIDTH 17 0
BBX 16 19 1 0
BITMAP
03F8
0FFF
1E0E
3C06
7806
7806
F800
F000
F000
F000
F000
F800
F800
7800
7C00
3E00
3F03
0FFE
07F8
ENDCHAR
STARTCHAR 0044
ENCODING 68
SWIDTH 720 0
DWIDTH 20 0
BBX 18 19 1 0
BITMAP
FFF000
FFFE00
3C1F00
3C0F80
3C07C0
3C07C0
3C03C0
3C03C0
3C03C0
3C03C0
3C03C0
3C03C0
3C03C0
3C03C0
3C0780
3C0780
3E0F00
FFFC00
FFF000
ENDCHAR
STARTCHAR 0045
ENCODING 69
SWIDTH 612 0
DWIDTH 17 0
BBX 16 19 1 0
BITMAP
FFFC
FFFC
3C1C
3C0C
3C0E
3C00
3C10
3C30
3C70
3FF0
3CF0
3C30
3C30
3C00
3C07
3C06
3E0E
FFFE
FFFE
ENDCHAR
STARTCHAR 0046
ENCODING 70
SWIDTH 576 0
DWIDTH 16 0
BBX 15 19 1 0
BITMAP
FFFC
FFFC
3C1C
3C0C
3C0E
3C00
3C00
3C30
3C30
3CF0
3FF0
3C70
3C30
3C00
3C00
3C00
3E00
FF80
FF80
ENDCHAR
STARTCHAR 0047
ENCODING 71
SWIDTH 684 0
DWIDTH 19 0
BBX 18 19 1 0
BITMAP
03FC00
0FFF00
1E0700
3C0700
780300
780300
F80000
F00000
F00000
F00000
F03FC0
F81F80
F80700
780700
7C0700
3C0700
3E0F00
1FFF00
07FC00
ENDCHAR
STARTCHAR 0048
ENCODING 72
SWIDTH 756 0
DWIDTH 21 0
BBX 19 19 1 0
BITMAP
FF1FE0
FF1FE0
3E07C0
3C0780
3C0780
3C0780
3C0780
3C0780
3FFF80
3FFF80
3C0780
3C0780
3C0780
3C0780
3C0780
3C0780
3E07C0
FF1FE0
FF1FE0
ENDCHAR
STARTCHAR 0049
ENCODING 73
SWIDTH 360 0
DWIDTH 10 0
BBX 8 19 1 0
BITMAP
FF
FF
3E
3C
3C
3C
3C
3C
3C
3C
3C
3C
3C
3C
3C
3C
3E
FF
FF
ENDCHAR
STARTCHAR 004A
ENCODING 74
SWIDTH 360 0
DWIDTH 10 0
BBX 9 26 0 -7
BITMAP
7F80
7F80
1E00
1E00
1E00
1E00
1E00
1E00
1E00
1E00
1E00
1E00
1E00
1E00
1E00
1E00
1E00
1E00
1E00
1E00
1C00
3C00
3800
7000
E000
C000
ENDCHAR
STARTCHAR 004B
ENCODING 75
SWIDTH 720 0
DWIDTH 20 0
BBX 19 19 1 0
BITMAP
FF1FC0
FF1F80
3E0E00
3C0C00
3C1800
3C3000
3C6000
3CC000
3DC000
3FE000
3DF000
3DF800
3CF800
3C7C00
3C3E00
3C3E00
3E1F00
FF0FE0
FF0FE0
ENDCHAR
STARTCHAR 004C
ENCODING 76
SWIDTH 576 0
DWIDTH 16 0
BBX 15 19 1 0
BITMAP
FF00
FF00
3E00
3C00
3C00
3C00
3C00
3C00
3C00
3C00
3C00
3C00
3C00
3C00
3C06
3C0E
3E0E
FFFE
FFFE
ENDCHAR
STARTCHAR 004D
ENCODING 77
SWIDTH 936 0
DWIDTH 26 0
BBX 25 19 1 0
BITMAP
7E003F00
7F007F00
1F007C00
1F007C00
1F80FC00
1F80FC00
1FC0BC00
13C1BC00
13E1BC00
33E33E00
31E33E00
31F21E00
30F61E00
30FE1E00
307C1E00
307C1E00
70381F00
FC387F80
FC387F80
ENDCHAR
STARTCHAR 004E
ENCODING 78
SWIDTH 720 0
DWIDTH 20 0
BBX 18 19 1 0
BITMAP
FC0FC0
FC0FC0
3E0380
3F0300
3F8100
3F8100
37C100
33E100
33F100
31F100
30F900
307D00
307F00
303F00
301F00
300F00
300F00
FC0700
FC0300
ENDCHAR
STARTCHAR 004F
ENCODING 79
SWIDTH 720 0
DWIDTH 20 0
BBX 19 19 1 0
BITMAP
03F800
0FFE00
1E1F00
3C0F80
7807C0
7803C0
F003C0
F003E0
F003E0
F003E0
F003E0
F803E0
F803C0
7803C0
7803C0
3C0780
3E0F00
0FFE00
07F800
ENDCHAR
STARTCHAR 0050
ENCODING 80
SWIDTH 612 0
DWIDTH 17 0
BBX 16 19 1 0
BITMAP
FFE0
FFFC
3C3E
3C1E
3C1F
3C1F
3C1F
3C1F
3C1E
3C1E
3C3C
3DF8
3C80
3C00
3C00
3C00
3E00
FF80
FF80
ENDCHAR
STARTCHAR 0051
ENCODING 81
SWIDTH 720 0
DWIDTH 20 0
BBX 21 24 1 -6
BITMAP
03F800
0FFE00
1E1F00
3C0F80
7807C0
7803C0
F003C0
F003E0
F003E0
F003E0
F003E0
F803E0
F803C0
7803C0
7803C0
3C0780
3E0F00
0FFE00
07F800
003E00
000F80
0007E0
0007F8
0003F0
ENDCHAR
STARTCHAR 0052
ENCODING 82
SWIDTH 684 0
DWIDTH 19 0
BBX 18 19 1 0
BITMAP
FFF000
FFFC00
3C3E00
3C1F00
3C0F00
3C0F00
3C0F00
3C1E00
3C3E00
3FFC00
3FF000
3CF800
3C7C00
3C3C00
3C3E00
3C1E00
3E1F00
FF0FC0
FF0FC0
ENDCHAR
STARTCHAR 0053
ENCODING 83
SWIDTH 540 0
DWIDTH 15 0
BBX 14 19 1 0
BITMAP
0FC0
3FF0
7870
7070
7030
7800
7C00
7F00
3FC0
3FF0
0FF0
03F8
00F8
607C
6038
7038
F078
FFF0
3FE0
ENDCHAR
STARTCHAR 0054
ENCODING 84
SWIDTH 648 0
DWIDTH 18 0
BBX 16 19 1 0
BITMAP
FFFF
FFFF
E3C7
C3C3
C3C3
03C0
03C0
03C0
03C0
03C0
03C0
03C0
03C0
03C0
03C0
03C0
03C0
1FF8
1FF8
ENDCHAR
STARTCHAR 0055
ENCODING 85
SWIDTH 684 0
DWIDTH 19 0
BBX 17 19 1 0
BITMAP
FF1F80
FF1F80
7C0700
3C0600
3C0600
3C0600
3C0600
3C0600
3C0600
3C0600
3C0600
3C0600
3C0600
3C0600
3C0600
3E0600
1E0C00
1FFC00
0FF000
ENDCHAR
STARTCHAR 0056
ENCODING 86
SWIDTH 684 0
DWIDTH 19 0
BBX 19 19 0 0
BITMAP
FF07E0
7F07E0
3E01C0
3E0180
1E0100
1F0300
0F0300
0F8600
0F8600
078600
07CC00
03CC00
03D800
01F800
01F000
01F000
00F000
00E000
00E000
ENDCHAR
STARTCHAR 0057
ENCODING 87
SWIDTH 972 0
DWIDTH 27 0
BBX 27 19 0 0
BITMAP
FF8307E0
7F0307E0
3E0781C0
3E078180
1E0F8180
1E0FC180
1F0FC100
0F1BE300
0F1BE300
0F99E200
0FB1F600
07B0F600
07F0F600
07E0FC00
03E07C00
03E07C00
03C07800
01C03800
01803800
ENDCHAR
STARTCHAR 0058
ENCODING 88
SWIDTH 684 0
DWIDTH 19 0
BBX 18 19 1 0
BITMAP
FF9F80
FF1F80
3E0F00
3F0E00
1F0C00
0F9800
0F9800
07F000
03E000
03E000
03F000
03F800
06F800
0C7C00
0C7C00
183E00
383F00
FC7F80
FC7FC0
ENDCHAR
STARTCHAR 0059
ENCODING 89
SWIDTH 612 0
DWIDTH 17 0
BBX 17 19 0 0
BITMAP
FF0F80
7F0F80
3E0700
1E0600
1F0600
0F0C00
0F8C00
079800
07D800
03F000
03F000
01E000
01E000
01E000
01E000
01E000
03E000
0FF800
0FFC00
ENDCHAR
STARTCHAR 005A
ENCODING 90
SWIDTH 576 0
DWIDTH 16 0
BBX 15 19 1 0
BITMAP
7FFC
7FFC
707C
70F8
60F8
21F0
01F0
03E0
03C0
07C0
0F80
0F80
1F00
1F00
3E0E
7C0C
7C1C
FFFC
FFFC
ENDCHAR
STARTCHAR 005B
ENCODING 91
SWIDTH 288 0
DWIDTH 8 0
BBX 6 28 1 -7
BITMAP
FC
FC
F0
E0
E0
E0
E0
E0
E0
E0
E0
E0
E0
E0
E0
E0
E0
E0
E0
E0
E0
E0
E0
E0
E0
E0
F8
FC
ENDCHAR
STARTCHAR 005C
ENCODING 92
SWIDTH 360 0
DWIDTH 10 0
BBX 9 20 1 0
BITMAP
C000
C000
6000
6000
6000
3000
3000
3000
1800
1800
0C00
0C00
0C00
0600
0600
0600
0300
0300
0180
0180
ENDCHAR
STARTCHAR 005D
ENCODING 93
SWIDTH 288 0
DWIDTH 8 0
BBX 6 28 1 -7
BITMAP
FC
FC
3C
1C
1C
1C
1C
1C
1C
1C
1C
1C
1C
1C
1C
1C
1C
1C
1C
1C
1C
1C
1C
1C
1C
1C
7C
FC
ENDCHAR
STARTCHAR 005E
ENCODING 94
SWIDTH 540 0
DWIDTH 15 0
BBX 13 8 1 11
BITMAP
0700
0F80
0D80
18C0
3060
6070
E030
C018
ENDCHAR
STARTCHAR 005F
ENCODING 95
SWIDTH 540 0
DWIDTH 15 0
BBX 14 2 1 -4
BITMAP
FFFC
FFF8
ENDCHAR
STARTCHAR 0060
ENCODING 96
SWIDTH 288 0
DWIDTH 8 0
BBX 5 5 2 15
BITMAP
E0
E0
70
30
38
ENDCHAR
STARTCHAR 0061
ENCODING 97
SWIDTH 504 0
DWIDTH 14 0
BBX 13 13 1 0
BITMAP
0F80
3FC0
73E0
F1E0
F1E0
03E0
0FE0
39E0
F1E0
F1E0
F1F0
FFF8
7DF0
ENDCHAR
STARTCHAR 0062
ENCODING 98
SWIDTH 576 0
DWIDTH 16 0
BBX 16 20 0 0
BITMAP
0C00
FC00
FC00
3C00
3C00
3C00
3C00
3CF8
3DFC
3F3E
3C1E
3C1F
3C1F
3C0F
3C0F
3C1E
3C1E
3C1C
3F78
0FF0
ENDCHAR
STARTCHAR 0063
ENCODING 99
SWIDTH 432 0
DWIDTH 12 0
BBX 11 13 1 0
BITMAP
0FC0
3FE0
78E0
70E0
F060
F000
F000
F000
F000
F800
7C20
3FE0
1FC0
ENDCHAR
STARTCHAR 0064
ENCODING 100
SWIDTH 576 0
DWIDTH 16 0
BBX 15 20 1 0
BITMAP
0008
00FC
01FC
007C
003C
003C
003C
07FC
1FFC
387C
783C
F03C
F03C
F03C
F03C
F03C
F83C
7C3E
7FFE
3F38
ENDCHAR
STARTCHAR 0065
ENCODING 101
SWIDTH 504 0
DWIDTH 14 0
BBX 12 13 1 0
BITMAP
0F80
3FE0
78E0
70F0
F0F0
F0F0
FFF0
F000
F000
F800
7C30
3FF0
1FC0
ENDCHAR
STARTCHAR 0066
ENCODING 102
SWIDTH 360 0
DWIDTH 10 0
BBX 12 20 1 0
BITMAP
03E0
0FF0
1E70
1C70
3C70
3C00
3C00
3C00
FF80
7F00
3C00
3C00
3C00
3C00
3C00
3C00
3C00
3C00
FF80
FF80
ENDCHAR
STARTCHAR 0067
ENCODING 103
SWIDTH 540 0
DWIDTH 15 0
BBX 13 20 1 -7
BITMAP
1FF8
7FF8
78E0
F0F0
F0F0
F0F0
78F0
7FE0
3F80
7000
7000
7FF0
7FF8
3FF8
61F8
E038
E038
F070
FFE0
3F00
ENDCHAR
STARTCHAR 0068
ENCODING 104
SWIDTH 648 0
DWIDTH 18 0
BBX 16 20 1 0
BITMAP
0800
FC00
FC00
3C00
3C00
3C00
3C00
3CF0
3DFC
3FFC
3C3C
3C1E
3C1E
3C1E
3C1E
3C1E
3C1E
3C3E
FE7F
FF7F
ENDCHAR
STARTCHAR 0069
ENCODING 105
SWIDTH 324 0
DWIDTH 9 0
BBX 8 19 1 0
BITMAP
3C
7C
7C
38
00
00
0C
FC
FC
3C
3C
3C
3C
3C
3C
3C
3C
FF
FF
ENDCHAR
STARTCHAR 006A
ENCODING 106
SWIDTH 288 0
DWIDTH 8 0
BBX 7 26 0 -7
BITMAP
1E
3E
3E
1C
00
00
06
7E
7E
1E
1E
1E
1E
1E
1E
1E
1E
1E
1E
1E
1C
3C
38
70
E0
40
ENDCHAR
STARTCHAR 006B
ENCODING 107
SWIDTH 612 0
DWIDTH 17 0
BBX 16 20 1 0
BITMAP
0800
FC00
FC00
3C00
3C00
3C00
3C00
3C7E
3C7E
3C38
3C70
3CE0
3DC0
3FE0
3DF0
3CF0
3C78
3C7C
FE3F
FE1F
ENDCHAR
STARTCHAR 006C
ENCODING 108
SWIDTH 324 0
DWIDTH 9 0
BBX 8 20 1 0
BITMAP
08
FC
FC
3C
3C
3C
3C
3C
3C
3C
3C
3C
3C
3C
3C
3C
3C
3C
FF
FF
ENDCHAR
STARTCHAR 006D
ENCODING 109
SWIDTH 936 0
DWIDTH 26 0
BBX 25 13 1 0
BITMAP
0CF03800
FDFCFC00
FFFFFE00
3C3E1E00
3C1E1E00
3C1E1E00
3C1E1E00
3C1E1E00
3C1E1E00
3C1E1E00
3C3E1F00
FF7F3F80
FF7F3F80
ENDCHAR
STARTCHAR 006E
ENCODING 110
SWIDTH 648 0
DWIDTH 18 0
BBX 16 13 1 0
BITMAP
0C70
FDFC
FFFC
3C3E
3C1E
3C1E
3C1E
3C1E
3C1E
3C1E
3C1E
FF7F
FF7F
ENDCHAR
STARTCHAR 006F
ENCODING 111
SWIDTH 540 0
DWIDTH 15 0
BBX 14 13 1 0
BITMAP
0FC0
3FF0
78F8
7078
F07C
F03C
F03C
F03C
F03C
F878
7878
3FF0
1FC0
ENDCHAR
STARTCHAR 0070
ENCODING 112
SWIDTH 612 0
DWIDTH 17 0
BBX 16 20 1 -7
BITMAP
0CF8
FDFC
FF3E
3C1E
3C1E
3C1F
3C1F
3C1E
3C1E
3C1E
3C3C
3E78
3FF0
3C00
3C00
3C00
3C00
3E00
FF80
FF80
ENDCHAR
STARTCHAR 0071
ENCODING 113
SWIDTH 576 0
DWIDTH 16 0
BBX 16 20 1 -7
BITMAP
07E0
1FF8
387C
783C
F03C
F03C
F03C
F03C
F03C
F83C
783C
7FFC
1F3C
003C
003C
003C
007C
007C
01FE
01FF
ENDCHAR
STARTCHAR 0072
ENCODING 114
SWIDTH 468 0
DWIDTH 13 0
BBX 12 13 1 0
BITMAP
0CE0
FDF0
FFF0
3A60
3C60
3C00
3C00
3C00
3C00
3C00
3C00
FF80
FF80
ENDCHAR
STARTCHAR 0073
ENCODING 115
SWIDTH 432 0
DWIDTH 12 0
BBX 11 13 1 0
BITMAP
1F80
7FC0
F1C0
F0C0
F800
7E00
7F80
1FC0
03E0
C1E0
E1E0
FFC0
7F80
ENDCHAR
STARTCHAR 0074
ENCODING 116
SWIDTH 360 0
DWIDTH 10 0
BBX 10 17 0 0
BITMAP
0C00
3C00
3C00
3C00
3C00
FFC0
3F00
3C00
3C00
3C00
3C00
3C00
3C00
3C00
1E00
1FC0
0F80
ENDCHAR
STARTCHAR 0075
ENCODING 117
SWIDTH 576 0
DWIDTH 16 0
BBX 16 13 0 0
BITMAP
0C0C
7C7E
FC7E
3C3E
3C1E
3C1E
3C1E
3C1E
3C1E
3C1E
3E1F
1FFF
0F9C
ENDCHAR
STARTCHAR 0076
ENCODING 118
SWIDTH 540 0
DWIDTH 15 0
BBX 15 13 0 0
BITMAP
FF3E
FF3E
3C1C
3E18
1E18
1F30
0F30
0F20
07E0
07C0
07C0
03C0
0380
ENDCHAR
STARTCHAR 0077
ENCODING 119
SWIDTH 756 0
DWIDTH 21 0
BBX 21 13 0 0
BITMAP
FF18F8
FF1CF8
3C3C30
3C3C30
1E3E20
1E7E60
1E6F60
0FCF40
0FCFC0
0F87C0
078780
078380
070380
ENDCHAR
STARTCHAR 0078
ENCODING 120
SWIDTH 540 0
DWIDTH 15 0
BBX 14 13 1 0
BITMAP
FE7C
FE7C
7E30
3E60
1FE0
0FC0
0FC0
0FC0
1BE0
39F0
31F0
FBFC
FBFC
ENDCHAR
STARTCHAR 0079
ENCODING 121
SWIDTH 540 0
DWIDTH 15 0
BBX 15 20 0 -7
BITMAP
FF3E
FF3E
3E1C
3E18
1E18
1F10
0F30
0FB0
07E0
07E0
03C0
03C0
0380
0180
0180
0300
6F00
7E00
7C00
3800
ENDCHAR
STARTCHAR 007A
ENCODING 122
SWIDTH 504 0
DWIDTH 14 0
BBX 12 13 1 0
BITMAP
7FF0
7FF0
61E0
63E0
67C0
0780
0F80
1F00
3E30
3C30
7C70
FFF0
FFF0
ENDCHAR
STARTCHAR 007B
ENCODING 123
SWIDTH 360 0
DWIDTH 10 0
BBX 8 29 1 -8
BITMAP
01
07
1E
1C
1C
1C
1C
1C
1C
1C
1C
3C
3C
F8
F0
78
3C
1C
1C
1C
1C
1C
1C
1C
1C
1C
0E
07
01
ENDCHAR
STARTCHAR 007C
ENCODING 124
SWIDTH 180 0
DWIDTH 5 0
BBX 2 27 2 -7
BITMAP
C0
C0
C0
C0
C0
C0
C0
C0
C0
C0
C0
C0
C0
C0
C0
C0
C0
C0
C0
C0
C0
C0
C0
C0
C0
C0
C0
ENDCHAR
STARTCHAR 007D
ENCODING 125
SWIDTH 360 0
DWIDTH 10 0
BBX 8 29 1 -8
BITMAP
40
F0
38
3C
1C
1C
1C
3C
3C
3C
3C
3C
1E
0F
07
1E
3C
3C
3C
3C
3C
3C
1C
1C
1C
38
78
F0
80
ENDCHAR
STARTCHAR 007E
ENCODING 126
SWIDTH 540 0
DWIDTH 15 0
BBX 13 4 1 5
BITMAP
3E08
7FB8
E3F0
C0E0
ENDCHAR
STARTCHAR 00A0
ENCODING 160
SWIDTH 180 0
DWIDTH 5 0
BBX 0 0 0 0
BITMAP
ENDCHAR
STARTCHAR 00A1
ENCODING 161
SWIDTH 396 0
DWIDTH 11 0
BBX 5 20 3 -7
BITMAP
70
78
F8
78
00
00
00
30
30
70
70
70
70
70
70
78
78
78
78
60
ENDCHAR
STARTCHAR 00A2
ENCODING 162
SWIDTH 432 0
DWIDTH 12 0
BBX 11 21 1 -4
BITMAP
0300
0300
0300
0200
0FC0
3FE0
7AE0
72E0
F260
F200
F200
F200
F200
FA00
7E20
3FE0
1FC0
0200
0300
0300
0300
ENDCHAR
STARTCHAR 00A3
ENCODING 163
SWIDTH 576 0
DWIDTH 16 0
BBX 14 19 1 0
BITMAP
07F0
1FF8
3C78
3C38
7838
7C00
7C00
3E00
3E00
7FE0
FFC0
1E00
1E00
1C00
1DC8
3FFC
3FF8
7FF8
40F0
ENDCHAR
STARTCHAR 00A4
ENCODING 164
SWIDTH 540 0
DWIDTH 15 0
BBX 11 11 2 2
BITMAP
DF60
7BC0
60C0
60C0
6060
6060
60C0
70C0
7FC0
CF60
0020
ENDCHAR
STARTCHAR 00A5
ENCODING 165
SWIDTH 612 0
DWIDTH 17 0
BBX 17 19 0 0
BITMAP
FF0F80
7F0F80
3E0700
1E0600
1F0600
0F0C00
0F8C00
079800
1FDE00
1FFE00
03F000
01E000
1FFE00
1FFE00
01E000
01E000
03E000
0FF800
0FFC00
ENDCHAR
STARTCHAR 00A6
ENCODING 166
SWIDTH 180 0
DWIDTH 5 0
BBX 2 27 2 -7
BITMAP
C0
C0
C0
C0
C0
C0
C0
C0
C0
C0
C0
00
00
00
00
C0
C0
C0
C0
C0
C0
C0
C0
C0
C0
C0
80
ENDCHAR
STARTCHAR 00A7
ENCODING 167
SWIDTH 540 0
DWIDTH 15 0
BBX 13 27 1 -7
BITMAP
0780
1FE0
38E0
3860
3860
3C00
3E00
3F80
1FE0
1FF0
7BF8
70F8
E078
F038
F038
FC38
7FF0
3FC0
1FC0
0FE0
03E0
00F0
3070
3870
38E0
3FC0
0780
ENDCHAR
STARTCHAR 00A8
ENCODING 168
SWIDTH 288 0
DWIDTH 8 0
BBX 10 4 -1 14
BITMAP
F3C0
F3C0
F3C0
6080
ENDCHAR
STARTCHAR 00A9
ENCODING 169
SWIDTH 792 0
DWIDTH 22 0
BBX 19 19 2 -3
BITMAP
03F000
0FFC00
1C0700
306380
63F980
4718C0
CE1840
8E0860
8E0060
8E0060
8E0060
8E0060
CF0040
C708C0
67F880
31E180
380700
0F3E00
03F800
ENDCHAR
STARTCHAR 00AA
ENCODING 170
SWIDTH 432 0
DWIDTH 12 0
BBX 10 10 1 10
BITMAP
3E00
7700
6380
6380
1F80
7380
E780
E780
FFC0
7B00
ENDCHAR
STARTCHAR 00AB
ENCODING 171
SWIDTH 504 0
DWIDTH 14 0
BBX 10 9 2 3
BITMAP
18C0
31C0
7380
E700
E700
F380
31C0
18C0
1840
ENDCHAR
STARTCHAR 00AC
ENCODING 172
SWIDTH 540 0
DWIDTH 15 0
BBX 13 7 1 3
BITMAP
7FF8
FFF8
0018
0018
0018
0018
0018
ENDCHAR
STARTCHAR 00AD
ENCODING 173
SWIDTH 396 0
DWIDTH 11 0
BBX 8 2 2 6
BITMAP
FF
FF
ENDCHAR
STARTCHAR 00AE
ENCODING 174
SWIDTH 504 0
DWIDTH 14 0
BBX 11 12 2 10
BITMAP
1F00
7180
40C0
CE60
8B20
8B20
8E20
8B20
C960
60C0
3F80
0400
ENDCHAR
STARTCHAR 00AF
ENCODING 175
SWIDTH 288 0
DWIDTH 8 0
BBX 10 2 -1 16
BITMAP
FFC0
FFC0
ENDCHAR
STARTCHAR 00B0
ENCODING 176
SWIDTH 396 0
DWIDTH 11 0
BBX 8 7 2 12
BITMAP
7E
E6
C7
C7
E7
FE
3C
ENDCHAR
STARTCHAR 00B1
ENCODING 177
SWIDTH 540 0
DWIDTH 15 0
BBX 12 13 2 1
BITMAP
0600
0600
0600
0600
7FE0
FFE0
0600
0600
0600
0600
0000
FFF0
FFF0
ENDCHAR
STARTCHAR 00B2
ENCODING 178
SWIDTH 360 0
DWIDTH 10 0
BBX 9 10 1 11
BITMAP
FE00
EF00
4700
C700
0E00
1C00
3900
7F00
FF80
FF00
ENDCHAR
STARTCHAR 00B3
ENCODING 179
SWIDTH 360 0
DWIDTH 10 0
BBX 9 13 1 8
BITMAP
7F00
7F00
6600
4C00
1800
3E00
1F00
0700
0780
0700
0700
FE00
FC00
ENDCHAR
STARTCHAR 00B4
ENCODING 180
SWIDTH 288 0
DWIDTH 8 0
BBX 5 5 2 15
BITMAP
78
70
E0
C0
C0
ENDCHAR
STARTCHAR 00B5
ENCODING 181
SWIDTH 612 0
DWIDTH 17 0
BBX 16 20 1 -7
BITMAP
180C
FCFC
FC7C
3C3C
3C3C
3C3C
3C3C
3C3C
3C3C
3C3C
3C7E
3FDF
3F9C
3800
3800
3800
3800
3800
7000
2000
ENDCHAR
STARTCHAR 00B6
ENCODING 182
SWIDTH 576 0
DWIDTH 16 0
BBX 15 26 1 -7
BITMAP
0FFE
3FFE
7898
F098
F098
F098
F098
F898
7C98
3F98
0F98
0098
0098
0098
0098
0098
0098
0098
0098
0098
0098
0098
0098
0098
0098
0098
ENDCHAR
STARTCHAR 00B7
ENCODING 183
SWIDTH 252 0
DWIDTH 7 0
BBX 4 4 2 5
BITMAP
F0
F0
F0
E0
ENDCHAR
STARTCHAR 00B8
ENCODING 184
SWIDTH 288 0
DWIDTH 8 0
BBX 4 7 2 -7
BITMAP
60
E0
F0
30
30
F0
C0
ENDCHAR
STARTCHAR 00B9
ENCODING 185
SWIDTH 324 0
DWIDTH 9 0
BBX 7 10 1 11
BITMAP
FE
7E
38
38
38
38
38
38
FE
FE
ENDCHAR
STARTCHAR 00BA
ENCODING 186
SWIDTH 432 0
DWIDTH 12 0
BBX 10 10 1 10
BITMAP
1E00
7F80
73C0
E1C0
E1C0
E1C0
F1C0
F1C0
7B80
3F00
ENDCHAR
STARTCHAR 00BB
ENCODING 187
SWIDTH 504 0
DWIDTH 14 0
BBX 11 9 2 3
BITMAP
C600
E380
73C0
39C0
39E0
71C0
6380
E700
4600
ENDCHAR
STARTCHAR 00BC
ENCODING 188
SWIDTH 864 0
DWIDTH 24 0
BBX 22 20 1 0
BITMAP
3C0020
FC0070
3C00E0
1C00C0
1C0180
1C0380
1C0300
1C0620
1C0C70
1C1C70
3E18F0
FF31F0
006370
00E670
00C7FC
018FFC
0387FC
070070
0601FC
0C01FC
ENDCHAR
STARTCHAR 00BD
ENCODING 189
SWIDTH 972 0
DWIDTH 27 0
BBX 26 20 1 0
BITMAP
3C002000
FC007000
3C00E000
1C00C000
1C018000
1C038000
1C030000
1C060000
1C0CFF00
1C1CEF80
3E18E780
FF30C780
00600700
00E00F00
00C01C00
01803880
03807180
0700FF80
0600FFC0
0C00FFC0
ENDCHAR
STARTCHAR 00BE
ENCODING 190
SWIDTH 828 0
DWIDTH 23 0
BBX 22 20 1 0
BITMAP
FF0020
FF0060
FE00C0
CC01C0
1C0180
3E0300
3F0600
0F8E00
078C70
0798F0
8F39F0
FE7170
006370
00C670
01CFF8
018FFC
030FFC
060070
0E01F8
0C01F8
ENDCHAR
STARTCHAR 00BF
ENCODING 191
SWIDTH 504 0
DWIDTH 14 0
BBX 10 20 2 -7
BITMAP
1C00
1E00
3E00
1E00
0C00
0000
0C00
0E00
0E00
0E00
0E00
1E00
3C00
7800
F000
F1C0
F1C0
F1C0
FFC0
3F00
ENDCHAR
STARTCHAR 00C0
ENCODING 192
SWIDTH 684 0
DWIDTH 19 0
BBX 19 24 0 0
BITMAP
03C000
01C000
00E000
004000
000000
006000
00E000
00F000
01F000
01F000
01F800
037800
037C00
063C00
063E00
041E00
0C1F00
0FFF00
1FFF00
180F80
300780
3007C0
7C0FE0
FC1FE0
ENDCHAR
STARTCHAR 00C1
ENCODING 193
SWIDTH 684 0
DWIDTH 19 0
BBX 19 24 0 0
BITMAP
007800
007000
00E000
004000
000000
006000
00E000
00F000
01F000
01F000
01F800
037800
037C00
063C00
063E00
041E00
0C1F00
0FFF00
1FFF00
180F80
300780
3007C0
7C0FE0
FC1FE0
ENDCHAR
STARTCHAR 00C2
ENCODING 194
SWIDTH 684 0
DWIDTH 19 0
BBX 19 25 0 0
BITMAP
002000
00F000
03F800
073C00
040800
000000
006000
00E000
00F000
01F000
01F000
01F800
037800
037C00
063C00
063E00
041E00
0C1F00
0FFF00
1FFF00
180F80
300780
3007C0
7C0FE0
FC1FE0
ENDCHAR
STARTCHAR 00C3
ENCODING 195
SWIDTH 684 0
DWIDTH 19 0
BBX 19 24 0 0
BITMAP
03C400
07FC00
04F800
000000
000000
006000
00E000
00F000
01F000
01F000
01F800
037800
037C00
063C00
063E00
041E00
0C1F00
0FFF00
1FFF00
180F80
300780
3007C0
7C0FE0
FC1FE0
ENDCHAR
STARTCHAR 00C4
ENCODING 196
SWIDTH 684 0
DWIDTH 19 0
BBX 19 24 0 0
BITMAP
071C00
0F9E00
0F1E00
071C00
000000
006000
00E000
00F000
01F000
01F000
01F800
037800
037C00
063C00
063E00
041E00
0C1F00
0FFF00
1FFF00
180F80
300780
3007C0
7C0FE0
FC1FE0
ENDCHAR
STARTCHAR 00C5
ENCODING 197
SWIDTH 684 0
DWIDTH 19 0
BBX 19 25 0 0
BITMAP
00E000
01B000
031800
01B800
01F000
000000
006000
00E000
00F000
01F000
01F000
01F800
037800
037C00
063C00
063E00
041E00
0C1F00
0FFF00
1FFF00
180F80
300780
3007C0
7C0FE0
FC1FE0
ENDCHAR
STARTCHAR 00C6
ENCODING 198
SWIDTH 936 0
DWIDTH 26 0
BBX 26 19 0 0
BITMAP
00FFFF00
007FFF00
003F8700
00378380
00378180
00678000
00C78000
00C78C00
01878C00
01FFFC00
03FFFC00
07078C00
06078C00
0C078000
0C0781C0
180781C0
38078380
7E1FFF80
FE1FFF80
ENDCHAR
STARTCHAR 00C7
ENCODING 199
SWIDTH 612 0
DWIDTH 17 0
BBX 16 26 1 -7
BITMAP
03F8
0FFF
1E0E
3C06
7806
7806
F800
F000
F000
F000
F000
F800
F800
7800
7C00
3E00
3F03
0FFE
07F8
00C0
01C0
01E0
0060
0060
01E0
0180
ENDCHAR
STARTCHAR 00C8
ENCODING 200
SWIDTH 612 0
DWIDTH 17 0
BBX 16 24 1 0
BITMAP
0E00
0700
0300
0000
0000
FFFC
FFFC
3C1C
3C0C
3C0E
3C00
3C10
3C30
3C70
3FF0
3CF0
3C30
3C30
3C00
3C07
3C06
3E0E
FFFE
FFFE
ENDCHAR
STARTCHAR 00C9
ENCODING 201
SWIDTH 612 0
DWIDTH 17 0
BBX 16 24 1 0
BITMAP
01E0
01C0
0380
0100
0000
FFFC
FFFC
3C1C
3C0C
3C0E
3C00
3C10
3C30
3C70
3FF0
3CF0
3C30
3C30
3C00
3C07
3C06
3E0E
FFFE
FFFE
ENDCHAR
STARTCHAR 00CA
ENCODING 202
SWIDTH 612 0
DWIDTH 17 0
BBX 16 25 1 0
BITMAP
0100
07C0
0FE0
1CF0
1020
0000
FFFC
FFFC
3C1C
3C0C
3C0E
3C00
3C10
3C30
3C70
3FF0
3CF0
3C30
3C30
3C00
3C07
3C06
3E0E
FFFE
FFFE
ENDCHAR
STARTCHAR 00CB
ENCODING 203
SWIDTH 612 0
DWIDTH 17 0
BBX 16 24 1 0
BITMAP
1C70
3CF8
3CF8
1870
0000
FFFC
FFFC
3C1C
3C0C
3C0E
3C00
3C10
3C30
3C70
3FF0
3CF0
3C30
3C30
3C00
3C07
3C06
3E0E
FFFE
FFFE
ENDCHAR
STARTCHAR 00CC
ENCODING 204
SWIDTH 360 0
DWIDTH 10 0
BBX 8 24 1 0
BITMAP
70
38
18
00
00
FF
FF
3E
3C
3C
3C
3C
3C
3C
3C
3C
3C
3C
3C
3C
3C
3E
FF
FF
ENDCHAR
STARTCHAR 00CD
ENCODING 205
SWIDTH 360 0
DWIDTH 10 0
BBX 8 24 1 0
BITMAP
0F
0E
1C
08
00
FF
FF
3E
3C
3C
3C
3C
3C
3C
3C
3C
3C
3C
3C
3C
3C
3E
FF
FF
ENDCHAR
STARTCHAR 00CE
ENCODING 206
SWIDTH 360 0
DWIDTH 10 0
BBX 8 24 1 0
BITMAP
1C
3E
7F
C3
00
FF
FF
3E
3C
3C
3C
3C
3C
3C
3C
3C
3C
3C
3C
3C
3C
3E
FF
FF
ENDCHAR
STARTCHAR 00CF
ENCODING 207
SWIDTH 360 0
DWIDTH 10 0
BBX 9 24 1 0
BITMAP
E300
F780
F780
E300
0000
FF00
FF00
3E00
3C00
3C00
3C00
3C00
3C00
3C00
3C00
3C00
3C00
3C00
3C00
3C00
3C00
3E00
FF00
FF00
ENDCHAR
STARTCHAR 00D0
ENCODING 208
SWIDTH 720 0
DWIDTH 20 0
BBX 18 19 1 0
BITMAP
FFF000
FFFE00
3C1F00
3C0F80
3C07C0
3C07C0
3C03C0
3C03C0
3C03C0
FFC3C0
FFC3C0
3C03C0
3C03C0
3C03C0
3C0780
3C0780
3E0F00
FFFC00
FFF000
ENDCHAR
STARTCHAR 00D1
ENCODING 209
SWIDTH 720 0
DWIDTH 20 0
BBX 18 24 1 0
BITMAP
07C400
0FFC00
0CF800
000000
000000
FC0FC0
FC0FC0
3E0380
3F0300
3F8100
3F8100
37C100
33E100
33F100
31F100
30F900
307D00
307F00
303F00
301F00
300F00
300F00
FC0700
FC0300
ENDCHAR
STARTCHAR 00D2
ENCODING 210
SWIDTH 720 0
DWIDTH 20 0
BBX 19 24 1 0
BITMAP
038000
01C000
00C000
000000
000000
03F800
0FFE00
1E1F00
3C0F80
7807C0
7803C0
F003C0
F003E0
F003E0
F003E0
F003E0
F803E0
F803C0
7803C0
7803C0
3C0780
3E0F00
0FFE00
07F800
ENDCHAR
STARTCHAR 00D3
ENCODING 211
SWIDTH 720 0
DWIDTH 20 0
BBX 19 24 1 0
BITMAP
007800
007000
00E000
004000
000000
03F800
0FFE00
1E1F00
3C0F80
7807C0
7803C0
F003C0
F003E0
F003E0
F003E0
F003E0
F803E0
F803C0
7803C0
7803C0
3C0780
3E0F00
0FFE00
07F800
ENDCHAR
STARTCHAR 00D4
ENCODING 212
SWIDTH 720 0
DWIDTH 20 0
BBX 19 25 1 0
BITMAP
004000
01F000
03F800
073C00
040800
000000
03F800
0FFE00
1E1F00
3C0F80
7807C0
7803C0
F003C0
F003E0
F003E0
F003E0
F003E0
F803E0
F803C0
7803C0
7803C0
3C0780
3E0F00
0FFE00
07F800
ENDCHAR
STARTCHAR 00D5
ENCODING 213
SWIDTH 720 0
DWIDTH 20 0
BBX 19 24 1 0
BITMAP
03C400
0FFC00
0CF800
000000
000000
03F800
0FFE00
1E1F00
3C0F80
7807C0
7803C0
F003C0
F003E0
F003E0
F003E0
F003E0
F803E0
F803C0
7803C0
7803C0
3C0780
3E0F00
0FFE00
07F800
ENDCHAR
STARTCHAR 00D6
ENCODING 214
SWIDTH 720 0
DWIDTH 20 0
BBX 19 24 1 0
BITMAP
071C00
0F3E00
0F3E00
061C00
000000
03F800
0FFE00
1E1F00
3C0F80
7807C0
7803C0
F003C0
F003E0
F003E0
F003E0
F003E0
F803E0
F803C0
7803C0
7803C0
3C0780
3E0F00
0FFE00
07F800
ENDCHAR
STARTCHAR 00D7
ENCODING 215
SWIDTH 540 0
DWIDTH 15 0
BBX 13 13 1 1
BITMAP
4010
E038
7070
38E0
1DC0
0F80
0700
0780
0D80
18C0
3860
7030
E038
ENDCHAR
STARTCHAR 00D8
ENCODING 216
SWIDTH 720 0
DWIDTH 20 0
BBX 19 20 1 -1
BITMAP
03F9C0
0FFF80
1E1F00
3C0F80
780FC0
781FC0
F01BC0
F033E0
F073E0
F0E3E0
F0C3E0
F983E0
FB83C0
7F03C0
7E03C0
3C0780
3E0F00
3FFE00
77F800
600000
ENDCHAR
STARTCHAR 00D9
ENCODING 217
SWIDTH 684 0
DWIDTH 19 0
BBX 17 24 1 0
BITMAP
03C000
01C000
00E000
006000
000000
FF1F80
FF1F80
7C0700
3C0600
3C0600
3C0600
3C0600
3C0600
3C0600
3C0600
3C0600
3C0600
3C0600
3C0600
3C0600
3E0600
1E0C00
1FFC00
0FF000
ENDCHAR
STARTCHAR 00DA
ENCODING 218
SWIDTH 684 0
DWIDTH 19 0
BBX 17 24 1 0
BITMAP
007800
007000
006000
004000
000000
FF1F80
FF1F80
7C0700
3C0600
3C0600
3C0600
3C0600
3C0600
3C0600
3C0600
3C0600
3C0600
3C0600
3C0600
3C0600
3E0600
1E0C00
1FFC00
0FF000
ENDCHAR
STARTCHAR 00DB
ENCODING 219
SWIDTH 684 0
DWIDTH 19 0
BBX 17 25 1 0
BITMAP
002000
00F000
03F800
073C00
060800
000000
FF1F80
FF1F80
7C0700
3C0600
3C0600
3C0600
3C0600
3C0600
3C0600
3C0600
3C0600
3C0600
3C0600
3C0600
3C0600
3E0600
1E0C00
1FFC00
0FF000
ENDCHAR
STARTCHAR 00DC
ENCODING 220
SWIDTH 684 0
DWIDTH 19 0
BBX 17 24 1 0
BITMAP
071C00
0F9E00
0F9E00
070C00
000000
FF1F80
FF1F80
7C0700
3C0600
3C0600
3C0600
3C0600
3C0600
3C0600
3C0600
3C0600
3C0600
3C0600
3C0600
3C0600
3E0600
1E0C00
1FFC00
0FF000
ENDCHAR
STARTCHAR 00DD
ENCODING 221
SWIDTH 612 0
DWIDTH 17 0
BBX 17 24 0 0
BITMAP
003800
007000
006000
002000
000000
FF0F80
7F0F80
3E0700
1E0600
1F0600
0F0C00
0F8C00
079800
07D800
03F000
03F000
01E000
01E000
01E000
01E000
01E000
03E000
0FF800
0FFC00
ENDCHAR
STARTCHAR 00DE
ENCODING 222
SWIDTH 612 0
DWIDTH 17 0
BBX 16 19 1 0
BITMAP
FF00
FF00
3E00
3C00
3FF8
3FFC
3C1E
3C1F
3C0F
3C0F
3C0F
3C1E
3C1E
3DFC
3DE0
3C00
3E00
FF80
FF80
ENDCHAR
STARTCHAR 00DF
ENCODING 223
SWIDTH 684 0
DWIDTH 19 0
BBX 17 20 1 0
BITMAP
03F000
0FF800
1E3C00
1C1C00
3C1C00
3C1C00
3C3800
3C7000
FCE000
7CE000
3DF800
3CFE00
3CFF00
3C3F80
3C1F80
3C4780
3CC780
3CC780
FCEF00
FCFC00
ENDCHAR
STARTCHAR 00E0
ENCODING 224
SWIDTH 540 0
DWIDTH 15 0
BBX 13 20 2 0
BITMAP
3800
3800
1C00
1C00
0C00
0000
0000
0F80
3FC0
73E0
F1E0
F1E0
03E0
0FE0
39E0
F1E0
F1E0
F1F0
FFF8
7DF0
ENDCHAR
STARTCHAR 00E1
ENCODING 225
SWIDTH 540 0
DWIDTH 15 0
BBX 13 20 2 0
BITMAP
0380
0700
0700
0600
0C00
0000
0000
0F80
3FC0
73E0
F1E0
F1E0
03E0
0FE0
39E0
F1E0
F1E0
F1F0
FFF8
7DF0
ENDCHAR
STARTCHAR 00E2
ENCODING 226
SWIDTH 540 0
DWIDTH 15 0
BBX 13 20 2 0
BITMAP
0E00
0E00
3F00
7380
E1C0
0000
0000
0F80
3FC0
73E0
F1E0
F1E0
03E0
0FE0
39E0
F1E0
F1E0
F1F0
FFF8
7DF0
ENDCHAR
STARTCHAR 00E3
ENCODING 227
SWIDTH 540 0
DWIDTH 15 0
BBX 13 19 2 0
BITMAP
3800
7FC0
FF80
8700
0000
0000
0F80
3FC0
73E0
F1E0
F1E0
03E0
0FE0
39E0
F1E0
F1E0
F1F0
FFF8
7DF0
ENDCHAR
STARTCHAR 00E4
ENCODING 228
SWIDTH 540 0
DWIDTH 15 0
BBX 13 18 2 0
BITMAP
F3C0
F3C0
F3C0
6080
0000
0F80
3FC0
73E0
F1E0
F1E0
03E0
0FE0
39E0
F1E0
F1E0
F1F0
FFF8
7DF0
ENDCHAR
STARTCHAR 00E5
ENCODING 229
SWIDTH 540 0
DWIDTH 15 0
BBX 13 20 2 0
BITMAP
1E00
3B00
3300
3300
3F00
0000
0000
0F80
3FC0
73E0
F1E0
F1E0
03E0
0FE0
39E0
F1E0
F1E0
F1F0
FFF8
7DF0
ENDCHAR
STARTCHAR 00E6
ENCODING 230
SWIDTH 720 0
DWIDTH 20 0
BBX 18 13 1 0
BITMAP
3F1E00
7FFF80
71F380
71E3C0
21E1C0
01FFC0
1FFFC0
79E000
F1E000
F1F000
F3F0C0
FF7FC0
7C3F80
ENDCHAR
STARTCHAR 00E7
ENCODING 231
SWIDTH 432 0
DWIDTH 12 0
BBX 11 20 1 -7
BITMAP
0FC0
3FE0
78E0
70E0
F060
F000
F000
F000
F000
F800
7C20
3FE0
1FC0
0600
0600
0780
0380
0180
0700
0600
ENDCHAR
STARTCHAR 00E8
ENCODING 232
SWIDTH 504 0
DWIDTH 14 0
BBX 12 20 1 0
BITMAP
1C00
1C00
0E00
0600
0700
0000
0000
0F80
3FE0
78E0
70F0
F0F0
F0F0
FFF0
F000
F000
F800
7C30
3FF0
1FC0
ENDCHAR
STARTCHAR 00E9
ENCODING 233
SWIDTH 504 0
DWIDTH 14 0
BBX 12 20 1 0
BITMAP
01C0
01C0
0380
0300
0700
0000
0000
0F80
3FE0
78E0
70F0
F0F0
F0F0
FFF0
F000
F000
F800
7C30
3FF0
1FC0
ENDCHAR
STARTCHAR 00EA
ENCODING 234
SWIDTH 504 0
DWIDTH 14 0
BBX 12 20 1 0
BITMAP
0300
0780
0FC0
3DE0
7070
2020
0000
0F80
3FE0
78E0
70F0
F0F0
F0F0
FFF0
F000
F000
F800
7C30
3FF0
1FC0
ENDCHAR
STARTCHAR 00EB
ENCODING 235
SWIDTH 504 0
DWIDTH 14 0
BBX 12 18 1 0
BITMAP
78E0
79F0
78E0
3040
0000
0F80
3FE0
78E0
70F0
F0F0
F0F0
FFF0
F000
F000
F800
7C30
3FF0
1FC0
ENDCHAR
STARTCHAR 00EC
ENCODING 236
SWIDTH 324 0
DWIDTH 9 0
BBX 8 20 1 0
BITMAP
E0
F0
70
38
18
00
00
0C
FC
FC
3C
3C
3C
3C
3C
3C
3C
3C
FF
FF
ENDCHAR
STARTCHAR 00ED
ENCODING 237
SWIDTH 324 0
DWIDTH 9 0
BBX 8 20 1 0
BITMAP
0F
0E
0C
1C
18
00
00
0C
FC
FC
3C
3C
3C
3C
3C
3C
3C
3C
FF
FF
ENDCHAR
STARTCHAR 00EE
ENCODING 238
SWIDTH 324 0
DWIDTH 9 0
BBX 8 20 1 0
BITMAP
18
3C
7C
EE
C7
02
00
0C
FC
FC
3C
3C
3C
3C
3C
3C
3C
3C
FF
FF
ENDCHAR
STARTCHAR 00EF
ENCODING 239
SWIDTH 324 0
DWIDTH 9 0
BBX 10 18 0 0
BITMAP
F380
F7C0
F780
6100
0000
0600
7E00
7E00
1E00
1E00
1E00
1E00
1E00
1E00
1E00
1E00
7F80
7F80
ENDCHAR
STARTCHAR 00F0
ENCODING 240
SWIDTH 540 0
DWIDTH 15 0
BBX 14 20 1 0
BITMAP
0600
1F98
1FF8
07E0
07E0
0EF0
08F8
0F78
3FF8
7878
787C
F03C
F03C
F03C
F03C
F078
F078
7870
3FF0
1FC0
ENDCHAR
STARTCHAR 00F1
ENCODING 241
SWIDTH 648 0
DWIDTH 18 0
BBX 16 19 1 0
BITMAP
0708
0FF8
1FF8
1060
0000
0000
0C70
FDFC
FFFC
3C3E
3C1E
3C1E
3C1E
3C1E
3C1E
3C1E
3C1E
FF7F
FF7F
ENDCHAR
STARTCHAR 00F2
ENCODING 242
SWIDTH 540 0
DWIDTH 15 0
BBX 14 20 1 0
BITMAP
0E00
0E00
0E00
0700
0300
0000
0000
0FC0
3FF0
78F8
7078
F07C
F03C
F03C
F03C
F03C
F878
7878
3FF0
1FC0
ENDCHAR
STARTCHAR 00F3
ENCODING 243
SWIDTH 540 0
DWIDTH 15 0
BBX 14 20 1 0
BITMAP
01E0
01C0
0180
0380
0300
0000
0000
0FC0
3FF0
78F8
7078
F07C
F03C
F03C
F03C
F03C
F878
7878
3FF0
1FC0
ENDCHAR
STARTCHAR 00F4
ENCODING 244
SWIDTH 540 0
DWIDTH 15 0
BBX 14 20 1 0
BITMAP
0300
0780
0FC0
1DE0
3870
0020
0000
0FC0
3FF0
78F8
7078
F07C
F03C
F03C
F03C
F03C
F878
7878
3FF0
1FC0
ENDCHAR
STARTCHAR 00F5
ENCODING 245
SWIDTH 540 0
DWIDTH 15 0
BBX 14 19 1 0
BITMAP
0E00
3FF0
3FE0
21C0
0000
0000
0FC0
3FF0
78F8
7078
F07C
F03C
F03C
F03C
F03C
F878
7878
3FF0
1FC0
ENDCHAR
STARTCHAR 00F6
ENCODING 246
SWIDTH 540 0
DWIDTH 15 0
BBX 14 18 1 0
BITMAP
38F0
3CF0
3CF0
1060
0000
0FC0
3FF0
78F8
7078
F07C
F03C
F03C
F03C
F03C
F878
7878
3FF0
1FC0
ENDCHAR
STARTCHAR 00F7
ENCODING 247
SWIDTH 540 0
DWIDTH 15 0
BBX 13 13 1 1
BITMAP
0300
0780
0700
0700
0000
0000
FFF8
FFF8
0000
0000
0700
0780
0700
ENDCHAR
STARTCHAR 00F8
ENCODING 248
SWIDTH 540 0
DWIDTH 15 0
BBX 14 15 1 -1
BITMAP
0008
0FDC
3FF8
78F8
70F8
F1FC
F1BC
F33C
F63C
FE3C
FC78
7878
7FF0
FFC0
C000
ENDCHAR
STARTCHAR 00F9
ENCODING 249
SWIDTH 576 0
DWIDTH 16 0
BBX 16 20 0 0
BITMAP
0700
0700
0380
0180
01C0
0000
0000
0C0C
7C7E
FC7E
3C3E
3C1E
3C1E
3C1E
3C1E
3C1E
3C1E
3E1F
1FFF
0F9C
ENDCHAR
STARTCHAR 00FA
ENCODING 250
SWIDTH 576 0
DWIDTH 16 0
BBX 16 20 0 0
BITMAP
0070
00F0
00E0
00C0
0180
0000
0000
0C0C
7C7E
FC7E
3C3E
3C1E
3C1E
3C1E
3C1E
3C1E
3C1E
3E1F
1FFF
0F9C
ENDCHAR
STARTCHAR 00FB
ENCODING 251
SWIDTH 576 0
DWIDTH 16 0
BBX 16 20 0 0
BITMAP
00C0
01E0
03F0
0F78
1C3C
0800
0000
0C0C
7C7E
FC7E
3C3E
3C1E
3C1E
3C1E
3C1E
3C1E
3C1E
3E1F
1FFF
0F9C
ENDCHAR
STARTCHAR 00FC
ENCODING 252
SWIDTH 576 0
DWIDTH 16 0
BBX 16 18 0 0
BITMAP
1E38
1E7C
1E78
0410
0000
0C0C
7C7E
FC7E
3C3E
3C1E
3C1E
3C1E
3C1E
3C1E
3C1E
3E1F
1FFF
0F9C
ENDCHAR
STARTCHAR 00FD
ENCODING 253
SWIDTH 540 0
DWIDTH 15 0
BBX 15 27 0 -7
BITMAP
0078
0070
0060
00E0
00C0
0000
0000
FF3E
FF3E
3E1C
3E18
1E18
1F10
0F30
0FB0
07E0
07E0
03C0
03C0
0380
0180
0180
0300
6F00
7E00
7C00
3800
ENDCHAR
STARTCHAR 00FE
ENCODING 254
SWIDTH 612 0
DWIDTH 17 0
BBX 15 27 1 -7
BITMAP
0800
FC00
FC00
3C00
3C00
3C00
3C00
3CF0
3FFC
3F3E
3E1E
3C1E
3C1E
3C1E
3C1E
3C1E
3C1E
3C3C
3EF8
3FE0
3C00
3C00
3C00
3C00
7E00
FF80
FF80
ENDCHAR
STARTCHAR 00FF
ENCODING 255
SWIDTH 540 0
DWIDTH 15 0
BBX 15 25 0 -7
BITMAP
0F3C
0F3C
0F3C
0618
0000
FF3E
FF3E
3E1C
3E18
1E18
1F10
0F30
0FB0
07E0
07E0
03C0
03C0
0380
0180
0180
0300
6F00
7E00
7C00
3800
ENDCHAR
STARTCHAR 0100
ENCODING 256
SWIDTH 684 0
DWIDTH 19 0
BBX 19 23 0 0
BITMAP
0FFE00
0FFE00
000000
000000
006000
00E000
00F000
01F000
01F000
01F800
037800
037C00
063C00
063E00
041E00
0C1F00
0FFF00
1FFF00
180F80
300780
3007C0
7C0FE0
FC1FE0
ENDCHAR
STARTCHAR 0101
ENCODING 257
SWIDTH 540 0
DWIDTH 15 0
BBX 13 18 2 0
BITMAP
FFC0
FFC0
0000
0000
0000
0F80
3FC0
73E0
F1E0
F1E0
03E0
0FE0
39E0
F1E0
F1E0
F1F0
FFF8
7DF0
ENDCHAR
STARTCHAR 0102
ENCODING 258
SWIDTH 684 0
DWIDTH 19 0
BBX 19 24 0 0
BITMAP
060C00
07FC00
03F800
01F000
000000
006000
00E000
00F000
01F000
01F000
01F800
037800
037C00
063C00
063E00
041E00
0C1F00
0FFF00
1FFF00
180F80
300780
3007C0
7C0FE0
FC1FE0
ENDCHAR
STARTCHAR 0103
ENCODING 259
SWIDTH 540 0
DWIDTH 15 0
BBX 13 20 2 0
BITMAP
4040
C0C0
F1C0
7FC0
7F80
0C00
0000
0F80
3FC0
73E0
F1E0
F1E0
03E0
0FE0
39E0
F1E0
F1E0
F1F0
FFF8
7DF0
ENDCHAR
STARTCHAR 0104
ENCODING 260
SWIDTH 684 0
DWIDTH 19 0
BBX 19 26 0 -7
BITMAP
006000
00E000
00F000
01F000
01F000
01F800
037800
037C00
063C00
063E00
041E00
0C1F00
0FFF00
1FFF00
180F80
300780
3007C0
7C0FE0
FC1FE0
000700
000E00
001C00
001E00
001FC0
001FC0
000E00
ENDCHAR
STARTCHAR 0105
ENCODING 261
SWIDTH 540 0
DWIDTH 15 0
BBX 13 20 2 -7
BITMAP
0F80
3FC0
73E0
F1E0
F1E0
03E0
0FE0
39E0
F1E0
F1E0
F1F0
FFF8
7DF0
00C0
0380
0380
0380
03F0
03F0
01C0
ENDCHAR
STARTCHAR 0106
ENCODING 262
SWIDTH 612 0
DWIDTH 17 0
BBX 16 24 1 0
BITMAP
0078
0070
00E0
0040
0000
03F8
0FFF
1E0E
3C06
7806
7806
F800
F000
F000
F000
F000
F800
F800
7800
7C00
3E00
3F03
0FFE
07F8
ENDCHAR
STARTCHAR 0107
ENCODING 263
SWIDTH 432 0
DWIDTH 12 0
BBX 11 20 1 0
BITMAP
01C0
01C0
0380
0300
0600
0000
0000
0FC0
3FE0
78E0
70E0
F060
F000
F000
F000
F000
F800
7C20
3FE0
1FC0
ENDCHAR
STARTCHAR 0108
ENCODING 264
SWIDTH 612 0
DWIDTH 17 0
BBX 16 25 1 0
BITMAP
0060
00F0
03F8
073C
0408
0000
03F8
0FFF
1E0E
3C06
7806
7806
F800
F000
F000
F000
F000
F800
F800
7800
7C00
3E00
3F03
0FFE
07F8
ENDCHAR
STARTCHAR 0109
ENCODING 265
SWIDTH 432 0
DWIDTH 12 0
BBX 12 20 1 0
BITMAP
0300
0780
0FC0
3DE0
70F0
2000
0000
0FC0
3FE0
78E0
70E0
F060
F000
F000
F000
F000
F800
7C20
3FE0
1FC0
ENDCHAR
STARTCHAR 010A
ENCODING 266
SWIDTH 612 0
DWIDTH 17 0
BBX 16 24 1 0
BITMAP
00E0
01F0
01F0
00E0
0000
03F8
0FFF
1E0E
3C06
7806
7806
F800
F000
F000
F000
F000
F800
F800
7800
7C00
3E00
3F03
0FFE
07F8
ENDCHAR
STARTCHAR 010B
ENCODING 267
SWIDTH 432 0
DWIDTH 12 0
BBX 11 19 1 0
BITMAP
0200
0F00
0F80
0F00
0200
0000
0FC0
3FE0
78E0
70E0
F060
F000
F000
F000
F000
F800
7C20
3FE0
1FC0
ENDCHAR
STARTCHAR 010C
ENCODING 268
SWIDTH 612 0
DWIDTH 17 0
BBX 16 24 1 1
BITMAP
0F1C
03F8
01E0
00C0
0000
03F8
0FFF
1E0E
3C06
7806
7806
F800
F000
F000
F000
F000
F800
F800
7800
7C00
3E00
3F03
0FFE
07F8
ENDCHAR
STARTCHAR 010D
ENCODING 269
SWIDTH 432 0
DWIDTH 12 0
BBX 11 20 1 0
BITMAP
2020
70E0
3DC0
1F80
0F00
0600
0000
0FC0
3FE0
78E0
70E0
F060
F000
F000
F000
F000
F800
7C20
3FE0
1FC0
ENDCHAR
STARTCHAR 010E
ENCODING 270
SWIDTH 720 0
DWIDTH 20 0
BBX 18 25 1 0
BITMAP
040000
0F3800
07F000
03E000
018000
000000
FFF000
FFFE00
3C1F00
3C0F80
3C07C0
3C07C0
3C03C0
3C03C0
3C03C0
3C03C0
3C03C0
3C03C0
3C03C0
3C03C0
3C0780
3C0780
3E0F00
FFFC00
FFF000
ENDCHAR
STARTCHAR 010F
ENCODING 271
SWIDTH 720 0
DWIDTH 20 0
BBX 19 20 1 0
BITMAP
000860
00FDE0
01FDE0
007CE0
003CE0
003CC0
003CC0
07FD80
1FFC00
387C00
783C00
F03C00
F03C00
F03C00
F07C00
F07C00
F87C00
78FE00
7FBE00
3F3C00
ENDCHAR
STARTCHAR 0110
ENCODING 272
SWIDTH 720 0
DWIDTH 20 0
BBX 18 19 1 0
BITMAP
FFF000
FFFE00
3C1F00
3C0F80
3C07C0
3C07C0
3C03C0
3C03C0
3C03C0
FFC3C0
FFC3C0
3C03C0
3C03C0
3C03C0
3C0780
3C0780
3E0F00
FFFC00
FFF000
ENDCHAR
STARTCHAR 0111
ENCODING 273
SWIDTH 576 0
DWIDTH 16 0
BBX 15 20 1 0
BITMAP
0008
00FC
01FC
007C
03FE
03FE
003C
07FC
1FFC
387C
783C
F03C
F03C
F03C
F03C
F03C
F83C
7C3E
7FFE
3F38
ENDCHAR
STARTCHAR 0112
ENCODING 274
SWIDTH 612 0
DWIDTH 17 0
BBX 16 23 1 0
BITMAP
3FF8
3FF0
0000
0000
FFFC
FFFC
3C1C
3C0C
3C0E
3C00
3C10
3C30
3C70
3FF0
3CF0
3C30
3C30
3C00
3C07
3C06
3E0E
FFFE
FFFE
ENDCHAR
STARTCHAR 0113
ENCODING 275
SWIDTH 504 0
DWIDTH 14 0
BBX 12 18 1 0
BITMAP
7FF0
7FE0
0000
0000
0000
0F80
3FE0
78E0
70F0
F0F0
F0F0
FFF0
F000
F000
F800
7C30
3FF0
1FC0
ENDCHAR
STARTCHAR 0114
ENCODING 276
SWIDTH 612 0
DWIDTH 17 0
BBX 16 24 1 0
BITMAP
1830
1EF0
1FE0
07C0
0000
FFFC
FFFC
3C1C
3C0C
3C0E
3C00
3C10
3C30
3C70
3FF0
3CF0
3C30
3C30
3C00
3C07
3C06
3E0E
FFFE
FFFE
ENDCHAR
STARTCHAR 0115
ENCODING 277
SWIDTH 504 0
DWIDTH 14 0
BBX 12 20 1 0
BITMAP
2030
7070
78E0
3FE0
1FC0
0200
0000
0F80
3FE0
78E0
70F0
F0F0
F0F0
FFF0
F000
F000
F800
7C30
3FF0
1FC0
ENDCHAR
STARTCHAR 0116
ENCODING 278
SWIDTH 612 0
DWIDTH 17 0
BBX 16 24 1 0
BITMAP
0380
07C0
07C0
0380
0000
FFFC
FFFC
3C1C
3C0C
3C0E
3C00
3C10
3C30
3C70
3FF0
3CF0
3C30
3C30
3C00
3C07
3C06
3E0E
FFFE
FFFE
ENDCHAR
STARTCHAR 0117
ENCODING 279
SWIDTH 504 0
DWIDTH 14 0
BBX 12 19 1 0
BITMAP
0200
0F00
0F80
0F00
0200
0000
0F80
3FE0
78E0
70F0
F0F0
F0F0
FFF0
F000
F000
F800
7C30
3FF0
1FC0
ENDCHAR
STARTCHAR 0118
ENCODING 280
SWIDTH 612 0
DWIDTH 17 0
BBX 16 26 1 -7
BITMAP
FFFC
FFFC
3C1C
3C0C
3C0E
3C00
3C10
3C30
3C70
3FF0
3CF0
3C30
3C30
3C00
3C07
3C06
3E0E
FFFE
FFFE
0030
00E0
01E0
01E0
01FC
00FC
0070
ENDCHAR
STARTCHAR 0119
ENCODING 281
SWIDTH 504 0
DWIDTH 14 0
BBX 12 20 1 -7
BITMAP
0F80
3FE0
78E0
70F0
F0F0
F0F0
FFF0
F000
F000
F800
7C30
3FF0
1FC0
0180
0380
0700
0780
07F0
03F0
01C0
ENDCHAR
STARTCHAR 011A
ENCODING 282
SWIDTH 612 0
DWIDTH 17 0
BBX 16 24 1 1
BITMAP
3C70
0FE0
0780
0300
0000
FFFC
FFFC
3C1C
3C0C
3C0E
3C00
3C10
3C30
3C70
3FF0
3CF0
3C30
3C30
3C00
3C07
3C06
3E0E
FFFE
FFFE
ENDCHAR
STARTCHAR 011B
ENCODING 283
SWIDTH 504 0
DWIDTH 14 0
BBX 12 20 1 0
BITMAP
2020
70E0
3DC0
1F80
0F00
0600
0000
0F80
3FE0
78E0
70F0
F0F0
F0F0
FFF0
F000
F000
F800
7C30
3FF0
1FC0
ENDCHAR
STARTCHAR 011C
ENCODING 284
SWIDTH 684 0
DWIDTH 19 0
BBX 18 25 1 0
BITMAP
002000
00F000
03F800
073C00
060800
000000
03FC00
0FFF00
1E0700
3C0700
780300
780300
F80000
F00000
F00000
F00000
F03FC0
F81F80
F80700
780700
7C0700
3C0700
3E0F00
1FFF00
07FC00
ENDCHAR
STARTCHAR 011D
ENCODING 285
SWIDTH 540 0
DWIDTH 15 0
BBX 13 27 1 -7
BITMAP
0700
0F00
1F80
39C0
70E0
0000
0000
1FF8
7FF8
78E0
F0F0
F0F0
F0F0
78F0
7FE0
3F80
7000
7000
7FF0
7FF8
3FF8
61F8
E038
E038
F070
FFE0
3F00
ENDCHAR
STARTCHAR 011E
ENCODING 286
SWIDTH 684 0
DWIDTH 19 0
BBX 18 24 1 0
BITMAP
060C00
07FC00
03F800
01F000
000000
03FC00
0FFF00
1E0700
3C0700
780300
780300
F80000
F00000
F00000
F00000
F03FC0
F81F80
F80700
780700
7C0700
3C0700
3E0F00
1FFF00
07FC00
ENDCHAR
STARTCHAR 011F
ENCODING 287
SWIDTH 540 0
DWIDTH 15 0
BBX 13 27 1 -7
BITMAP
6060
6060
70E0
3FC0
3FC0
0600
0000
1FF8
7FF8
78E0
F0F0
F0F0
F0F0
78F0
7FE0
3F80
7000
7000
7FF0
7FF8
3FF8
61F8
E038
E038
F070
FFE0
3F00
ENDCHAR
STARTCHAR 0120
ENCODING 288
SWIDTH 684 0
DWIDTH 19 0
BBX 18 24 1 0
BITMAP
00E000
01F000
01F000
00E000
000000
03FC00
0FFF00
1E0700
3C0700
780300
780300
F80000
F00000
F00000
F00000
F03FC0
F81F80
F80700
780700
7C0700
3C0700
3E0F00
1FFF00
07FC00
ENDCHAR
STARTCHAR 0121
ENCODING 289
SWIDTH 540 0
DWIDTH 15 0
BBX 13 25 1 -6
BITMAP
0F00
0F00
0F00
0000
0000
1FF8
7FF8
78E0
F0F0
F0F0
F0F0
78F0
7FE0
3F80
7000
7000
7FF0
7FF8
3FF8
61F8
E038
E038
F070
FFE0
3F00
ENDCHAR
STARTCHAR 0122
ENCODING 290
SWIDTH 684 0
DWIDTH 19 0
BBX 18 27 1 -8
BITMAP
03FC00
0FFF00
1E0700
3C0700
780300
780300
F80000
F00000
F00000
F00000
F03FC0
F81F80
F80700
780700
7C0700
3C0700
3E0F00
1FFF00
07FC00
000000
002000
01F000
01F000
00F000
006000
00E000
01C000
ENDCHAR
STARTCHAR 0123
ENCODING 291
SWIDTH 540 0
DWIDTH 15 0
BBX 13 27 1 -7
BITMAP
0300
0600
0E00
0F00
0F00
0C00
0000
1FF8
7FF8
78E0
F0F0
F0F0
F0F0
78F0
7FE0
3F80
7000
7000
7FF0
7FF8
3FF8
61F8
E038
E038
F070
FFE0
3F00
ENDCHAR
STARTCHAR 0124
ENCODING 292
SWIDTH 756 0
DWIDTH 21 0
BBX 19 25 1 0
BITMAP
006000
00F000
01F800
079C00
020C00
000000
FF1FE0
FF1FE0
3E07C0
3C0780
3C0780
3C0780
3C0780
3C0780
3FFF80
3FFF80
3C0780
3C0780
3C0780
3C0780
3C0780
3C0780
3E07C0
FF1FE0
FF1FE0
ENDCHAR
STARTCHAR 0125
ENCODING 293
SWIDTH 648 0
DWIDTH 18 0
BBX 16 25 1 0
BITMAP
0180
03C0
0FE0
1CF0
1020
0800
FC00
FC00
3C00
3C00
3C00
3C00
3CF0
3DFC
3FFC
3C3C
3C1E
3C1E
3C1E
3C1E
3C1E
3C1E
3C3E
FE7F
FF7F
ENDCHAR
STARTCHAR 0126
ENCODING 294
SWIDTH 756 0
DWIDTH 21 0
BBX 19 19 1 0
BITMAP
FF1FE0
FF1FE0
3E07C0
3C0780
3C0780
FFFFE0
FF0780
3C0780
3FFF80
3FFF80
3C0780
3C0780
3C0780
3C0780
3C0780
3C0780
3E07C0
FF1FE0
FF1FE0
ENDCHAR
STARTCHAR 0127
ENCODING 295
SWIDTH 648 0
DWIDTH 18 0
BBX 17 20 0 0
BITMAP
040000
7E0000
7E0000
1E0000
1E0000
FF8000
1E0000
1E7800
1EFE00
1FFE00
1E1E00
1E0F00
1E0F00
1E0F00
1E0F00
1E0F00
1E0F00
1E1F00
7F3F80
7FBF80
ENDCHAR
STARTCHAR 0128
ENCODING 296
SWIDTH 360 0
DWIDTH 10 0
BBX 9 24 1 0
BITMAP
7900
FF80
FF00
8E00
0000
FF00
FF00
3E00
3C00
3C00
3C00
3C00
3C00
3C00
3C00
3C00
3C00
3C00
3C00
3C00
3C00
3E00
FF00
FF00
ENDCHAR
STARTCHAR 0129
ENCODING 297
SWIDTH 324 0
DWIDTH 9 0
BBX 10 19 0 0
BITMAP
1000
7FC0
FF80
EF80
0200
0000
0600
7E00
7E00
1E00
1E00
1E00
1E00
1E00
1E00
1E00
1E00
7F80
7F80
ENDCHAR
STARTCHAR 012A
ENCODING 298
SWIDTH 360 0
DWIDTH 10 0
BBX 9 23 1 0
BITMAP
FF80
FF80
0000
0000
FF00
FF00
3E00
3C00
3C00
3C00
3C00
3C00
3C00
3C00
3C00
3C00
3C00
3C00
3C00
3C00
3E00
FF00
FF00
ENDCHAR
STARTCHAR 012B
ENCODING 299
SWIDTH 324 0
DWIDTH 9 0
BBX 8 18 1 0
BITMAP
FE
FE
00
00
00
0C
FC
FC
3C
3C
3C
3C
3C
3C
3C
3C
FF
FF
ENDCHAR
STARTCHAR 012C
ENCODING 300
SWIDTH 360 0
DWIDTH 10 0
BBX 9 24 1 0
BITMAP
C180
E300
7F00
3E00
0000
FF00
FF00
3E00
3C00
3C00
3C00
3C00
3C00
3C00
3C00
3C00
3C00
3C00
3C00
3C00
3C00
3E00
FF00
FF00
ENDCHAR
STARTCHAR 012D
ENCODING 301
SWIDTH 324 0
DWIDTH 9 0
BBX 9 20 0 0
BITMAP
4180
E180
E380
7F80
3F00
0800
0000
0600
7E00
7E00
1E00
1E00
1E00
1E00
1E00
1E00
1E00
1E00
7F80
7F80
ENDCHAR
STARTCHAR 012E
ENCODING 302
SWIDTH 360 0
DWIDTH 10 0
BBX 8 26 1 -7
BITMAP
FF
FF
3E
3C
3C
3C
3C
3C
3C
3C
3C
3C
3C
3C
3C
3C
3E
FF
FF
18
30
70
70
7E
7E
38
ENDCHAR
STARTCHAR 012F
ENCODING 303
SWIDTH 324 0
DWIDTH 9 0
BBX 8 26 1 -7
BITMAP
3C
7C
7C
38
00
00
0C
FC
FC
3C
3C
3C
3C
3C
3C
3C
3C
FF
FF
18
70
70
F0
FE
7E
38
ENDCHAR
STARTCHAR 0130
ENCODING 304
SWIDTH 360 0
DWIDTH 10 0
BBX 8 24 1 0
BITMAP
1C
3E
3E
1C
00
FF
FF
3E
3C
3C
3C
3C
3C
3C
3C
3C
3C
3C
3C
3C
3C
3E
FF
FF
ENDCHAR
STARTCHAR 0131
ENCODING 305
SWIDTH 324 0
DWIDTH 9 0
BBX 8 13 1 0
BITMAP
0C
FC
FC
3C
3C
3C
3C
3C
3C
3C
3C
FF
FF
ENDCHAR
STARTCHAR 0132
ENCODING 306
SWIDTH 684 0
DWIDTH 19 0
BBX 17 26 1 -7
BITMAP
FF7F80
FF7F80
3E1F00
3C1E00
3C1E00
3C1E00
3C1E00
3C1E00
3C1E00
3C1E00
3C1E00
3C1E00
3C1E00
3C1E00
3C1E00
3C1E00
3E1E00
FF1E00
FF1E00
001E00
001E00
003C00
003800
007800
00E000
00C000
ENDCHAR
STARTCHAR 0133
ENCODING 307
SWIDTH 576 0
DWIDTH 16 0
BBX 14 26 1 -7
BITMAP
3C3C
7C7C
7C7C
3838
0000
0000
0C0C
FCFC
FCFC
3C3C
3C3C
3C3C
3C3C
3C3C
3C3C
3C3C
3C3C
FF3C
FF3C
003C
0038
0078
0070
00E0
01C0
0080
ENDCHAR
STARTCHAR 0134
ENCODING 308
SWIDTH 360 0
DWIDTH 10 0
BBX 9 31 0 -7
BITMAP
1E00
3F00
7700
6380
0000
7F80
7F80
1E00
1E00
1E00
1E00
1E00
1E00
1E00
1E00
1E00
1E00
1E00
1E00
1E00
1E00
1E00
1E00
1E00
1E00
1C00
3C00
3800
7000
E000
C000
ENDCHAR
STARTCHAR 0135
ENCODING 309
SWIDTH 288 0
DWIDTH 8 0
BBX 9 27 0 -7
BITMAP
0C00
1E00
3E00
7700
E380
4000
0000
0600
7E00
7E00
1E00
1E00
1E00
1E00
1E00
1E00
1E00
1E00
1E00
1E00
1E00
1C00
3C00
3800
7000
E000
4000
ENDCHAR
STARTCHAR 0136
ENCODING 310
SWIDTH 720 0
DWIDTH 20 0
BBX 19 27 1 -8
BITMAP
FF1FC0
FF1F80
3E0E00
3C0C00
3C1800
3C3000
3C6000
3CC000
3DC000
3FE000
3DF000
3DF800
3CF800
3C7C00
3C3E00
3C3E00
3E1F00
FF0FE0
FF0FE0
000000
006000
01E000
01E000
00E000
00E000
00C000
018000
ENDCHAR
STARTCHAR 0137
ENCODING 311
SWIDTH 576 0
DWIDTH 16 0
BBX 16 28 1 -8
BITMAP
0800
FC00
FC00
3C00
3C00
3C00
3C00
3C7E
3C7E
3C38
3C70
3CE0
3DC0
3FE0
3DF0
3CF0
3C78
3C7C
FE3F
FE1F
0000
0080
07C0
07C0
0380
0180
0300
0700
ENDCHAR
STARTCHAR 0138
ENCODING 312
SWIDTH 612 0
DWIDTH 17 0
BBX 16 13 1 0
BITMAP
0CFE
FCFE
FC70
3CE0
3DC0
3F80
3FC0
3FE0
3DF0
3CF8
3C7C
FE3F
FF3E
ENDCHAR
STARTCHAR 0139
ENCODING 313
SWIDTH 576 0
DWIDTH 16 0
BBX 15 24 1 0
BITMAP
0F00
0E00
1C00
0800
0000
FF00
FF00
3E00
3C00
3C00
3C00
3C00
3C00
3C00
3C00
3C00
3C00
3C00
3C00
3C06
3C0E
3E0E
FFFE
FFFE
ENDCHAR
STARTCHAR 013A
ENCODING 314
SWIDTH 324 0
DWIDTH 9 0
BBX 8 25 1 0
BITMAP
0E
1C
18
18
00
08
FC
FC
3C
3C
3C
3C
3C
3C
3C
3C
3C
3C
3C
3C
3C
3C
3C
FF
FF
ENDCHAR
STARTCHAR 013B
ENCODING 315
SWIDTH 576 0
DWIDTH 16 0
BBX 15 27 1 -8
BITMAP
FF00
FF00
3E00
3C00
3C00
3C00
3C00
3C00
3C00
3C00
3C00
3C00
3C00
3C00
3C06
3C0E
3E0E
FFFE
FFFE
0000
0080
07C0
07C0
0380
0180
0380
0700
ENDCHAR
STARTCHAR 013C
ENCODING 316
SWIDTH 324 0
DWIDTH 9 0
BBX 8 28 1 -8
BITMAP
08
FC
FC
3C
3C
3C
3C
3C
3C
3C
3C
3C
3C
3C
3C
3C
3C
3C
FF
FF
00
08
3C
7C
1C
18
38
30
ENDCHAR
STARTCHAR 013D
ENCODING 317
SWIDTH 576 0
DWIDTH 16 0
BBX 15 20 1 0
BITMAP
000E
FF1E
FF1E
3E1E
3C0E
3C0C
3C0C
3C18
3C00
3C00
3C00
3C00
3C00
3C00
3C00
3C06
3C0E
3E0E
FFFE
FFFE
ENDCHAR
STARTCHAR 013E
ENCODING 318
SWIDTH 468 0
DWIDTH 13 0
BBX 12 20 1 0
BITMAP
0870
FCF0
FDF0
3CF0
3C70
3C60
3C60
3CC0
3C00
3C00
3C00
3C00
3C00
3C00
3C00
3C00
3C00
3C00
FF00
FF00
ENDCHAR
STARTCHAR 013F
ENCODING 319
SWIDTH 576 0
DWIDTH 16 0
BBX 15 19 1 0
BITMAP
FF00
FF00
3E00
3C00
3C00
3C00
3C00
3C0C
3C1C
3C1C
3C08
3C00
3C00
3C00
3C06
3C0E
3E0E
FFFE
FFFE
ENDCHAR
STARTCHAR 0140
ENCODING 320
SWIDTH 324 0
DWIDTH 9 0
BBX 10 20 1 0
BITMAP
0800
FC00
FC00
3C00
3C00
3C00
3C00
3C00
3C00
3DC0
3DC0
3DC0
3C00
3C00
3C00
3C00
3C00
3C00
FF00
FF00
ENDCHAR
STARTCHAR 0141
ENCODING 321
SWIDTH 576 0
DWIDTH 16 0
BBX 15 19 1 0
BITMAP
FF00
FF00
3E00
3C00
3C00
3C00
3C80
3D80
3F80
3E00
7C00
FC00
FC00
3C00
3C06
3C0E
3E0E
FFFE
FFFE
ENDCHAR
STARTCHAR 0142
ENCODING 322
SWIDTH 324 0
DWIDTH 9 0
BBX 10 20 0 0
BITMAP
0400
7E00
7E00
1E00
1E00
1E00
1E00
1E00
1FC0
1F80
1F00
3E00
FE00
DE00
1E00
1E00
1E00
1E00
7F80
7F80
ENDCHAR
STARTCHAR 0143
ENCODING 323
SWIDTH 720 0
DWIDTH 20 0
BBX 18 24 1 0
BITMAP
007000
006000
00E000
00C000
000000
FC0FC0
FC0FC0
3E0380
3F0300
3F8100
3F8100
37C100
33E100
33F100
31F100
30F900
307D00
307F00
303F00
301F00
300F00
300F00
FC0700
FC0300
ENDCHAR
STARTCHAR 0144
ENCODING 324
SWIDTH 648 0
DWIDTH 18 0
BBX 16 20 1 0
BITMAP
0070
00E0
00E0
00C0
0180
0000
0000
0C70
FDFC
FFFC
3C3E
3C1E
3C1E
3C1E
3C1E
3C1E
3C1E
3C1E
FF7F
FF7F
ENDCHAR
STARTCHAR 0145
ENCODING 325
SWIDTH 720 0
DWIDTH 20 0
BBX 18 27 1 -8
BITMAP
FC0FC0
FC0FC0
3E0380
3F0300
3F8100
3F8100
37C100
33E100
33F100
31F100
30F900
307D00
307F00
303F00
301F00
300F00
300F00
FC0700
FC0300
000000
002000
00F000
00F000
007000
007000
006000
00C000
ENDCHAR
STARTCHAR 0146
ENCODING 326
SWIDTH 648 0
DWIDTH 18 0
BBX 16 21 1 -8
BITMAP
0C70
FDFC
FFFC
3C3E
3C1E
3C1E
3C1E
3C1E
3C1E
3C1E
3C1E
FF7F
FF7F
0000
00C0
03C0
03C0
01C0
01C0
0180
0300
ENDCHAR
STARTCHAR 0147
ENCODING 327
SWIDTH 720 0
DWIDTH 20 0
BBX 18 25 1 0
BITMAP
000800
0F1C00
07F000
01E000
00C000
000000
FC0FC0
FC0FC0
3E0380
3F0300
3F8100
3F8100
37C100
33E100
33F100
31F100
30F900
307D00
307F00
303F00
301F00
300F00
300F00
FC0700
FC0300
ENDCHAR
STARTCHAR 0148
ENCODING 328
SWIDTH 648 0
DWIDTH 18 0
BBX 16 20 1 0
BITMAP
0808
1C38
0FF0
07E0
03C0
0180
0000
0C70
FDFC
FFFC
3C3E
3C1E
3C1E
3C1E
3C1E
3C1E
3C1E
3C1E
FF7F
FF7F
ENDCHAR
STARTCHAR 0149
ENCODING 329
SWIDTH 828 0
DWIDTH 23 0
BBX 21 20 2 0
BITMAP
300000
F00000
F00000
700000
300000
700000
600000
C0C780
4FDFC0
0FFFE0
03C1E0
03C1E0
03C1E0
03C1E0
03C1E0
03C1E0
03C1E0
03C1E0
0FF7F0
0FF7F8
ENDCHAR
STARTCHAR 014A
ENCODING 330
SWIDTH 684 0
DWIDTH 19 0
BBX 17 26 1 -7
BITMAP
0C7C00
FCFF00
FDFF00
3F0F80
3E0780
3E0780
3C0780
3C0780
3C0780
3C0780
3C0780
3C0780
3C0780
3C0780
3C0780
3C0780
3E0780
FF0780
FF0780
000780
000700
000700
00DE00
00FE00
00FC00
007000
ENDCHAR
STARTCHAR 014B
ENCODING 331
SWIDTH 612 0
DWIDTH 17 0
BBX 15 20 1 -7
BITMAP
0C70
FDFC
FFFC
3E3E
3C1E
3C1E
3C1E
3C1E
3C1E
3C1E
3C1E
FF1E
FF1E
001C
001C
003C
0278
03F8
03F0
01C0
ENDCHAR
STARTCHAR 014C
ENCODING 332
SWIDTH 720 0
DWIDTH 20 0
BBX 19 23 1 0
BITMAP
0FFE00
0FFC00
000000
000000
03F800
0FFE00
1E1F00
3C0F80
7807C0
7803C0
F003C0
F003E0
F003E0
F003E0
F003E0
F803E0
F803C0
7803C0
7803C0
3C0780
3E0F00
0FFE00
07F800
ENDCHAR
STARTCHAR 014D
ENCODING 333
SWIDTH 540 0
DWIDTH 15 0
BBX 14 18 1 0
BITMAP
3FF0
3FF0
0000
0000
0000
0FC0
3FF0
78F8
7078
F07C
F03C
F03C
F03C
F03C
F878
7878
3FF0
1FC0
ENDCHAR
STARTCHAR 014E
ENCODING 334
SWIDTH 720 0
DWIDTH 20 0
BBX 19 24 1 0
BITMAP
060C00
07FC00
03F800
01F000
000000
03F800
0FFE00
1E1F00
3C0F80
7807C0
7803C0
F003C0
F003E0
F003E0
F003E0
F003E0
F803E0
F803C0
7803C0
7803C0
3C0780
3E0F00
0FFE00
07F800
ENDCHAR
STARTCHAR 014F
ENCODING 335
SWIDTH 540 0
DWIDTH 15 0
BBX 14 20 1 0
BITMAP
3030
3030
3870
3FE0
1FC0
0200
0000
0FC0
3FF0
78F8
7078
F07C
F03C
F03C
F03C
F03C
F878
7878
3FF0
1FC0
ENDCHAR
STARTCHAR 0150
ENCODING 336
SWIDTH 720 0
DWIDTH 20 0
BBX 19 24 1 1
BITMAP
01CE00
039C00
031800
001800
000000
03F800
0FFE00
1E1F00
3C0F80
7807C0
7803C0
F003C0
F003E0
F003E0
F003E0
F003E0
F803E0
F803C0
7803C0
7803C0
3C0780
3E0F00
0FFE00
07F800
ENDCHAR
STARTCHAR 0151
ENCODING 337
SWIDTH 540 0
DWIDTH 15 0
BBX 14 20 1 0
BITMAP
0738
0E70
0E70
0C60
18C0
0000
0000
0FC0
3FF0
78F8
7078
F07C
F03C
F03C
F03C
F03C
F878
7878
3FF0
1FC0
ENDCHAR
STARTCHAR 0152
ENCODING 338
SWIDTH 972 0
DWIDTH 27 0
BBX 26 19 1 0
BITMAP
03FFFF00
0FFFFF80
1C1E0380
3C0F0380
78078180
78078000
F007C000
F007CC00
F003CC00
F003FC00
F003FC00
F007CC00
F8078400
78078000
780780C0
7C0F01C0
3E0E0380
1FFFFF80
07FFFF80
ENDCHAR
STARTCHAR 0153
ENCODING 339
SWIDTH 792 0
DWIDTH 22 0
BBX 21 13 1 0
BITMAP
0F87C0
3FFFE0
78FCF0
707C78
F07878
F07878
F07FF8
F07800
F07800
F87C00
787E18
3FFFF8
1FCFE0
ENDCHAR
STARTCHAR 0154
ENCODING 340
SWIDTH 684 0
DWIDTH 19 0
BBX 18 24 1 0
BITMAP
00E000
01C000
018000
008000
000000
FFF000
FFFC00
3C3E00
3C1F00
3C0F00
3C0F00
3C0F00
3C1E00
3C3E00
3FFC00
3FF000
3CF800
3C7C00
3C3C00
3C3E00
3C1E00
3E1F00
FF0FC0
FF0FC0
ENDCHAR
STARTCHAR 0155
ENCODING 341
SWIDTH 468 0
DWIDTH 13 0
BBX 12 20 1 0
BITMAP
01C0
0380
0380
0700
0600
0000
0000
0CE0
FDF0
FFF0
3A60
3C60
3C00
3C00
3C00
3C00
3C00
3C00
FF80
FF80
ENDCHAR
STARTCHAR 0156
ENCODING 342
SWIDTH 684 0
DWIDTH 19 0
BBX 18 27 1 -8
BITMAP
FFF000
FFFC00
3C3E00
3C1F00
3C0F00
3C0F00
3C0F00
3C1E00
3C3E00
3FFC00
3FF000
3CF800
3C7C00
3C3C00
3C3E00
3C1E00
3E1F00
FF0FC0
FF0FC0
000000
002000
01E000
01F000
00E000
006000
00C000
01C000
ENDCHAR
STARTCHAR 0157
ENCODING 343
SWIDTH 468 0
DWIDTH 13 0
BBX 12 21 1 -8
BITMAP
0CE0
FDF0
FFF0
3A60
3C60
3C00
3C00
3C00
3C00
3C00
3C00
FF80
FF80
0000
0400
3E00
3E00
1C00
0C00
1800
3800
ENDCHAR
STARTCHAR 0158
ENCODING 344
SWIDTH 684 0
DWIDTH 19 0
BBX 18 25 1 0
BITMAP
081000
1E7800
0FE000
07C000
038000
000000
FFF000
FFFC00
3C3E00
3C1F00
3C0F00
3C0F00
3C0F00
3C1E00
3C3E00
3FFC00
3FF000
3CF800
3C7C00
3C3C00
3C3E00
3C1E00
3E1F00
FF0FC0
FF0FC0
ENDCHAR
STARTCHAR 0159
ENCODING 345
SWIDTH 468 0
DWIDTH 13 0
BBX 12 20 1 0
BITMAP
2040
70E0
3FC0
1F80
0F00
0400
0000
0CE0
FDF0
FFF0
3A60
3C60
3C00
3C00
3C00
3C00
3C00
3C00
FF80
FF80
ENDCHAR
STARTCHAR 015A
ENCODING 346
SWIDTH 540 0
DWIDTH 15 0
BBX 14 24 1 0
BITMAP
01C0
0380
0300
0000
0000
0FC0
3FF0
7870
7070
7030
7800
7C00
7F00
3FC0
3FF0
0FF0
03F8
00F8
607C
6038
7038
F078
FFF0
3FE0
ENDCHAR
STARTCHAR 015B
ENCODING 347
SWIDTH 432 0
DWIDTH 12 0
BBX 11 20 1 0
BITMAP
0380
0780
0700
0600
0C00
0000
0000
1F80
7FC0
F1C0
F0C0
F800
7E00
7F80
1FC0
03E0
C1E0
E1E0
FFC0
7F80
ENDCHAR
STARTCHAR 015C
ENCODING 348
SWIDTH 540 0
DWIDTH 15 0
BBX 14 25 1 0
BITMAP
0300
0780
0FC0
3CE0
1060
0000
0FC0
3FF0
7870
7070
7030
7800
7C00
7F00
3FC0
3FF0
0FF0
03F8
00F8
607C
6038
7038
F078
FFF0
3FE0
ENDCHAR
STARTCHAR 015D
ENCODING 349
SWIDTH 432 0
DWIDTH 12 0
BBX 11 20 1 0
BITMAP
0600
0F00
1F80
7BC0
E1E0
4000
0000
1F80
7FC0
F1C0
F0C0
F800
7E00
7F80
1FC0
03E0
C1E0
E1E0
FFC0
7F80
ENDCHAR
STARTCHAR 015E
ENCODING 350
SWIDTH 540 0
DWIDTH 15 0
BBX 14 26 1 -7
BITMAP
0FC0
3FF0
7870
7070
7030
7800
7C00
7F00
3FC0
3FF0
0FF0
03F8
00F8
607C
6038
7038
F078
FFF0
3FE0
0200
0700
0780
0180
0180
0780
0600
ENDCHAR
STARTCHAR 015F
ENCODING 351
SWIDTH 432 0
DWIDTH 12 0
BBX 11 20 1 -7
BITMAP
1F80
7FC0
F1C0
F0C0
F800
7E00
7F80
1FC0
03E0
C1E0
E1E0
FFC0
7F80
0C00
1C00
1E00
0700
0600
1E00
1800
ENDCHAR
STARTCHAR 0160
ENCODING 352
SWIDTH 540 0
DWIDTH 15 0
BBX 14 25 1 0
BITMAP
1020
3CE0
1FC0
0F80
0700
0000
0FC0
3FF0
7870
7070
7030
7800
7C00
7F00
3FC0
3FF0
0FF0
03F8
00F8
607C
6038
7038
F078
FFF0
3FE0
ENDCHAR
STARTCHAR 0161
ENCODING 353
SWIDTH 432 0
DWIDTH 12 0
BBX 11 20 1 0
BITMAP
4040
E1C0
7F80
3F00
1E00
0C00
0000
1F80
7FC0
F1C0
F0C0
F800
7E00
7F80
1FC0
03E0
C1E0
E1E0
FFC0
7F80
ENDCHAR
STARTCHAR 0162
ENCODING 354
SWIDTH 648 0
DWIDTH 18 0
BBX 16 26 1 -7
BITMAP
FFFF
FFFF
E3C7
C3C3
C3C3
03C0
03C0
03C0
03C0
03C0
03C0
03C0
03C0
03C0
03C0
03C0
03C0
1FF8
1FF8
0100
0300
03C0
00C0
00C0
03C0
0300
ENDCHAR
STARTCHAR 0163
ENCODING 355
SWIDTH 360 0
DWIDTH 10 0
BBX 10 24 0 -7
BITMAP
0C00
3C00
3C00
3C00
3C00
FFC0
3F00
3C00
3C00
3C00
3C00
3C00
3C00
3C00
1E00
1FC0
0F80
0400
0E00
0F00
0300
0300
0F00
0C00
ENDCHAR
STARTCHAR 0164
ENCODING 356
SWIDTH 648 0
DWIDTH 18 0
BBX 16 25 1 0
BITMAP
0010
1E78
0FE0
03C0
0180
0000
FFFF
FFFF
E3C7
C3C3
C3C3
03C0
03C0
03C0
03C0
03C0
03C0
03C0
03C0
03C0
03C0
03C0
03C0
1FF8
1FF8
ENDCHAR
STARTCHAR 0165
ENCODING 357
SWIDTH 504 0
DWIDTH 14 0
BBX 15 20 0 0
BITMAP
000C
003E
003E
0C1E
3C0C
3C0C
3C18
3C18
FFC0
3F00
3C00
3C00
3C00
3C00
3C00
3C00
3C00
1E00
1FC0
0F80
ENDCHAR
STARTCHAR 0166
ENCODING 358
SWIDTH 648 0
DWIDTH 18 0
BBX 16 19 1 0
BITMAP
FFFF
FFFF
E3C7
C3C3
C3C3
03C0
03C0
03C0
1FFC
1FFC
03C0
03C0
03C0
03C0
03C0
03C0
03C0
1FF8
1FF8
ENDCHAR
STARTCHAR 0167
ENCODING 359
SWIDTH 360 0
DWIDTH 10 0
BBX 10 17 0 0
BITMAP
0C00
3C00
3C00
3C00
3C00
FFC0
3F00
3C00
3C00
FF80
FF80
3C00
3C00
3C00
1E00
1FC0
0F80
ENDCHAR
STARTCHAR 0168
ENCODING 360
SWIDTH 684 0
DWIDTH 19 0
BBX 17 24 1 0
BITMAP
03C600
07FC00
04FC00
000000
000000
FF1F80
FF1F80
7C0700
3C0600
3C0600
3C0600
3C0600
3C0600
3C0600
3C0600
3C0600
3C0600
3C0600
3C0600
3C0600
3E0600
1E0C00
1FFC00
0FF000
ENDCHAR
STARTCHAR 0169
ENCODING 361
SWIDTH 576 0
DWIDTH 16 0
BBX 16 19 0 0
BITMAP
0708
0FF8
1FF8
10E0
0000
0000
0C0C
7C7E
FC7E
3C3E
3C1E
3C1E
3C1E
3C1E
3C1E
3C1E
3E1F
1FFF
0F9C
ENDCHAR
STARTCHAR 016A
ENCODING 362
SWIDTH 684 0
DWIDTH 19 0
BBX 17 23 1 0
BITMAP
07FE00
0FFE00
000000
000000
FF1F80
FF1F80
7C0700
3C0600
3C0600
3C0600
3C0600
3C0600
3C0600
3C0600
3C0600
3C0600
3C0600
3C0600
3C0600
3E0600
1E0C00
1FFC00
0FF000
ENDCHAR
STARTCHAR 016B
ENCODING 363
SWIDTH 576 0
DWIDTH 16 0
BBX 16 18 0 0
BITMAP
1FF8
1FF8
0000
0000
0000
0C0C
7C7E
FC7E
3C3E
3C1E
3C1E
3C1E
3C1E
3C1E
3C1E
3E1F
1FFF
0F9C
ENDCHAR
STARTCHAR 016C
ENCODING 364
SWIDTH 684 0
DWIDTH 19 0
BBX 17 24 1 0
BITMAP
060C00
07FC00
03F800
01F000
000000
FF1F80
FF1F80
7C0700
3C0600
3C0600
3C0600
3C0600
3C0600
3C0600
3C0600
3C0600
3C0600
3C0600
3C0600
3C0600
3E0600
1E0C00
1FFC00
0FF000
ENDCHAR
STARTCHAR 016D
ENCODING 365
SWIDTH 576 0
DWIDTH 16 0
BBX 16 20 0 0
BITMAP
080C
1C18
1E38
0FF8
07F0
0080
0000
0C0C
7C7E
FC7E
3C3E
3C1E
3C1E
3C1E
3C1E
3C1E
3C1E
3E1F
1FFF
0F9C
ENDCHAR
STARTCHAR 016E
ENCODING 366
SWIDTH 684 0
DWIDTH 19 0
BBX 17 25 1 0
BITMAP
006000
01B800
039800
019800
01F000
000000
FF1F80
FF1F80
7C0700
3C0600
3C0600
3C0600
3C0600
3C0600
3C0600
3C0600
3C0600
3C0600
3C0600
3C0600
3C0600
3E0600
1E0C00
1FFC00
0FF000
ENDCHAR
STARTCHAR 016F
ENCODING 367
SWIDTH 576 0
DWIDTH 16 0
BBX 16 20 0 0
BITMAP
03C0
0760
0670
0660
03E0
0000
0000
0C0C
7C7E
FC7E
3C3E
3C1E
3C1E
3C1E
3C1E
3C1E
3C1E
3E1F
1FFF
0F9C
ENDCHAR
STARTCHAR 0170
ENCODING 368
SWIDTH 684 0
DWIDTH 19 0
BBX 17 24 1 1
BITMAP
01CE00
039C00
031C00
010800
000000
FF1F80
FF1F80
7C0700
3C0600
3C0600
3C0600
3C0600
3C0600
3C0600
3C0600
3C0600
3C0600
3C0600
3C0600
3C0600
3E0600
1E0C00
1FFC00
0FF000
ENDCHAR
STARTCHAR 0171
ENCODING 369
SWIDTH 576 0
DWIDTH 16 0
BBX 16 20 0 0
BITMAP
03DE
039C
0738
0630
0630
0000
0000
0C0C
7C7E
FC7E
3C3E
3C1E
3C1E
3C1E
3C1E
3C1E
3C1E
3E1F
1FFF
0F9C
ENDCHAR
STARTCHAR 0172
ENCODING 370
SWIDTH 684 0
DWIDTH 19 0
BBX 17 26 1 -7
BITMAP
FF1F80
FF1F80
7C0700
3C0600
3C0600
3C0600
3C0600
3C0600
3C0600
3C0600
3C0600
3C0600
3C0600
3C0600
3C0600
3E0600
1E0C00
1FFC00
0FF800
006000
00E000
01E000
01E000
01FC00
00FC00
007000
ENDCHAR
STARTCHAR 0173
ENCODING 371
SWIDTH 576 0
DWIDTH 16 0
BBX 16 20 0 -7
BITMAP
0C0C
7C7E
FC7E
3C3E
3C1E
3C1E
3C1E
3C1E
3C1E
3C1E
3E1F
1FFF
0F9E
001C
0038
0038
0078
007F
003F
001C
ENDCHAR
STARTCHAR 0174
ENCODING 372
SWIDTH 972 0
DWIDTH 27 0
BBX 27 25 0 0
BITMAP
00030000
00078000
000FC000
003CE000
00106000
00000000
FF8307E0
7F0307E0
3E0781C0
3E078180
1E0F8180
1E0FC180
1F0FC100
0F1BE300
0F1BE300
0F99E200
0FB1F600
07B0F600
07F0F600
07E0FC00
03E07C00
03E07C00
03C07800
01C03800
01803800
ENDCHAR
STARTCHAR 0175
ENCODING 373
SWIDTH 756 0
DWIDTH 21 0
BBX 21 20 0 0
BITMAP
001800
003C00
007E00
00E700
01C380
000000
000000
FF18F8
FF1CF8
3C3C30
3C3C30
1E3E20
1E7E60
1E6F60
0FCF40
0FCFC0
0F87C0
078780
078380
070380
ENDCHAR
STARTCHAR 0176
ENCODING 374
SWIDTH 612 0
DWIDTH 17 0
BBX 17 25 0 0
BITMAP
002000
00F000
01F800
079E00
020400
000000
FF0F80
7F0F80
3E0700
1E0600
1F0600
0F0C00
0F8C00
079800
07D800
03F000
03F000
01E000
01E000
01E000
01E000
01E000
03E000
0FF800
0FFC00
ENDCHAR
STARTCHAR 0177
ENCODING 375
SWIDTH 540 0
DWIDTH 15 0
BBX 15 27 0 -7
BITMAP
00C0
01E0
03F0
0778
0E1C
0000
0000
FF3E
FF3E
3E1C
3E18
1E18
1F10
0F30
0FB0
07E0
07E0
03C0
03C0
0380
0180
0180
0300
6F00
7E00
7C00
3800
ENDCHAR
STARTCHAR 0178
ENCODING 376
SWIDTH 612 0
DWIDTH 17 0
BBX 17 24 0 0
BITMAP
070E00
079E00
079E00
030C00
000000
FF0F80
7F0F80
3E0700
1E0600
1F0600
0F0C00
0F8C00
079800
07D800
03F000
03F000
01E000
01E000
01E000
01E000
01E000
03E000
0FF800
0FFC00
ENDCHAR
STARTCHAR 0179
ENCODING 377
SWIDTH 576 0
DWIDTH 16 0
BBX 15 24 1 0
BITMAP
00E0
01C0
0180
0000
0000
7FFC
7FFC
707C
70F8
60F8
21F0
01F0
03E0
03C0
07C0
0F80
0F80
1F00
1F00
3E0E
7C0C
7C1C
FFFC
FFFC
ENDCHAR
STARTCHAR 017A
ENCODING 378
SWIDTH 504 0
DWIDTH 14 0
BBX 12 20 1 0
BITMAP
01C0
0380
0380
0300
0600
0000
0000
7FF0
7FF0
61E0
63E0
67C0
0780
0F80
1F00
3E30
3C30
7C70
FFF0
FFF0
ENDCHAR
STARTCHAR 017B
ENCODING 379
SWIDTH 576 0
DWIDTH 16 0
BBX 15 24 1 0
BITMAP
0380
07C0
07C0
0380
0000
7FFC
7FFC
707C
70F8
60F8
21F0
01F0
03E0
03C0
07C0
0F80
0F80
1F00
1F00
3E0E
7C0C
7C1C
FFFC
FFFC
ENDCHAR
STARTCHAR 017C
ENCODING 380
SWIDTH 504 0
DWIDTH 14 0
BBX 12 19 1 0
BITMAP
0200
0F00
0F00
0F00
0000
0000
7FF0
7FF0
61E0
63E0
67C0
0780
0F80
1F00
3E30
3C30
7C70
FFF0
FFF0
ENDCHAR
STARTCHAR 017D
ENCODING 381
SWIDTH 576 0
DWIDTH 16 0
BBX 15 25 1 0
BITMAP
0800
1E70
0FE0
07C0
0300
0000
7FFC
7FFC
707C
70F8
60F8
21F0
01F0
03E0
03C0
07C0
0F80
0F80
1F00
1F00
3E0E
7C0C
7C1C
FFFC
FFFC
ENDCHAR
STARTCHAR 017E
ENCODING 382
SWIDTH 504 0
DWIDTH 14 0
BBX 12 20 1 0
BITMAP
2040
70E0
3FC0
1F80
0F00
0400
0000
7FF0
7FF0
61E0
63E0
67C0
0780
0F80
1F00
3E30
3C30
7C70
FFF0
FFF0
ENDCHAR
STARTCHAR 017F
ENCODING 383
SWIDTH 360 0
DWIDTH 10 0
BBX 12 20 1 0
BITMAP
03E0
0FF0
1E70
1C70
3C70
3C00
3C00
3C00
FC00
7C00
3C00
3C00
3C00
3C00
3C00
3C00
3C00
3C00
FF80
FF80
ENDCHAR
STARTCHAR 018E
ENCODING 398
SWIDTH 612 0
DWIDTH 17 0
BBX 15 19 1 0
BITMAP
7FFE
7FFE
7078
6078
6078
0078
0078
0C78
0E78
0FF8
0F78
0C78
0878
0078
C078
E078
E078
FFFE
7FFE
ENDCHAR
STARTCHAR 018F
ENCODING 399
SWIDTH 648 0
DWIDTH 18 0
BBX 17 19 1 0
BITMAP
1FE000
7FF800
703C00
701E00
601F00
200F00
000F00
000F80
000F80
FFFF80
FFFF80
F00F00
F00F00
F00F00
780E00
781E00
3C1C00
1FF800
0FE000
ENDCHAR
STARTCHAR 0192
ENCODING 402
SWIDTH 396 0
DWIDTH 11 0
BBX 19 27 -5 -7
BITMAP
0007C0
001FE0
003CE0
003CE0
0078C0
007800
007800
007800
03FE00
00F800
00F000
00F000
00F000
00F000
00E000
01E000
01E000
01E000
01E000
01E000
01C000
01C000
63C000
638000
678000
FF0000
FC0000
ENDCHAR
STARTCHAR 019D
ENCODING 413
SWIDTH 720 0
DWIDTH 20 0
BBX 22 26 -3 -7
BITMAP
0FC0FC
0FC0FC
03E038
03F030
03F810
03F810
037C10
033E10
033F10
031F10
030F90
0307D0
0307F0
0303F0
0301F0
0300F0
0300F0
030070
030030
030000
030000
060000
9E0000
FE0000
FC0000
700000
ENDCHAR
STARTCHAR 01A0
ENCODING 416
SWIDTH 720 0
DWIDTH 20 0
BBX 19 22 1 0
BITMAP
0000C0
0000C0
0001C0
03FFC0
0FFF00
1E1F00
3C0F80
7807C0
7803C0
F003C0
F003E0
F003E0
F003E0
F003E0
F803E0
F803C0
7803C0
7803C0
3C0780
3E0F00
0FFE00
07F800
ENDCHAR
STARTCHAR 01A1
ENCODING 417
SWIDTH 576 0
DWIDTH 16 0
BBX 14 16 1 0
BITMAP
001C
000C
000C
0FFC
3FF0
78F8
7078
F07C
F03C
F03C
F03C
F03C
F878
7878
3FF0
1FC0
ENDCHAR
STARTCHAR 01AF
ENCODING 431
SWIDTH 756 0
DWIDTH 21 0
BBX 20 22 1 0
BITMAP
000070
000070
000070
FF1FE0
FF1FC0
7C0700
3C0600
3C0600
3C0600
3C0600
3C0600
3C0600
3C0600
3C0600
3C0600
3C0600
3C0600
3C0600
3E0600
1E0C00
1FFC00
0FF000
ENDCHAR
STARTCHAR 01B0
ENCODING 432
SWIDTH 648 0
DWIDTH 18 0
BBX 17 16 0 0
BITMAP
000380
000380
000380
0C0F00
7C7E00
FC7E00
3C3E00
3C1E00
3C1E00
3C1E00
3C1E00
3C1E00
3C1E00
3E1F00
1FFF00
0F9C00
ENDCHAR
STARTCHAR 01B7
ENCODING 439
SWIDTH 576 0
DWIDTH 16 0
BBX 15 19 1 0
BITMAP
7FFC
7FFC
707C
60F8
61F0
21F0
03E0
07C0
0F80
07F0
00FC
007C
003E
E03E
603E
603C
707C
7FF8
3FE0
ENDCHAR
STARTCHAR 01C4
ENCODING 452
SWIDTH 1332 0
DWIDTH 37 0
BBX 35 25 1 0
BITMAP
0000000100
000001E780
000000FE00
0000003C00
0000001800
0000000000
FFF003FFC0
FFFE03FFE0
3C1F0387C0
3C0F8707C0
3C07C70F80
3C07C20F80
3C03C01F00
3C03C03E00
3C03C03E00
3C03C07C00
3C03C07C00
3C03C0F800
3C03C0F800
3C03C1F000
3C0783E060
3C0783E0E0
3E0F07C1E0
FFFC07FFC0
FFF007FFC0
ENDCHAR
STARTCHAR 01C5
ENCODING 453
SWIDTH 1224 0
DWIDTH 34 0
BBX 33 20 1 0
BITMAP
0000020200
FFF0078E00
FFFE01DC00
3C1F00F800
3C0F80F000
3C07C06000
3C07C00000
3C03C7FF00
3C03C7FF00
3C03C71F00
3C03C63E00
3C03C63C00
3C03C07C00
3C03C0F800
3C03C0F000
3C0781F300
3C0783E300
3E0F07C380
FFFC07FF80
FFF007FF80
ENDCHAR
STARTCHAR 01C6
ENCODING 454
SWIDTH 1116 0
DWIDTH 31 0
BBX 29 20 1 0
BITMAP
00081020
00FC3870
01FC1FE0
007C0FC0
003C0780
003C0300
003C0000
07FC3FF0
1FFC3FF8
387C30F0
783C71F0
F03C33E0
F03C07C0
F03C0780
F03C0F80
F03C1F18
F83C1E18
7C3E3E38
7FFE7FF8
3F387FF8
ENDCHAR
STARTCHAR 01C7
ENCODING 455
SWIDTH 936 0
DWIDTH 26 0
BBX 25 26 1 -7
BITMAP
FF007F80
FF007F80
3E003E00
3C001E00
3C001E00
3C001E00
3C001E00
3C001E00
3C001E00
3C001E00
3C001E00
3C001E00
3C001E00
3C001E00
3C061E00
3C0E1E00
3E0E1E00
FFFE1E00
FFFE1E00
00001C00
00003C00
00003C00
00007800
00007000
0000E000
00008000
ENDCHAR
STARTCHAR 01C8
ENCODING 456
SWIDTH 900 0
DWIDTH 25 0
BBX 23 26 1 -7
BITMAP
FF001C
FF003E
3E003E
3C001C
3C0000
3C0000
3C000C
3C007E
3C007E
3C001E
3C001E
3C001E
3C001E
3C001E
3C061E
3C0E1E
3E0E1E
FFFE1E
FFFE1E
00001C
00003C
00003C
000038
000070
0000E0
000040
ENDCHAR
STARTCHAR 01C9
ENCODING 457
SWIDTH 648 0
DWIDTH 18 0
BBX 15 27 1 -7
BITMAP
0800
FC1E
FC1E
3C1E
3C0C
3C00
3C00
3C06
3C7E
3C7E
3C1E
3C1E
3C1E
3C1E
3C1E
3C1E
3C1E
3C1E
FF1E
FF1E
001E
001E
001C
003C
0038
0070
0060
ENDCHAR
STARTCHAR 01CA
ENCODING 458
SWIDTH 1080 0
DWIDTH 30 0
BBX 28 26 1 -7
BITMAP
FC0FCFF0
FC0FCFF0
3E0383E0
3F0303C0
3F8103C0
3F8103C0
37C103C0
33E103C0
33F103C0
31F103C0
30F903C0
307D03C0
307F03C0
303F03C0
301F03C0
300F03C0
300F03C0
FC0703C0
FC0303C0
000003C0
000003C0
00000780
00000780
00000F00
00001C00
00001800
ENDCHAR
STARTCHAR 01CB
ENCODING 459
SWIDTH 1008 0
DWIDTH 28 0
BBX 26 26 1 -7
BITMAP
FC0FC3C0
FC0FC7C0
3E0383C0
3F030380
3F810000
3F810000
37C100C0
33E10FC0
33F10FC0
31F103C0
30F903C0
307D03C0
307F03C0
303F03C0
301F03C0
300F03C0
300F03C0
FC0703C0
FC0303C0
000003C0
00000380
00000380
00000700
00000F00
00000E00
00000800
ENDCHAR
STARTCHAR 01CC
ENCODING 460
SWIDTH 936 0
DWIDTH 26 0
BBX 24 26 1 -7
BITMAP
00000F
00000F
00000F
000006
000000
000000
0C7003
FDFC3F
FFFC3F
3C3E0F
3C1E0F
3C1E0F
3C1E0F
3C1E0F
3C1E0F
3C1E0F
3C1E0F
FF7F0F
FF7F0F
00000F
00000F
00000E
00001E
00003C
000038
000020
ENDCHAR
STARTCHAR 01CD
ENCODING 461
SWIDTH 684 0
DWIDTH 19 0
BBX 19 25 0 0
BITMAP
020000
071C00
03F800
01E000
00C000
000000
006000
00E000
00F000
01F000
01F000
01F800
037800
037C00
063C00
063E00
041E00
0C1F00
0FFF00
1FFF00
180F80
300780
3007C0
7C0FE0
FC1FE0
ENDCHAR
STARTCHAR 01CE
ENCODING 462
SWIDTH 540 0
DWIDTH 15 0
BBX 13 20 2 0
BITMAP
40C0
E1C0
7F80
3F00
1E00
0800
0000
0F80
3FC0
73E0
F1E0
F1E0
03E0
0FE0
39E0
F1E0
F1E0
F1F0
FFF8
7DF0
ENDCHAR
STARTCHAR 01CF
ENCODING 463
SWIDTH 360 0
DWIDTH 10 0
BBX 8 24 1 0
BITMAP
E3
7F
3E
1C
00
FF
FF
3E
3C
3C
3C
3C
3C
3C
3C
3C
3C
3C
3C
3C
3C
3E
FF
FF
ENDCHAR
STARTCHAR 01D0
ENCODING 464
SWIDTH 324 0
DWIDTH 9 0
BBX 8 20 1 0
BITMAP
42
E7
7E
7C
38
10
00
0C
FC
FC
3C
3C
3C
3C
3C
3C
3C
3C
FF
FF
ENDCHAR
STARTCHAR 01D1
ENCODING 465
SWIDTH 720 0
DWIDTH 20 0
BBX 19 24 1 1
BITMAP
0F1C00
03F800
01E000
00C000
000000
03F800
0FFE00
1E1F00
3C0F80
7807C0
7803C0
F003C0
F003E0
F003E0
F003E0
F003E0
F803E0
F803C0
7803C0
7803C0
3C0780
3E0F00
0FFE00
07F800
ENDCHAR
STARTCHAR 01D2
ENCODING 466
SWIDTH 540 0
DWIDTH 15 0
BBX 14 20 1 0
BITMAP
0020
3870
1FE0
0F80
0700
0200
0000
0FC0
3FF0
78F8
7078
F07C
F03C
F03C
F03C
F03C
F878
7878
3FF0
1FC0
ENDCHAR
STARTCHAR 01D3
ENCODING 467
SWIDTH 684 0
DWIDTH 19 0
BBX 17 25 1 0
BITMAP
020000
071C00
03F800
01E000
00C000
000000
FF1F80
FF1F80
7C0700
3C0600
3C0600
3C0600
3C0600
3C0600
3C0600
3C0600
3C0600
3C0600
3C0600
3C0600
3C0600
3E0600
1E0C00
1FFC00
0FF000
ENDCHAR
STARTCHAR 01D4
ENCODING 468
SWIDTH 576 0
DWIDTH 16 0
BBX 16 20 0 0
BITMAP
0808
1C38
0FF0
07E0
03C0
0180
0000
0C0C
7C7E
FC7E
3C3E
3C1E
3C1E
3C1E
3C1E
3C1E
3C1E
3E1F
1FFF
0F9C
ENDCHAR
STARTCHAR 01D5
ENCODING 469
SWIDTH 684 0
DWIDTH 19 0
BBX 17 28 1 0
BITMAP
07FE00
0FFE00
000000
000000
071C00
0F9E00
0F9E00
070C00
000000
FF1F80
FF1F80
7C0700
3C0600
3C0600
3C0600
3C0600
3C0600
3C0600
3C0600
3C0600
3C0600
3C0600
3C0600
3C0600
3E0600
1E0C00
1FFC00
0FF000
ENDCHAR
STARTCHAR 01D6
ENCODING 470
SWIDTH 576 0
DWIDTH 16 0
BBX 16 21 0 0
BITMAP
1FF8
0000
0000
0E38
1E7C
1E78
0C38
0000
0C0C
7C7E
FC7E
3C3E
3C1E
3C1E
3C1E
3C1E
3C1E
3C1E
3E1F
1FFF
0F9C
ENDCHAR
STARTCHAR 01D7
ENCODING 471
SWIDTH 684 0
DWIDTH 19 0
BBX 17 29 1 0
BITMAP
003800
007000
006000
00C000
000000
071C00
0F9E00
0F9E00
070C00
000000
FF1F80
FF1F80
7C0700
3C0600
3C0600
3C0600
3C0600
3C0600
3C0600
3C0600
3C0600
3C0600
3C0600
3C0600
3C0600
3E0600
1E0C00
1FFC00
0FF000
ENDCHAR
STARTCHAR 01D8
ENCODING 472
SWIDTH 576 0
DWIDTH 16 0
BBX 16 23 0 0
BITMAP
00F0
00E0
01C0
0180
0000
0E38
1E7C
1E78
0C38
0000
0C0C
7C7E
FC7E
3C3E
3C1E
3C1E
3C1E
3C1E
3C1E
3C1E
3E1F
1FFF
0F9C
ENDCHAR
STARTCHAR 01D9
ENCODING 473
SWIDTH 684 0
DWIDTH 19 0
BBX 17 29 1 0
BITMAP
071C00
03F800
01F000
00C000
000000
071C00
0F9E00
0F9E00
070C00
000000
FF1F80
FF1F80
7C0700
3C0600
3C0600
3C0600
3C0600
3C0600
3C0600
3C0600
3C0600
3C0600
3C0600
3C0600
3C0600
3E0600
1E0C00
1FFC00
0FF000
ENDCHAR
STARTCHAR 01DA
ENCODING 474
SWIDTH 576 0
DWIDTH 16 0
BBX 16 23 0 0
BITMAP
1E38
0FF0
07C0
0180
0000
0E38
1E7C
1E78
0C38
0000
0C0C
7C7E
FC7E
3C3E
3C1E
3C1E
3C1E
3C1E
3C1E
3C1E
3E1F
1FFF
0F9C
ENDCHAR
STARTCHAR 01DB
ENCODING 475
SWIDTH 684 0
DWIDTH 19 0
BBX 17 29 1 0
BITMAP
03C000
01C000
00E000
006000
000000
071C00
0F9E00
0F9E00
070C00
000000
FF1F80
FF1F80
7C0700
3C0600
3C0600
3C0600
3C0600
3C0600
3C0600
3C0600
3C0600
3C0600
3C0600
3C0600
3C0600
3E0600
1E0C00
1FFC00
0FF000
ENDCHAR
STARTCHAR 01DC
ENCODING 476
SWIDTH 576 0
DWIDTH 16 0
BBX 16 23 0 0
BITMAP
0700
0380
0180
01C0
0000
0E38
1E7C
1E78
0C38
0000
0C0C
7C7E
FC7E
3C3E
3C1E
3C1E
3C1E
3C1E
3C1E
3C1E
3E1F
1FFF
0F9C
ENDCHAR
STARTCHAR 01DD
ENCODING 477
SWIDTH 504 0
DWIDTH 14 0
BBX 12 13 1 0
BITMAP
1F00
7FC0
C3E0
01F0
00F0
00F0
FFF0
FFF0
F0F0
F0F0
70E0
7FC0
1F80
ENDCHAR
STARTCHAR 01E4
ENCODING 484
SWIDTH 684 0
DWIDTH 19 0
BBX 18 19 1 0
BITMAP
03FC00
0FFF00
1E0700
3C0700
780300
780300
F80000
F00000
F00000
F00000
F03FC0
F81F80
F80700
787FC0
7C7FC0
3C0700
3E0F00
1FFF00
07FC00
ENDCHAR
STARTCHAR 01E5
ENCODING 485
SWIDTH 540 0
DWIDTH 15 0
BBX 17 20 -1 -7
BITMAP
07FE00
1FFE00
1E3800
3C3C00
3C3C00
3C3C00
1E3C00
1FF800
0FE000
1C0000
1C0000
1FFC00
1FFE00
0FFE00
183E00
FFFF80
FFFF80
3C1C00
3FF800
0FC000
ENDCHAR
STARTCHAR 01E6
ENCODING 486
SWIDTH 684 0
DWIDTH 19 0
BBX 18 25 1 0
BITMAP
020000
071C00
03F800
01E000
00C000
000000
03FC00
0FFF00
1E0700
3C0700
780300
780300
F80000
F00000
F00000
F00000
F03FC0
F81F80
F80700
780700
7C0700
3C0700
3E0F00
1FFF00
07FC00
ENDCHAR
STARTCHAR 01E7
ENCODING 487
SWIDTH 540 0
DWIDTH 15 0
BBX 13 27 1 -7
BITMAP
2040
70E0
3FC0
1F80
0F00
0400
0000
1FF8
7FF8
78E0
F0F0
F0F0
F0F0
78F0
7FE0
3F80
7000
7000
7FF0
7FF8
3FF8
61F8
E038
E038
F070
FFE0
3F00
ENDCHAR
STARTCHAR 01E8
ENCODING 488
SWIDTH 720 0
DWIDTH 20 0
BBX 19 24 1 1
BITMAP
0F1C00
03F800
01E000
00C000
000000
FF1FC0
FF1F80
3E0E00
3C0C00
3C1800
3C3000
3C6000
3CC000
3DC000
3FE000
3DF000
3DF800
3CF800
3C7C00
3C3E00
3C3E00
3E1F00
FF0FE0
FF0FE0
ENDCHAR
STARTCHAR 01E9
ENCODING 489
SWIDTH 576 0
DWIDTH 16 0
BBX 16 25 1 0
BITMAP
0800
1C70
0FE0
0780
0300
0800
FC00
FC00
3C00
3C00
3C00
3C00
3C7E
3C7E
3C38
3C70
3CE0
3DC0
3FE0
3DF0
3CF0
3C78
3C7C
FE3F
FE1F
ENDCHAR
STARTCHAR 01EA
ENCODING 490
SWIDTH 720 0
DWIDTH 20 0
BBX 19 26 1 -7
BITMAP
03F800
0FFE00
1E1F00
3C0F80
7807C0
7803C0
F003C0
F003E0
F003E0
F003E0
F003E0
F803E0
F803C0
7803C0
7803C0
3C0780
3E0F00
0FFE00
07F800
003000
006000
00E000
00E000
00FC00
00FC00
007000
ENDCHAR
STARTCHAR 01EB
ENCODING 491
SWIDTH 540 0
DWIDTH 15 0
BBX 14 20 1 -7
BITMAP
0FC0
3FF0
78F8
7078
F07C
F03C
F03C
F03C
F03C
F878
7878
3FF0
1FC0
0700
0E00
1C00
1E00
1F80
1FC0
0E00
ENDCHAR
STARTCHAR 01EE
ENCODING 494
SWIDTH 576 0
DWIDTH 16 0
BBX 15 25 1 0
BITMAP
0020
3C70
1FC0
0780
0300
0000
7FFC
7FFC
707C
60F8
61F0
21F0
03E0
07C0
0F80
07F0
00FC
007C
003E
E03E
603E
603C
707C
7FF8
3FE0
ENDCHAR
STARTCHAR 01EF
ENCODING 495
SWIDTH 504 0
DWIDTH 14 0
BBX 12 27 1 -7
BITMAP
2020
70E0
3FC0
1F80
0F00
0400
0000
7FF0
7FF0
71E0
63E0
63C0
07C0
0780
0F00
1F00
1FC0
17E0
00F0
00F0
00F0
00F0
E0F0
E0F0
F1E0
FFC0
3F00
ENDCHAR
STARTCHAR 01F1
ENCODING 497
SWIDTH 1332 0
DWIDTH 37 0
BBX 35 19 1 0
BITMAP
FFF003FFC0
FFFE03FFE0
3C1F0387C0
3C0F8707C0
3C07C70F80
3C07C20F80
3C03C01F00
3C03C03E00
3C03C03E00
3C03C07C00
3C03C07C00
3C03C0F800
3C03C0F800
3C03C1F000
3C0783E060
3C0783E0E0
3E0F07C1E0
FFFC07FFC0
FFF007FFC0
ENDCHAR
STARTCHAR 01F2
ENCODING 498
SWIDTH 1224 0
DWIDTH 34 0
BBX 33 19 1 0
BITMAP
FFF0000000
FFFE000000
3C1F000000
3C0F800000
3C07C00000
3C07C00000
3C03C7FF00
3C03C7FF00
3C03C71F00
3C03C63E00
3C03C63C00
3C03C07C00
3C03C0F800
3C03C0F000
3C0781F300
3C0783E300
3E0F07C380
FFFC07FF80
FFF007FF80
ENDCHAR
STARTCHAR 01F3
ENCODING 499
SWIDTH 1116 0
DWIDTH 31 0
BBX 29 20 1 0
BITMAP
00080000
00FC0000
01FC0000
007C0000
003C0000
003C0000
003C0000
07FC3FF0
1FFC3FF8
387C30F0
783C71F0
F03C33E0
F03C07C0
F03C0780
F03C0F80
F03C1F18
F83C1E18
7C3E3E38
7FFE7FF8
3F387FF8
ENDCHAR
STARTCHAR 01FA
ENCODING 506
SWIDTH 684 0
DWIDTH 19 0
BBX 19 30 0 0
BITMAP
007800
007000
006000
00C000
000000
00E000
01B000
031800
01B800
01F000
000000
006000
00E000
00F000
01F000
01F000
01F800
037800
037C00
063C00
063E00
041E00
0C1F00
0FFF00
1FFF00
180F80
300780
3007C0
7C0FE0
FC1FE0
ENDCHAR
STARTCHAR 01FB
ENCODING 507
SWIDTH 540 0
DWIDTH 15 0
BBX 13 24 2 0
BITMAP
0700
0700
0E00
0C00
0000
0400
3F00
3300
3300
1E00
0000
0F80
3FC0
73E0
F1E0
F1E0
03E0
0FE0
39E0
F1E0
F1E0
F1F0
FFF8
7DF0
ENDCHAR
STARTCHAR 01FC
ENCODING 508
SWIDTH 936 0
DWIDTH 26 0
BBX 26 24 0 0
BITMAP
0001C000
00038000
00030000
00010000
00000000
00FFFF00
007FFF00
003F8700
00378380
00378180
00678000
00C78000
00C78C00
01878C00
01FFFC00
03FFFC00
07078C00
06078C00
0C078000
0C0781C0
180781C0
38078380
7E1FFF80
FE1FFF80
ENDCHAR
STARTCHAR 01FD
ENCODING 509
SWIDTH 720 0
DWIDTH 20 0
BBX 18 20 1 0
BITMAP
003800
003800
007000
006000
00E000
000000
000000
3F1E00
7FFF80
71F380
71E3C0
21E1C0
01FFC0
1FFFC0
79E000
F1E000
F1F000
F3F0C0
FF7FC0
7C3F80
ENDCHAR
STARTCHAR 01FE
ENCODING 510
SWIDTH 720 0
DWIDTH 20 0
BBX 19 25 1 -1
BITMAP
007800
007000
00E000
004000
000000
03F9C0
0FFF80
1E1F00
3C0F80
780FC0
781FC0
F01BC0
F033E0
F073E0
F0E3E0
F0C3E0
F983E0
FB83C0
7F03C0
7E03C0
3C0780
3E0F00
3FFE00
77F800
600000
ENDCHAR
STARTCHAR 01FF
ENCODING 511
SWIDTH 540 0
DWIDTH 15 0
BBX 14 21 1 -1
BITMAP
01E0
01C0
0180
0380
0300
0000
0008
0FDC
3FF8
78F8
70F8
F1FC
F1BC
F33C
F63C
FE3C
FC78
7878
7FF0
FFC0
C000
ENDCHAR
STARTCHAR 0200
ENCODING 512
SWIDTH 684 0
DWIDTH 19 0
BBX 19 24 0 0
BITMAP
0E7000
0E7000
073800
031800
000000
006000
00E000
00F000
01F000
01F000
01F800
037800
037C00
063C00
063E00
041E00
0C1F00
0FFF00
1FFF00
180F80
300780
3007C0
7C0FE0
FC1FE0
ENDCHAR
STARTCHAR 0201
ENCODING 513
SWIDTH 540 0
DWIDTH 15 0
BBX 13 20 2 0
BITMAP
E700
E700
7380
3180
31C0
0000
0000
0F80
3FC0
73E0
F1E0
F1E0
03E0
0FE0
39E0
F1E0
F1E0
F1F0
FFF8
7DF0
ENDCHAR
STARTCHAR 0202
ENCODING 514
SWIDTH 684 0
DWIDTH 19 0
BBX 19 24 0 0
BITMAP
03F800
07FC00
071C00
060C00
000000
006000
00E000
00F000
01F000
01F000
01F800
037800
037C00
063C00
063E00
041E00
0C1F00
0FFF00
1FFF00
180F80
300780
3007C0
7C0FE0
FC1FE0
ENDCHAR
STARTCHAR 0203
ENCODING 515
SWIDTH 540 0
DWIDTH 15 0
BBX 13 20 2 0
BITMAP
0E00
7F80
7FC0
E1C0
C0C0
4000
0000
0F80
3FC0
73E0
F1E0
F1E0
03E0
0FE0
39E0
F1E0
F1E0
F1F0
FFF8
7DF0
ENDCHAR
STARTCHAR 0204
ENCODING 516
SWIDTH 612 0
DWIDTH 17 0
BBX 16 24 1 0
BITMAP
7BC0
39C0
1CE0
0C60
0000
FFFC
FFFC
3C1C
3C0C
3C0E
3C00
3C10
3C30
3C70
3FF0
3CF0
3C30
3C30
3C00
3C07
3C06
3E0E
FFFE
FFFE
ENDCHAR
STARTCHAR 0205
ENCODING 517
SWIDTH 504 0
DWIDTH 14 0
BBX 12 20 1 0
BITMAP
7380
7380
39C0
18C0
0C60
0000
0000
0F80
3FE0
78E0
70F0
F0F0
F0F0
FFF0
F000
F000
F800
7C30
3FF0
1FC0
ENDCHAR
STARTCHAR 0206
ENCODING 518
SWIDTH 612 0
DWIDTH 17 0
BBX 16 24 1 0
BITMAP
0FE0
1FE0
1870
1830
0000
FFFC
FFFC
3C1C
3C0C
3C0E
3C00
3C10
3C30
3C70
3FF0
3CF0
3C30
3C30
3C00
3C07
3C06
3E0E
FFFE
FFFE
ENDCHAR
STARTCHAR 0207
ENCODING 519
SWIDTH 504 0
DWIDTH 14 0
BBX 12 20 1 0
BITMAP
0700
1FC0
3FE0
70E0
6070
2000
0000
0F80
3FE0
78E0
70F0
F0F0
F0F0
FFF0
F000
F000
F800
7C30
3FF0
1FC0
ENDCHAR
STARTCHAR 0208
ENCODING 520
SWIDTH 360 0
DWIDTH 10 0
BBX 9 24 0 0
BITMAP
E700
E700
7380
3180
0000
7F80
7F80
1F00
1E00
1E00
1E00
1E00
1E00
1E00
1E00
1E00
1E00
1E00
1E00
1E00
1E00
1F00
7F80
7F80
ENDCHAR
STARTCHAR 0209
ENCODING 521
SWIDTH 324 0
DWIDTH 9 0
BBX 9 20 0 0
BITMAP
CE00
EE00
E700
6300
3300
0000
0000
0600
7E00
7E00
1E00
1E00
1E00
1E00
1E00
1E00
1E00
1E00
7F80
7F80
ENDCHAR
STARTCHAR 020A
ENCODING 522
SWIDTH 360 0
DWIDTH 10 0
BBX 9 24 1 0
BITMAP
3E00
7F00
E300
C180
0000
FF00
FF00
3E00
3C00
3C00
3C00
3C00
3C00
3C00
3C00
3C00
3C00
3C00
3C00
3C00
3C00
3E00
FF00
FF00
ENDCHAR
STARTCHAR 020B
ENCODING 523
SWIDTH 324 0
DWIDTH 9 0
BBX 9 20 0 0
BITMAP
1C00
7F00
7F80
E380
C180
4000
0000
0600
7E00
7E00
1E00
1E00
1E00
1E00
1E00
1E00
1E00
1E00
7F80
7F80
ENDCHAR
STARTCHAR 020C
ENCODING 524
SWIDTH 720 0
DWIDTH 20 0
BBX 19 24 1 0
BITMAP
1EF000
0E7000
073800
031800
000000
03F800
0FFE00
1E1F00
3C0F80
7807C0
7803C0
F003C0
F003E0
F003E0
F003E0
F003E0
F803E0
F803C0
7803C0
7803C0
3C0780
3E0F00
0FFE00
07F800
ENDCHAR
STARTCHAR 020D
ENCODING 525
SWIDTH 540 0
DWIDTH 15 0
BBX 14 20 1 0
BITMAP
79C0
39C0
18C0
1CE0
0C60
0000
0000
0FC0
3FF0
78F8
7078
F07C
F03C
F03C
F03C
F03C
F878
7878
3FF0
1FC0
ENDCHAR
STARTCHAR 020E
ENCODING 526
SWIDTH 720 0
DWIDTH 20 0
BBX 19 24 1 0
BITMAP
03F800
07F800
061C00
060C00
000000
03F800
0FFE00
1E1F00
3C0F80
7807C0
7803C0
F003C0
F003E0
F003E0
F003E0
F003E0
F803E0
F803C0
7803C0
7803C0
3C0780
3E0F00
0FFE00
07F800
ENDCHAR
STARTCHAR 020F
ENCODING 527
SWIDTH 540 0
DWIDTH 15 0
BBX 14 20 1 0
BITMAP
0700
1FE0
3FE0
3070
3030
0020
0000
0FC0
3FF0
78F8
7078
F07C
F03C
F03C
F03C
F03C
F878
7878
3FF0
1FC0
ENDCHAR
STARTCHAR 0210
ENCODING 528
SWIDTH 684 0
DWIDTH 19 0
BBX 18 24 1 0
BITMAP
39C000
1CE000
0C6000
067000
000000
FFF000
FFFC00
3C3E00
3C1F00
3C0F00
3C0F00
3C0F00
3C1E00
3C3E00
3FFC00
3FF000
3CF800
3C7C00
3C3C00
3C3E00
3C1E00
3E1F00
FF0FC0
FF0FC0
ENDCHAR
STARTCHAR 0211
ENCODING 529
SWIDTH 468 0
DWIDTH 13 0
BBX 12 20 1 0
BITMAP
7380
7380
39C0
38C0
18C0
0000
0000
0CE0
FDF0
FFF0
3A60
3C60
3C00
3C00
3C00
3C00
3C00
3C00
FF80
FF80
ENDCHAR
STARTCHAR 0212
ENCODING 530
SWIDTH 684 0
DWIDTH 19 0
BBX 18 24 1 0
BITMAP
07E000
0FF000
1C3000
183800
000000
FFF000
FFFC00
3C3E00
3C1F00
3C0F00
3C0F00
3C0F00
3C1E00
3C3E00
3FFC00
3FF000
3CF800
3C7C00
3C3C00
3C3E00
3C1E00
3E1F00
FF0FC0
FF0FC0
ENDCHAR
STARTCHAR 0213
ENCODING 531
SWIDTH 468 0
DWIDTH 13 0
BBX 12 20 1 0
BITMAP
0F00
3FC0
7FE0
70E0
6060
0000
0000
0CE0
FDF0
FFF0
3A60
3C60
3C00
3C00
3C00
3C00
3C00
3C00
FF80
FF80
ENDCHAR
STARTCHAR 0214
ENCODING 532
SWIDTH 684 0
DWIDTH 19 0
BBX 17 24 1 0
BITMAP
0E7000
0E7000
073800
039800
000000
FF1F80
FF1F80
7C0700
3C0600
3C0600
3C0600
3C0600
3C0600
3C0600
3C0600
3C0600
3C0600
3C0600
3C0600
3C0600
3E0600
1E0C00
1FFC00
0FF000
ENDCHAR
STARTCHAR 0215
ENCODING 533
SWIDTH 576 0
DWIDTH 16 0
BBX 16 20 0 0
BITMAP
1CE0
1CE0
0E70
0630
0738
0000
0000
0C0C
7C7E
FC7E
3C3E
3C1E
3C1E
3C1E
3C1E
3C1E
3C1E
3E1F
1FFF
0F9C
ENDCHAR
STARTCHAR 0216
ENCODING 534
SWIDTH 684 0
DWIDTH 19 0
BBX 17 24 1 0
BITMAP
01F800
03FC00
071C00
060C00
000000
FF1F80
FF1F80
7C0700
3C0600
3C0600
3C0600
3C0600
3C0600
3C0600
3C0600
3C0600
3C0600
3C0600
3C0600
3C0600
3E0600
1E0C00
1FFC00
0FF000
ENDCHAR
STARTCHAR 0217
ENCODING 535
SWIDTH 576 0
DWIDTH 16 0
BBX 16 20 0 0
BITMAP
03C0
0FF0
0FF8
1C38
1818
0800
0000
0C0C
7C7E
FC7E
3C3E
3C1E
3C1E
3C1E
3C1E
3C1E
3C1E
3E1F
1FFF
0F9C
ENDCHAR
STARTCHAR 0218
ENCODING 536
SWIDTH 540 0
DWIDTH 15 0
BBX 14 27 1 -8
BITMAP
0FC0
3FF0
7870
7070
7030
7800
7C00
7F00
3FC0
3FF0
0FF0
03F8
00F8
607C
6038
7038
F078
FFF0
3FE0
0000
0180
0780
0780
0380
0380
0300
0600
ENDCHAR
STARTCHAR 0219
ENCODING 537
SWIDTH 432 0
DWIDTH 12 0
BBX 11 21 1 -8
BITMAP
1F80
7FC0
F1C0
F0C0
F800
7E00
7F80
1FC0
03E0
C1E0
E1E0
FFC0
7F80
0000
0600
1E00
1E00
0E00
0E00
0C00
1800
ENDCHAR
STARTCHAR 021A
ENCODING 538
SWIDTH 648 0
DWIDTH 18 0
BBX 16 27 1 -8
BITMAP
FFFF
FFFF
E3C7
C3C3
C3C3
03C0
03C0
03C0
03C0
03C0
03C0
03C0
03C0
03C0
03C0
03C0
03C0
1FF8
1FF8
0000
00C0
03C0
03C0
01C0
01C0
0180
0300
ENDCHAR
STARTCHAR 021B
ENCODING 539
SWIDTH 360 0
DWIDTH 10 0
BBX 10 25 0 -8
BITMAP
0C00
3C00
3C00
3C00
3C00
FFC0
3F00
3C00
3C00
3C00
3C00
3C00
3C00
3C00
1E00
1FC0
0F80
0000
0300
0F00
0F00
0700
0700
0600
0C00
ENDCHAR
STARTCHAR 021C
ENCODING 540
SWIDTH 576 0
DWIDTH 16 0
BBX 14 24 1 -5
BITMAP
3FC0
7FF0
70F0
60F8
6078
0078
00F8
00F0
01E0
03C0
0F00
1FF0
10F8
0078
007C
007C
003C
007C
0078
0078
00F0
43F0
FFC0
3F00
ENDCHAR
STARTCHAR 021D
ENCODING 541
SWIDTH 504 0
DWIDTH 14 0
BBX 12 20 1 -7
BITMAP
3F80
FFE0
61E0
61F0
E0F0
21E0
01E0
03C0
0F00
1FC0
1FE0
01F0
00F0
00F0
00F0
00F0
01E0
83E0
FFC0
3F00
ENDCHAR
STARTCHAR 021E
ENCODING 542
SWIDTH 756 0
DWIDTH 21 0
BBX 19 25 1 0
BITMAP
020000
079C00
03F800
01F000
00C000
000000
FF1FE0
FF1FE0
3E07C0
3C0780
3C0780
3C0780
3C0780
3C0780
3FFF80
3FFF80
3C0780
3C0780
3C0780
3C0780
3C0780
3C0780
3E07C0
FF1FE0
FF1FE0
ENDCHAR
STARTCHAR 021F
ENCODING 543
SWIDTH 648 0
DWIDTH 18 0
BBX 16 24 1 1
BITMAP
3C70
0FE0
0780
0300
0800
FC00
FC00
3C00
3C00
3C00
3C00
3CF0
3DFC
3FFC
3C3C
3C1E
3C1E
3C1E
3C1E
3C1E
3C1E
3C3E
FE7F
FF7F
ENDCHAR
STARTCHAR 0228
ENCODING 552
SWIDTH 612 0
DWIDTH 17 0
BBX 16 26 1 -7
BITMAP
FFFC
FFFC
3C1C
3C0C
3C0E
3C00
3C10
3C30
3C70
3FF0
3CF0
3C30
3C30
3C00
3C07
3C06
3E0E
FFFE
FFFE
0100
0300
03C0
00C0
00C0
03C0
0300
ENDCHAR
STARTCHAR 0229
ENCODING 553
SWIDTH 504 0
DWIDTH 14 0
BBX 12 20 1 -7
BITMAP
0F80
3FE0
78E0
70F0
F0F0
F0F0
FFF0
F000
F000
F800
7C30
3FF0
1FC0
0600
0600
0780
0380
0180
0700
0600
ENDCHAR
STARTCHAR 022A
ENCODING 554
SWIDTH 720 0
DWIDTH 20 0
BBX 19 28 1 0
BITMAP
0FFE00
0FFE00
000000
000000
071C00
0F3E00
0F3E00
061C00
000000
03F800
0FFE00
1E1F00
3C0F80
7807C0
7803C0
F003C0
F003E0
F003E0
F003E0
F003E0
F803E0
F803C0
7803C0
7803C0
3C0780
3E0F00
0FFE00
07F800
ENDCHAR
STARTCHAR 022B
ENCODING 555
SWIDTH 540 0
DWIDTH 15 0
BBX 14 21 1 0
BITMAP
3FF0
0000
0000
38E0
3CF0
3CF0
3860
0000
0FC0
3FF0
78F8
7078
F07C
F03C
F03C
F03C
F03C
F878
7878
3FF0
1FC0
ENDCHAR
STARTCHAR 022C
ENCODING 556
SWIDTH 720 0
DWIDTH 20 0
BBX 19 28 1 0
BITMAP
0FFE00
0FFC00
000000
000000
03C400
0FFC00
0CF800
000000
000000
03F800
0FFE00
1E1F00
3C0F80
7807C0
7803C0
F003C0
F003E0
F003E0
F003E0
F003E0
F803E0
F803C0
7803C0
7803C0
3C0780
3E0F00
0FFE00
07F800
ENDCHAR
STARTCHAR 022D
ENCODING 557
SWIDTH 540 0
DWIDTH 15 0
BBX 14 22 1 0
BITMAP
3FF0
3FF0
0000
0000
1E30
3FF0
37E0
0000
0000
0FC0
3FF0
78F8
7078
F07C
F03C
F03C
F03C
F03C
F878
7878
3FF0
1FC0
ENDCHAR
STARTCHAR 0230
ENCODING 560
SWIDTH 720 0
DWIDTH 20 0
BBX 19 27 1 0
BITMAP
0FFE00
0FFC00
000000
00E000
01F000
01F000
00E000
000000
03F800
0FFE00
1E1F00
3C0F80
7807C0
7803C0
F003C0
F003E0
F003E0
F003E0
F003E0
F803E0
F803C0
7803C0
7803C0
3C0780
3E0F00
0FFE00
07F800
ENDCHAR
STARTCHAR 0231
ENCODING 561
SWIDTH 540 0
DWIDTH 15 0
BBX 14 21 1 0
BITMAP
3FF0
3FF0
0000
0700
0780
0F80
0780
0000
0FC0
3FF0
78F8
7078
F07C
F03C
F03C
F03C
F03C
F878
7878
3FF0
1FC0
ENDCHAR
STARTCHAR 0232
ENCODING 562
SWIDTH 612 0
DWIDTH 17 0
BBX 17 23 0 0
BITMAP
07FE00
07FE00
000000
000000
FF0F80
7F0F80
3E0700
1E0600
1F0600
0F0C00
0F8C00
079800
07D800
03F000
03F000
01E000
01E000
01E000
01E000
01E000
03E000
0FF800
0FFC00
ENDCHAR
STARTCHAR 0233
ENCODING 563
SWIDTH 540 0
DWIDTH 15 0
BBX 15 25 0 -7
BITMAP
0FFC
0FFC
0000
0000
0000
FF3E
FF3E
3E1C
3E18
1E18
1F10
0F30
0FB0
07E0
07E0
03C0
03C0
0380
0180
0180
0300
6F00
7E00
7C00
3800
ENDCHAR
STARTCHAR 0237
ENCODING 567
SWIDTH 288 0
DWIDTH 8 0
BBX 7 20 0 -7
BITMAP
06
7E
7E
1E
1E
1E
1E
1E
1E
1E
1E
1E
1E
1E
1C
3C
38
70
E0
40
ENDCHAR
STARTCHAR 0258
ENCODING 600
SWIDTH 504 0
DWIDTH 14 0
BBX 12 13 1 0
BITMAP
1F80
3FC0
71E0
F0F0
F0F0
F0F0
FFF0
00F0
00F0
E0F0
E1E0
FFC0
7F80
ENDCHAR
STARTCHAR 0259
ENCODING 601
SWIDTH 504 0
DWIDTH 14 0
BBX 12 13 1 0
BITMAP
1F00
7FC0
C3E0
01F0
00F0
00F0
FFF0
FFF0
F0F0
F0F0
70E0
7FC0
1F80
ENDCHAR
STARTCHAR 0272
ENCODING 626
SWIDTH 648 0
DWIDTH 18 0
BBX 17 20 0 -7
BITMAP
067800
7EFE00
7FFE00
1F1F00
1E0F00
1E0F00
1E0F00
1E0F00
1E0F00
1E0F00
1E1F00
1E3F80
1E3F80
1E0000
1C0000
3C0000
380000
700000
E00000
400000
ENDCHAR
STARTCHAR 0292
ENCODING 658
SWIDTH 504 0
DWIDTH 14 0
BBX 12 20 1 -7
BITMAP
7FF0
7FF0
71E0
63E0
63C0
07C0
0780
0F00
1F00
1FC0
17E0
00F0
00F0
00F0
00F0
E0F0
E0F0
F1E0
FFC0
3F00
ENDCHAR
STARTCHAR 02B9
ENCODING 697
SWIDTH 288 0
DWIDTH 8 0
BBX 4 8 2 12
BITMAP
10
70
70
60
60
C0
C0
80
ENDCHAR
STARTCHAR 02BA
ENCODING 698
SWIDTH 468 0
DWIDTH 13 0
BBX 10 8 2 12
BITMAP
10C0
7380
7380
6300
6300
C600
C600
8400
ENDCHAR
STARTCHAR 02BB
ENCODING 699
SWIDTH 252 0
DWIDTH 7 0
BBX 4 8 2 12
BITMAP
30
60
E0
E0
F0
F0
F0
C0
ENDCHAR
STARTCHAR 02BC
ENCODING 700
SWIDTH 288 0
DWIDTH 8 0
BBX 4 9 2 11
BITMAP
30
F0
F0
70
30
70
60
C0
40
ENDCHAR
STARTCHAR 02BE
ENCODING 702
SWIDTH 252 0
DWIDTH 7 0
BBX 5 8 1 12
BITMAP
E0
F0
38
38
38
78
F0
C0
ENDCHAR
STARTCHAR 02BF
ENCODING 703
SWIDTH 252 0
DWIDTH 7 0
BBX 5 8 1 12
BITMAP
38
78
E0
E0
E0
F0
78
18
ENDCHAR
STARTCHAR 02C6
ENCODING 710
SWIDTH 288 0
DWIDTH 8 0
BBX 10 5 -1 14
BITMAP
0C00
1E00
3F00
7380
E1C0
ENDCHAR
STARTCHAR 02C7
ENCODING 711
SWIDTH 288 0
DWIDTH 8 0
BBX 10 6 -1 14
BITMAP
4000
E1C0
7F80
3F00
1E00
0800
ENDCHAR
STARTCHAR 02C8
ENCODING 712
SWIDTH 216 0
DWIDTH 6 0
BBX 2 7 2 12
BITMAP
C0
C0
C0
C0
C0
C0
C0
ENDCHAR
STARTCHAR 02C9
ENCODING 713
SWIDTH 468 0
DWIDTH 13 0
BBX 10 2 2 16
BITMAP
FFC0
FFC0
ENDCHAR
STARTCHAR 02CA
ENCODING 714
SWIDTH 288 0
DWIDTH 8 0
BBX 5 5 4 15
BITMAP
38
38
70
60
E0
ENDCHAR
STARTCHAR 02CB
ENCODING 715
SWIDTH 288 0
DWIDTH 8 0
BBX 5 5 5 15
BITMAP
E0
E0
70
30
38
ENDCHAR
STARTCHAR 02CC
ENCODING 716
SWIDTH 216 0
DWIDTH 6 0
BBX 2 8 2 -5
BITMAP
C0
C0
C0
C0
C0
C0
C0
C0
ENDCHAR
STARTCHAR 02D8
ENCODING 728
SWIDTH 288 0
DWIDTH 8 0
BBX 10 6 -1 14
BITMAP
4040
C0C0
F1C0
7FC0
3F80
0C00
ENDCHAR
STARTCHAR 02D9
ENCODING 729
SWIDTH 288 0
DWIDTH 8 0
BBX 5 4 2 14
BITMAP
20
F0
F8
F0
ENDCHAR
STARTCHAR 02DA
ENCODING 730
SWIDTH 288 0
DWIDTH 8 0
BBX 6 6 1 14
BITMAP
78
EC
CC
CC
FC
20
ENDCHAR
STARTCHAR 02DB
ENCODING 731
SWIDTH 288 0
DWIDTH 8 0
BBX 6 8 1 -7
BITMAP
1C
70
E0
E0
E0
FC
FC
70
ENDCHAR
STARTCHAR 02DC
ENCODING 732
SWIDTH 288 0
DWIDTH 8 0
BBX 10 4 -1 15
BITMAP
3800
7FC0
FF80
8700
ENDCHAR
STARTCHAR 02DD
ENCODING 733
SWIDTH 288 0
DWIDTH 8 0
BBX 10 5 -1 15
BITMAP
39C0
7380
7380
6300
C600
ENDCHAR
STARTCHAR 0300
ENCODING 768
SWIDTH 0 0
DWIDTH 0 0
BBX 5 5 2 15
BITMAP
E0
E0
70
30
38
ENDCHAR
STARTCHAR 0301
ENCODING 769
SWIDTH 0 0
DWIDTH 0 0
BBX 5 5 2 15
BITMAP
78
70
E0
C0
C0
ENDCHAR
STARTCHAR 0302
ENCODING 770
SWIDTH 0 0
DWIDTH 0 0
BBX 11 6 1 14
BITMAP
0600
0F00
1F80
7BC0
E0E0
4000
ENDCHAR
STARTCHAR 0303
ENCODING 771
SWIDTH 0 0
DWIDTH 0 0
BBX 11 4 1 15
BITMAP
1800
7FE0
FFC0
0380
ENDCHAR
STARTCHAR 0304
ENCODING 772
SWIDTH 0 0
DWIDTH 0 0
BBX 11 2 1 16
BITMAP
7FE0
FFE0
ENDCHAR
STARTCHAR 0306
ENCODING 774
SWIDTH 0 0
DWIDTH 0 0
BBX 11 6 1 14
BITMAP
4060
E060
70E0
7FC0
3F80
0400
ENDCHAR
STARTCHAR 0307
ENCODING 775
SWIDTH 0 0
DWIDTH 0 0
BBX 5 4 1 15
BITMAP
78
F8
78
20
ENDCHAR
STARTCHAR 0308
ENCODING 776
SWIDTH 0 0
DWIDTH 0 0
BBX 11 4 1 14
BITMAP
71E0
F9E0
71E0
2080
ENDCHAR
STARTCHAR 0309
ENCODING 777
SWIDTH 0 0
DWIDTH 0 0
BBX 6 6 2 14
BITMAP
30
FC
CC
38
30
30
ENDCHAR
STARTCHAR 030A
ENCODING 778
SWIDTH 0 0
DWIDTH 0 0
BBX 7 6 1 14
BITMAP
3C
6E
E6
E6
7C
10
ENDCHAR
STARTCHAR 030B
ENCODING 779
SWIDTH 0 0
DWIDTH 0 0
BBX 10 5 2 15
BITMAP
7BC0
7380
E700
C600
C600
ENDCHAR
STARTCHAR 030C
ENCODING 780
SWIDTH 0 0
DWIDTH 0 0
BBX 10 6 1 14
BITMAP
4040
F1C0
3B80
1F00
1E00
0C00
ENDCHAR
STARTCHAR 030F
ENCODING 783
SWIDTH 0 0
DWIDTH 0 0
BBX 10 5 2 15
BITMAP
E700
E700
7380
3180
18C0
ENDCHAR
STARTCHAR 0311
ENCODING 785
SWIDTH 0 0
DWIDTH 0 0
BBX 11 6 1 14
BITMAP
0E00
3F80
7FC0
60E0
C0E0
4040
ENDCHAR
STARTCHAR 0312
ENCODING 786
SWIDTH 0 0
DWIDTH 0 0
BBX 5 6 1 14
BITMAP
38
70
60
F8
F8
60
ENDCHAR
STARTCHAR 0313
ENCODING 787
SWIDTH 0 0
DWIDTH 0 0
BBX 5 6 1 14
BITMAP
38
78
F8
38
30
60
ENDCHAR
STARTCHAR 031B
ENCODING 795
SWIDTH 0 0
DWIDTH 0 0
BBX 5 5 -2 11
BITMAP
18
18
18
78
F0
ENDCHAR
STARTCHAR 0323
ENCODING 803
SWIDTH 0 0
DWIDTH 0 0
BBX 5 4 1 -6
BITMAP
70
78
F8
78
ENDCHAR
STARTCHAR 0324
ENCODING 804
SWIDTH 0 0
DWIDTH 0 0
BBX 11 4 1 -6
BITMAP
70C0
79E0
F9E0
71C0
ENDCHAR
STARTCHAR 0325
ENCODING 805
SWIDTH 0 0
DWIDTH 0 0
BBX 7 6 1 -7
BITMAP
18
7E
E6
E6
7E
38
ENDCHAR
STARTCHAR 0326
ENCODING 806
SWIDTH 0 0
DWIDTH 0 0
BBX 4 7 2 -8
BITMAP
20
F0
F0
70
60
60
C0
ENDCHAR
STARTCHAR 0327
ENCODING 807
SWIDTH 0 0
DWIDTH 0 0
BBX 4 7 2 -7
BITMAP
C0
C0
F0
70
30
E0
C0
ENDCHAR
STARTCHAR 0328
ENCODING 808
SWIDTH 0 0
DWIDTH 0 0
BBX 7 8 1 -7
BITMAP
1C
38
70
70
F0
FE
7E
38
ENDCHAR
STARTCHAR 032E
ENCODING 814
SWIDTH 0 0
DWIDTH 0 0
BBX 10 5 1 -6
BITMAP
2080
E1C0
7F80
7F00
0C00
ENDCHAR
STARTCHAR 0331
ENCODING 817
SWIDTH 0 0
DWIDTH 0 0
BBX 11 1 1 -4
BITMAP
FFE0
ENDCHAR
STARTCHAR 0335
ENCODING 821
SWIDTH 0 0
DWIDTH 0 0
BBX 9 1 1 9
BITMAP
FF80
ENDCHAR
STARTCHAR 0336
ENCODING 822
SWIDTH 0 0
DWIDTH 0 0
BBX 18 2 1 6
BITMAP
7FFFC0
FFFFC0
ENDCHAR
STARTCHAR 0337
ENCODING 823
SWIDTH 0 0
DWIDTH 0 0
BBX 12 8 2 5
BITMAP
0020
00F0
03E0
0F80
3E00
F800
E000
8000
ENDCHAR
STARTCHAR 0338
ENCODING 824
SWIDTH 0 0
DWIDTH 0 0
BBX 12 8 2 5
BITMAP
0020
00F0
03E0
0F80
3E00
F800
E000
8000
ENDCHAR
STARTCHAR 0374
ENCODING 884
SWIDTH 288 0
DWIDTH 8 0
BBX 4 8 2 12
BITMAP
10
70
70
60
60
C0
C0
80
ENDCHAR
STARTCHAR 0375
ENCODING 885
SWIDTH 288 0
DWIDTH 8 0
BBX 4 8 2 -6
BITMAP
10
30
30
70
60
E0
E0
C0
ENDCHAR
STARTCHAR 037E
ENCODING 894
SWIDTH 288 0
DWIDTH 8 0
BBX 4 18 2 -5
BITMAP
70
F0
F0
F0
00
00
00
00
00
00
F0
F0
F0
70
30
60
60
C0
ENDCHAR
STARTCHAR 0384
ENCODING 900
SWIDTH 288 0
DWIDTH 8 0
BBX 4 5 2 15
BITMAP
F0
E0
E0
E0
C0
ENDCHAR
STARTCHAR 0385
ENCODING 901
SWIDTH 288 0
DWIDTH 8 0
BBX 11 5 -1 15
BITMAP
0600
0E00
EFC0
EDE0
EDE0
ENDCHAR
STARTCHAR 0386
ENCODING 902
SWIDTH 684 0
DWIDTH 19 0
BBX 19 19 0 0
BITMAP
386000
38E000
30F000
31F000
31F000
71F800
037800
037C00
063C00
063E00
041E00
0C1F00
0FFF00
1FFF00
180F80
300780
3007C0
7C0FE0
FC1FE0
ENDCHAR
STARTCHAR 0387
ENCODING 903
SWIDTH 252 0
DWIDTH 7 0
BBX 4 4 2 8
BITMAP
60
F0
F0
F0
ENDCHAR
STARTCHAR 0388
ENCODING 904
SWIDTH 612 0
DWIDTH 17 0
BBX 21 19 -4 0
BITMAP
77FFE0
77FFE0
E1E0E0
E1E060
E1E070
C1E000
01E080
01E180
01E380
01FF80
01E780
01E180
01E180
01E000
01E038
01E030
01F070
07FFF0
07FFF0
ENDCHAR
STARTCHAR 0389
ENCODING 905
SWIDTH 756 0
DWIDTH 21 0
BBX 24 19 -4 0
BITMAP
F7F8FF
E7F8FF
E1F03E
E1E03C
E1E03C
C1E03C
01E03C
01E03C
01FFFC
01FFFC
01E03C
01E03C
01E03C
01E03C
01E03C
01E03C
01F03E
07F8FF
07F8FF
ENDCHAR
STARTCHAR 038A
ENCODING 906
SWIDTH 360 0
DWIDTH 10 0
BBX 13 19 -4 0
BITMAP
F7F8
E7F8
E1F0
E1E0
E1E0
C1E0
01E0
01E0
01E0
01E0
01E0
01E0
01E0
01E0
01E0
01E0
01F0
07F8
07F8
ENDCHAR
STARTCHAR 038C
ENCODING 908
SWIDTH 720 0
DWIDTH 20 0
BBX 22 19 -2 0
BITMAP
E07F00
E1FFC0
C3C3E0
C781F0
CF00F8
CF0078
1E0078
1E007C
1E007C
1E007C
1E007C
1F007C
1F0078
0F0078
0F0078
0780F0
07C1E0
01FFC0
00FF00
ENDCHAR
STARTCHAR 038E
ENCODING 910
SWIDTH 612 0
DWIDTH 17 0
BBX 21 19 -4 0
BITMAP
EFF0F8
E7F0F8
E3E070
C1E060
C1F060
C0F0C0
00F8C0
007980
007D80
003F00
003F00
001E00
001E00
001E00
001E00
001E00
003E00
00FF80
00FFC0
ENDCHAR
STARTCHAR 038F
ENCODING 911
SWIDTH 828 0
DWIDTH 23 0
BBX 23 19 -1 0
BITMAP
F07F00
E1FFC0
E3C1F0
E780F8
CF8078
CF007C
1F003C
1F003C
1F003C
1F003C
0F003C
0F0078
070078
078070
3180E6
3FC1FE
3FE1FE
1FE3FE
1FE3FE
ENDCHAR
STARTCHAR 0390
ENCODING 912
SWIDTH 324 0
DWIDTH 9 0
BBX 11 20 0 0
BITMAP
0600
0E00
EEE0
EDE0
EDE0
0000
0000
0600
7E00
7E00
1E00
1E00
1E00
1E00
1E00
1E00
1E00
1E00
1F80
0F80
ENDCHAR
STARTCHAR 0391
ENCODING 913
SWIDTH 684 0
DWIDTH 19 0
BBX 19 19 0 0
BITMAP
006000
00E000
00F000
01F000
01F000
01F800
037800
037C00
063C00
063E00
041E00
0C1F00
0FFF00
1FFF00
180F80
300780
3007C0
7C0FE0
FC1FE0
ENDCHAR
STARTCHAR 0392
ENCODING 914
SWIDTH 648 0
DWIDTH 18 0
BBX 16 19 1 0
BITMAP
FFF0
FFFC
3C3E
3C1E
3C1E
3C1E
3C1E
3C3C
3FF0
3FFC
3C3E
3C1F
3C0F
3C0F
3C0F
3C0F
3E1F
FFFE
FFF8
ENDCHAR
STARTCHAR 0393
ENCODING 915
SWIDTH 576 0
DWIDTH 16 0
BBX 14 19 1 0
BITMAP
FFFC
FFFC
3C1C
3C0C
3C0C
3C00
3C00
3C00
3C00
3C00
3C00
3C00
3C00
3C00
3C00
3C00
3E00
FF80
FF80
ENDCHAR
STARTCHAR 0394
ENCODING 916
SWIDTH 648 0
DWIDTH 18 0
BBX 18 19 0 0
BITMAP
00C000
00E000
01E000
01F000
03F000
03F800
06F800
067800
047C00
0C3C00
083E00
181E00
181F00
300F00
300F80
600780
6007C0
FFFFC0
7FFFC0
ENDCHAR
STARTCHAR 0395
ENCODING 917
SWIDTH 612 0
DWIDTH 17 0
BBX 16 19 1 0
BITMAP
FFFC
FFFC
3C1C
3C0C
3C0E
3C00
3C10
3C30
3C70
3FF0
3CF0
3C30
3C30
3C00
3C07
3C06
3E0E
FFFE
FFFE
ENDCHAR
STARTCHAR 0396
ENCODING 918
SWIDTH 576 0
DWIDTH 16 0
BBX 15 19 1 0
BITMAP
7FFC
7FFC
707C
70F8
60F8
21F0
01F0
03E0
03C0
07C0
0F80
0F80
1F00
1F00
3E0E
7C0C
7C1C
FFFC
FFFC
ENDCHAR
STARTCHAR 0397
ENCODING 919
SWIDTH 756 0
DWIDTH 21 0
BBX 19 19 1 0
BITMAP
FF1FE0
FF1FE0
3E07C0
3C0780
3C0780
3C0780
3C0780
3C0780
3FFF80
3FFF80
3C0780
3C0780
3C0780
3C0780
3C0780
3C0780
3E07C0
FF1FE0
FF1FE0
ENDCHAR
STARTCHAR 0398
ENCODING 920
SWIDTH 720 0
DWIDTH 20 0
BBX 19 19 1 0
BITMAP
03F800
0FFE00
1E1F00
3C0F80
7807C0
7803C0
F003C0
F003E0
F3FBE0
F7FBE0
F003E0
F803E0
F803C0
7803C0
7803C0
3C0780
3E0F00
0FFE00
07F800
ENDCHAR
STARTCHAR 0399
ENCODING 921
SWIDTH 360 0
DWIDTH 10 0
BBX 8 19 1 0
BITMAP
FF
FF
3E
3C
3C
3C
3C
3C
3C
3C
3C
3C
3C
3C
3C
3C
3E
FF
FF
ENDCHAR
STARTCHAR 039A
ENCODING 922
SWIDTH 720 0
DWIDTH 20 0
BBX 19 19 1 0
BITMAP
FF1FC0
FF1F80
3E0E00
3C0C00
3C1800
3C3000
3C6000
3CC000
3DC000
3FE000
3DF000
3DF800
3CF800
3C7C00
3C3E00
3C3E00
3E1F00
FF0FE0
FF0FE0
ENDCHAR
STARTCHAR 039B
ENCODING 923
SWIDTH 648 0
DWIDTH 18 0
BBX 18 19 0 0
BITMAP
00C000
00E000
01E000
01E000
01F000
03F000
02F800
067800
067800
047C00
0C3C00
0C3E00
083E00
181F00
181F00
300F00
300F80
7C1FC0
FC3FC0
ENDCHAR
STARTCHAR 039C
ENCODING 924
SWIDTH 936 0
DWIDTH 26 0
BBX 25 19 1 0
BITMAP
7E003F00
7F007F00
1F007C00
1F007C00
1F80FC00
1F80FC00
1FC0BC00
13C1BC00
13E1BC00
33E33E00
31E33E00
31F21E00
30F61E00
30FE1E00
307C1E00
307C1E00
70381F00
FC387F80
FC387F80
ENDCHAR
STARTCHAR 039D
ENCODING 925
SWIDTH 720 0
DWIDTH 20 0
BBX 18 19 1 0
BITMAP
FC0FC0
FC0FC0
3E0380
3F0300
3F8100
3F8100
37C100
33E100
33F100
31F100
30F900
307D00
307F00
303F00
301F00
300F00
300F00
FC0700
FC0300
ENDCHAR
STARTCHAR 039E
ENCODING 926
SWIDTH 612 0
DWIDTH 17 0
BBX 15 19 1 0
BITMAP
7FFC
7FFE
FFFE
E00E
C006
0000
1010
1830
1FF0
1FF0
1FF0
1830
1810
0000
C006
E00E
FFFE
FFFE
FFFE
ENDCHAR
STARTCHAR 039F
ENCODING 927
SWIDTH 720 0
DWIDTH 20 0
BBX 19 19 1 0
BITMAP
03F800
0FFE00
1E1F00
3C0F80
7807C0
7803C0
F003C0
F003E0
F003E0
F003E0
F003E0
F803E0
F803C0
7803C0
7803C0
3C0780
3E0F00
0FFE00
07F800
ENDCHAR
STARTCHAR 03A0
ENCODING 928
SWIDTH 756 0
DWIDTH 21 0
BBX 19 19 1 0
BITMAP
FFFFE0
FFFFE0
3C0780
3C0780
3C0780
3C0780
3C0780
3C0780
3C0780
3C0780
3C0780
3C0780
3C0780
3C0780
3C0780
3C0780
3E0780
FF1FE0
FF1FE0
ENDCHAR
STARTCHAR 03A1
ENCODING 929
SWIDTH 612 0
DWIDTH 17 0
BBX 16 19 1 0
BITMAP
FFE0
FFFC
3C3E
3C1E
3C1F
3C1F
3C1F
3C1F
3C1E
3C1E
3C3C
3DF8
3C80
3C00
3C00
3C00
3E00
FF80
FF80
ENDCHAR
STARTCHAR 03A3
ENCODING 931
SWIDTH 612 0
DWIDTH 17 0
BBX 15 19 1 0
BITMAP
7FFC
7FFC
7C1C
3E1C
1E0C
1F08
0F80
07C0
07E0
03E0
03E0
07C0
0F80
1F00
3E06
3E0E
7C0E
FFFE
FFFE
ENDCHAR
STARTCHAR 03A4
ENCODING 932
SWIDTH 648 0
DWIDTH 18 0
BBX 16 19 1 0
BITMAP
FFFF
FFFF
E3C7
C3C3
C3C3
03C0
03C0
03C0
03C0
03C0
03C0
03C0
03C0
03C0
03C0
03C0
03C0
1FF8
1FF8
ENDCHAR
STARTCHAR 03A5
ENCODING 933
SWIDTH 612 0
DWIDTH 17 0
BBX 17 19 0 0
BITMAP
FF0F80
7F0F80
3E0700
1E0600
1F0600
0F0C00
0F8C00
079800
07D800
03F000
03F000
01E000
01E000
01E000
01E000
01E000
03E000
0FF800
0FFC00
ENDCHAR
STARTCHAR 03A6
ENCODING 934
SWIDTH 756 0
DWIDTH 21 0
BBX 19 19 1 0
BITMAP
03FC00
03FC00
01F000
03FC00
1FFF00
3CF7C0
78F3E0
F0F1E0
F0F1E0
F0F1E0
F0F1E0
F8F1E0
78F3E0
7CF7C0
3FFF80
0FFE00
00F000
03FC00
03FC00
ENDCHAR
STARTCHAR 03A7
ENCODING 935
SWIDTH 684 0
DWIDTH 19 0
BBX 18 19 1 0
BITMAP
FF9F80
FF1F80
3E0F00
3F0E00
1F0C00
0F9800
0F9800
07F000
03E000
03E000
03F000
03F800
06F800
0C7C00
0C7C00
183E00
383F00
FC7F80
FC7FC0
ENDCHAR
STARTCHAR 03A8
ENCODING 936
SWIDTH 792 0
DWIDTH 22 0
BBX 21 19 1 0
BITMAP
39FC78
F9FCF8
F8F8F0
78F8F0
78F8F0
78F8F0
78F8E0
78F8E0
78F9E0
3CF9E0
3EFBC0
1FFF80
01FC00
00F800
00F800
00F800
00F800
03FE00
03FE00
ENDCHAR
STARTCHAR 03A9
ENCODING 937
SWIDTH 828 0
DWIDTH 23 0
BBX 21 19 1 0
BITMAP
01FC00
07FF00
0F07C0
1E03E0
3E01E0
3C01F0
7C00F0
7C00F0
7C00F0
7C00F0
3C00F0
3C01E0
1C01E0
1E01C0
C60398
FF07F8
FF87F8
7F8FF8
7F8FF8
ENDCHAR
STARTCHAR 03AA
ENCODING 938
SWIDTH 360 0
DWIDTH 10 0
BBX 11 24 0 0
BITMAP
71C0
F3E0
F3C0
61C0
0000
7F80
7F80
1F00
1E00
1E00
1E00
1E00
1E00
1E00
1E00
1E00
1E00
1E00
1E00
1E00
1E00
1F00
7F80
7F80
ENDCHAR
STARTCHAR 03AB
ENCODING 939
SWIDTH 612 0
DWIDTH 17 0
BBX 17 24 0 0
BITMAP
070E00
079E00
079E00
030C00
000000
FF0F80
7F0F80
3E0700
1E0600
1F0600
0F0C00
0F8C00
079800
07D800
03F000
03F000
01E000
01E000
01E000
01E000
01E000
03E000
0FF800
0FFC00
ENDCHAR
STARTCHAR 03AC
ENCODING 940
SWIDTH 648 0
DWIDTH 18 0
BBX 16 20 1 0
BITMAP
0380
0380
0380
0300
0300
0000
0000
0F1F
3F9F
78DE
707C
F07C
F038
F078
F078
F078
F8F8
78F8
7FCF
1F8F
ENDCHAR
STARTCHAR 03AD
ENCODING 941
SWIDTH 432 0
DWIDTH 12 0
BBX 10 20 1 0
BITMAP
0700
0700
0600
0600
0600
0000
0000
1F80
7FC0
79C0
70C0
7800
3C00
3F00
7C00
F000
F0C0
F0C0
79C0
3FC0
ENDCHAR
STARTCHAR 03AE
ENCODING 942
SWIDTH 612 0
DWIDTH 17 0
BBX 15 27 1 -7
BITMAP
01C0
01C0
0180
0180
0180
0000
0000
0CF0
FDF8
FFFC
3E3C
3C3C
3C3C
3C3C
3C3C
3C3C
3C3C
3C3C
3C3C
3C3C
003C
003C
003C
003E
003E
0038
0020
ENDCHAR
STARTCHAR 03AF
ENCODING 943
SWIDTH 324 0
DWIDTH 9 0
BBX 8 20 1 0
BITMAP
1E
1C
1C
18
18
00
00
0C
FC
FC
3C
3C
3C
3C
3C
3C
3C
3C
3F
1F
ENDCHAR
STARTCHAR 03B0
ENCODING 944
SWIDTH 504 0
DWIDTH 14 0
BBX 14 20 0 0
BITMAP
0080
0380
3BB8
3B78
3B38
0000
0000
0C18
FC78
FC7C
3C1C
3C1C
3C0C
3C0C
3C18
3C18
3C18
3E30
1FF0
0FC0
ENDCHAR
STARTCHAR 03B1
ENCODING 945
SWIDTH 648 0
DWIDTH 18 0
BBX 16 13 1 0
BITMAP
0F1F
3F9F
78DE
707C
F07C
F038
F078
F078
F078
F8F8
78F8
7FCF
1F8F
ENDCHAR
STARTCHAR 03B2
ENCODING 946
SWIDTH 576 0
DWIDTH 16 0
BBX 14 27 1 -7
BITMAP
07C0
1FF0
38F8
7878
7878
7878
7878
7878
79F0
7BC0
7BF0
7878
787C
783C
783C
783C
783C
7878
7DF8
7FE0
7800
7800
7800
7800
7800
F000
4000
ENDCHAR
STARTCHAR 03B3
ENCODING 947
SWIDTH 540 0
DWIDTH 15 0
BBX 15 20 0 -7
BITMAP
F87E
FE3E
3E1C
1F18
0F10
0F30
0FB0
07E0
07E0
03C0
03C0
01C0
03C0
02E0
06E0
06E0
04E0
04E0
07E0
03C0
ENDCHAR
STARTCHAR 03B4
ENCODING 948
SWIDTH 540 0
DWIDTH 15 0
BBX 13 20 1 0
BITMAP
07C0
1FE0
1FE0
3C60
3800
3C00
3E00
1F80
0FC0
1FE0
3BF0
79F8
F0F8
F078
F078
F078
F078
7878
7FF0
1FC0
ENDCHAR
STARTCHAR 03B5
ENCODING 949
SWIDTH 432 0
DWIDTH 12 0
BBX 10 13 1 0
BITMAP
1F80
7FC0
79C0
70C0
7800
3C00
3F00
7C00
F000
F0C0
F0C0
79C0
3FC0
ENDCHAR
STARTCHAR 03B6
ENCODING 950
SWIDTH 432 0
DWIDTH 12 0
BBX 11 27 1 -7
BITMAP
FFE0
FFE0
FFE0
FFE0
E1C0
C380
0700
0E00
1C00
3C00
7800
7800
F000
F000
F800
F800
FE00
7FC0
3FE0
0FE0
01E0
01E0
01E0
01C0
03C0
0780
0600
ENDCHAR
STARTCHAR 03B7
ENCODING 951
SWIDTH 612 0
DWIDTH 17 0
BBX 15 20 1 -7
BITMAP
0CF0
FDF8
FFFC
3E3C
3C3C
3C3C
3C3C
3C3C
3C3C
3C3C
3C3C
3C3C
3C3C
003C
003C
003C
003E
003E
0038
0020
ENDCHAR
STARTCHAR 03B8
ENCODING 952
SWIDTH 540 0
DWIDTH 15 0
BBX 14 20 1 0
BITMAP
07C0
1FE0
38F0
7878
7878
F078
F07C
F03C
F03C
FFFC
FFFC
F03C
F03C
F03C
F838
7878
7878
3C70
3FE0
0FC0
ENDCHAR
STARTCHAR 03B9
ENCODING 953
SWIDTH 324 0
DWIDTH 9 0
BBX 8 13 1 0
BITMAP
0C
FC
FC
3C
3C
3C
3C
3C
3C
3C
3C
3F
1F
ENDCHAR
STARTCHAR 03BA
ENCODING 954
SWIDTH 612 0
DWIDTH 17 0
BBX 16 13 1 0
BITMAP
0CFE
FCFC
FC70
3CE0
3DC0
3F80
3FC0
3FE0
3DF0
3CF8
3C7C
3C3F
3C3E
ENDCHAR
STARTCHAR 03BB
ENCODING 955
SWIDTH 540 0
DWIDTH 15 0
BBX 16 20 0 0
BITMAP
1E00
7F00
0F00
0780
0780
0780
03C0
07C0
07C0
07E0
0FE0
0DE0
0DE0
1CF0
1CF0
38F0
3878
3878
F87F
F83E
ENDCHAR
STARTCHAR 03BC
ENCODING 956
SWIDTH 612 0
DWIDTH 17 0
BBX 16 20 1 -7
BITMAP
180C
FCFC
FC7C
3C3C
3C3C
3C3C
3C3C
3C3C
3C3C
3C3C
3C7E
3FDF
3F9C
3800
3800
3800
3800
3800
7000
2000
ENDCHAR
STARTCHAR 03BD
ENCODING 957
SWIDTH 504 0
DWIDTH 14 0
BBX 14 13 0 0
BITMAP
180C
FC7C
FC7C
3E1C
1E18
1E18
0F30
0F30
0F60
07C0
07C0
0780
0300
ENDCHAR
STARTCHAR 03BE
ENCODING 958
SWIDTH 432 0
DWIDTH 12 0
BBX 11 27 1 -7
BITMAP
FFE0
FFE0
FFE0
F9E0
C780
1E00
3C00
7800
7800
7C00
3E00
1F80
1F80
7800
F000
F000
F800
FF00
7FC0
3FE0
03E0
01E0
01E0
01E0
03C0
0780
0600
ENDCHAR
STARTCHAR 03BF
ENCODING 959
SWIDTH 540 0
DWIDTH 15 0
BBX 14 13 1 0
BITMAP
0FC0
3FF0
78F8
7078
F07C
F03C
F03C
F03C
F03C
F878
7878
3FF0
1FC0
ENDCHAR
STARTCHAR 03C0
ENCODING 960
SWIDTH 576 0
DWIDTH 16 0
BBX 14 14 1 0
BITMAP
000C
1FFC
7FFC
FFFC
FFFC
0CF0
0CF0
18F0
18F0
18F0
38F0
38F0
78FC
787C
ENDCHAR
STARTCHAR 03C1
ENCODING 961
SWIDTH 540 0
DWIDTH 15 0
BBX 14 20 1 -7
BITMAP
0FC0
1FF0
7878
7878
F07C
F03C
F03C
F03C
F078
F078
F0F0
FDE0
FFC0
F000
F000
F000
F000
F000
E000
8000
ENDCHAR
STARTCHAR 03C2
ENCODING 962
SWIDTH 432 0
DWIDTH 12 0
BBX 11 20 1 -7
BITMAP
0F80
3FE0
78E0
F0E0
F0E0
F000
F000
F800
FC00
7E00
3F80
1FC0
07E0
01E0
01E0
01E0
01C0
03C0
0700
0600
ENDCHAR
STARTCHAR 03C3
ENCODING 963
SWIDTH 612 0
DWIDTH 17 0
BBX 16 14 1 0
BITMAP
0003
0FFF
3FFF
7FFF
787F
F078
F03C
F03C
F03C
F03C
F878
7878
3FF0
1FC0
ENDCHAR
STARTCHAR 03C4
ENCODING 964
SWIDTH 360 0
DWIDTH 10 0
BBX 10 14 0 0
BITMAP
00C0
3FC0
7FC0
7FC0
FF80
0E00
0E00
0E00
0E00
0E00
0E00
0E00
0FC0
0F80
ENDCHAR
STARTCHAR 03C5
ENCODING 965
SWIDTH 504 0
DWIDTH 14 0
BBX 14 13 0 0
BITMAP
0C18
FC78
FC7C
3C1C
3C1C
3C0C
3C0C
3C18
3C18
3C18
3E30
1FF0
0FC0
ENDCHAR
STARTCHAR 03C6
ENCODING 966
SWIDTH 756 0
DWIDTH 21 0
BBX 20 20 1 -7
BITMAP
0C1F80
1C3FC0
3C79E0
78F0F0
F0F0F0
F0F0F0
F0F0F0
F0F0F0
F0F0F0
F8F1E0
78F1E0
3FFFC0
0FFF00
00F000
00F000
00F000
00F000
00F000
00E000
008000
ENDCHAR
STARTCHAR 03C7
ENCODING 967
SWIDTH 540 0
DWIDTH 15 0
BBX 15 20 0 -7
BITMAP
0C7E
7E7E
7E18
1E18
0F30
0F30
0FE0
07E0
07C0
03C0
07C0
07C0
0DE0
0DE0
19E0
18F0
18F0
38FE
FC7E
FC20
ENDCHAR
STARTCHAR 03C8
ENCODING 968
SWIDTH 756 0
DWIDTH 21 0
BBX 20 27 0 -7
BITMAP
001800
01F800
01F800
007800
007800
007800
007800
0C7820
FC79F0
FC79F0
3C7870
3C7870
3C7870
3C7870
3C7870
3C7870
1E78E0
1F79C0
0FFF80
03FE00
007800
007800
007800
007800
007800
007000
004000
ENDCHAR
STARTCHAR 03C9
ENCODING 969
SWIDTH 756 0
DWIDTH 21 0
BBX 19 13 1 0
BITMAP
0C0600
3C0780
7803C0
7861E0
F8E1E0
F0E1E0
F0E1E0
F0E1E0
F8E1E0
F8E3E0
78E3C0
3FBFC0
1F1F80
ENDCHAR
STARTCHAR 03CA
ENCODING 970
SWIDTH 324 0
DWIDTH 9 0
BBX 10 18 0 0
BITMAP
F3C0
F3C0
F3C0
6080
0000
0600
7E00
7E00
1E00
1E00
1E00
1E00
1E00
1E00
1E00
1E00
1F80
0F80
ENDCHAR
STARTCHAR 03CB
ENCODING 971
SWIDTH 504 0
DWIDTH 14 0
BBX 14 18 0 0
BITMAP
3C70
3CF8
3C70
1820
0000
0C18
FC78
FC7C
3C1C
3C1C
3C0C
3C0C
3C18
3C18
3C18
3E30
1FF0
0FC0
ENDCHAR
STARTCHAR 03CC
ENCODING 972
SWIDTH 540 0
DWIDTH 15 0
BBX 14 20 1 0
BITMAP
0380
0380
0380
0300
0300
0000
0000
0FC0
3FF0
78F8
7078
F07C
F03C
F03C
F03C
F03C
F878
7878
3FF0
1FC0
ENDCHAR
STARTCHAR 03CD
ENCODING 973
SWIDTH 504 0
DWIDTH 14 0
BBX 14 20 0 0
BITMAP
03C0
0380
0380
0380
0300
0000
0000
0C18
FC78
FC7C
3C1C
3C1C
3C0C
3C0C
3C18
3C18
3C18
3E30
1FF0
0FC0
ENDCHAR
STARTCHAR 03CE
ENCODING 974
SWIDTH 756 0
DWIDTH 21 0
BBX 19 20 1 0
BITMAP
007000
007000
006000
006000
00E000
000000
000000
0C0600
3C0780
7803C0
7861E0
F8E1E0
F0E1E0
F0E1E0
F0E1E0
F8E1E0
F8E3E0
78E3C0
3FBFC0
1F1F80
ENDCHAR
STARTCHAR 03CF
ENCODING 975
SWIDTH 720 0
DWIDTH 20 0
BBX 19 26 1 -7
BITMAP
FF1FC0
FF1F80
3E0E00
3C0C00
3C1800
3C3000
3C6000
3CC000
3DC000
3FE000
3DF000
3DF800
3CF800
3C7C00
3C3E00
3C3E00
3E1F00
FF0FE0
FF0FE0
000F00
001C00
003800
007800
007C00
007E00
007E00
ENDCHAR
STARTCHAR 03D1
ENCODING 977
SWIDTH 576 0
DWIDTH 16 0
BBX 17 20 0 0
BITMAP
03C000
0FF000
1E7800
3C3C00
3C3C00
3C3C00
3C1E00
1E1E00
1F1E00
07FF80
00FF80
041E00
7C1E00
FC1E00
3C1C00
3C3C00
3C3C00
1E3800
1FF000
0FE000
ENDCHAR
STARTCHAR 03D2
ENCODING 978
SWIDTH 648 0
DWIDTH 18 0
BBX 17 19 1 0
BITMAP
780780
FC0F80
FE1F80
1F1980
0F3180
07B000
07A000
03E000
03E000
03E000
03C000
03C000
03C000
03C000
03C000
03C000
03E000
0FF800
1FF800
ENDCHAR
STARTCHAR 03D5
ENCODING 981
SWIDTH 756 0
DWIDTH 21 0
BBX 20 27 1 -7
BITMAP
003000
03F000
03F000
00F000
00F000
00F000
00F000
07FE00
3FFF80
78F3C0
78F1E0
F0F1E0
F0F0F0
F0F0F0
F0F0F0
F0F1E0
F8F1E0
78F3E0
3FFFC0
0FFF00
00F000
00F000
00F000
00F000
00F000
00E000
008000
ENDCHAR
STARTCHAR 03D6
ENCODING 982
SWIDTH 828 0
DWIDTH 23 0
BBX 21 14 1 0
BITMAP
000018
0FFFF8
3FFFF8
7FFFF8
FB3FF8
4F01C0
1E30E0
1E38F0
1E38F0
1E38F0
1E38F0
1F39F0
0FEFE0
07C7C0
ENDCHAR
STARTCHAR 03D7
ENCODING 983
SWIDTH 612 0
DWIDTH 17 0
BBX 16 20 1 -7
BITMAP
0CFE
FCFC
FC70
3CE0
3DC0
3F80
3FC0
3FE0
3DF0
3CF8
3C7C
3C3E
3C3F
000F
000F
000E
001E
0C7C
0FF8
03E0
ENDCHAR
STARTCHAR 03F0
ENCODING 1008
SWIDTH 612 0
DWIDTH 17 0
BBX 15 13 1 0
BITMAP
783C
FC7E
FC7C
3CF8
1DF0
1BE0
1FE0
1FE0
3F60
3E70
7C7E
7C7E
783C
ENDCHAR
STARTCHAR 03F1
ENCODING 1009
SWIDTH 540 0
DWIDTH 15 0
BBX 14 20 1 -7
BITMAP
0FC0
3FF0
78F8
7078
F03C
F03C
F03C
F03C
F03C
F878
FCF0
FFE0
C300
E000
7000
7FE0
7FF0
3FF8
0FF8
0018
ENDCHAR
STARTCHAR 03F2
ENCODING 1010
SWIDTH 432 0
DWIDTH 12 0
BBX 11 13 1 0
BITMAP
0FC0
3FE0
78E0
70E0
F060
F000
F000
F000
F000
F800
7C20
3FE0
1FC0
ENDCHAR
STARTCHAR 03F4
ENCODING 1012
SWIDTH 720 0
DWIDTH 20 0
BBX 19 19 1 0
BITMAP
03F800
0FFE00
1E1F00
3C0F80
7807C0
7803C0
F003C0
F003E0
FFFFE0
FFFFE0
F003E0
F803E0
F803C0
7803C0
7803C0
3C0780
3E0F00
0FFE00
07F800
ENDCHAR
STARTCHAR 03F6
ENCODING 1014
SWIDTH 468 0
DWIDTH 13 0
BBX 11 13 1 0
BITMAP
7E00
FF80
E3C0
C3E0
01E0
01E0
3FE0
3DE0
01E0
C1E0
C3C0
FF80
7F00
ENDCHAR
STARTCHAR 03F7
ENCODING 1015
SWIDTH 612 0
DWIDTH 17 0
BBX 16 19 1 0
BITMAP
FF00
FF00
3E00
3C00
3FF8
3FFC
3C1E
3C1F
3C0F
3C0F
3C0F
3C1E
3C1E
3DFC
3DE0
3C00
3E00
FF80
FF80
ENDCHAR
STARTCHAR 03F8
ENCODING 1016
SWIDTH 612 0
DWIDTH 17 0
BBX 15 27 1 -7
BITMAP
0800
FC00
FC00
3C00
3C00
3C00
3C00
3CF0
3FFC
3F3E
3E1E
3C1E
3C1E
3C1E
3C1E
3C1E
3C1E
3C3C
3EF8
3FE0
3C00
3C00
3C00
3C00
3C00
3800
2000
ENDCHAR
STARTCHAR 03F9
ENCODING 1017
SWIDTH 612 0
DWIDTH 17 0
BBX 16 19 1 0
BITMAP
03F8
0FFF
1E0E
3C06
7806
7806
F800
F000
F000
F000
F000
F800
F800
7800
7C00
3E00
3F03
0FFE
07F8
ENDCHAR
STARTCHAR 0400
ENCODING 1024
SWIDTH 612 0
DWIDTH 17 0
BBX 16 24 1 0
BITMAP
0F00
0700
0380
0180
0000
FFFC
FFFC
3C1C
3C0C
3C0E
3C00
3C10
3C30
3C70
3FF0
3CF0
3C30
3C30
3C00
3C07
3C06
3E0E
FFFE
FFFE
ENDCHAR
STARTCHAR 0401
ENCODING 1025
SWIDTH 612 0
DWIDTH 17 0
BBX 16 24 1 0
BITMAP
3C70
3CF8
3C70
0820
0000
FFFC
FFFC
3C1C
3C0C
3C0E
3C00
3C10
3C30
3C70
3FF0
3CF0
3C30
3C30
3C00
3C07
3C06
3E0E
FFFE
FFFE
ENDCHAR
STARTCHAR 0402
ENCODING 1026
SWIDTH 792 0
DWIDTH 22 0
BBX 20 19 1 0
BITMAP
FFFF00
FFFF00
E3C700
C3C300
C3C300
03C000
03C000
03C000
03DF00
03FFE0
03C3E0
03C1F0
03C0F0
03C0F0
03C0F0
03C0F0
03C0F0
0FF7E0
0FF7C0
ENDCHAR
STARTCHAR 0403
ENCODING 1027
SWIDTH 576 0
DWIDTH 16 0
BBX 14 26 1 0
BITMAP
01E0
01C0
0180
0380
0300
0000
0000
FFFC
FFFC
3C1C
3C0C
3C0C
3C00
3C00
3C00
3C00
3C00
3C00
3C00
3C00
3C00
3C00
3C00
3E00
FF80
FF80
ENDCHAR
STARTCHAR 0404
ENCODING 1028
SWIDTH 612 0
DWIDTH 17 0
BBX 15 19 1 0
BITMAP
03F8
0FFE
3C0E
3C0E
7806
7806
F800
F000
F000
FFF0
FFF0
F000
F800
7806
7806
7C06
3E0E
1FBE
07FC
ENDCHAR
STARTCHAR 0405
ENCODING 1029
SWIDTH 540 0
DWIDTH 15 0
BBX 14 19 1 0
BITMAP
0FC0
3FF0
7870
7070
7030
7800
7C00
7F00
3FC0
3FF0
0FF0
03F8
00F8
607C
6038
7038
F078
FFF0
3FE0
ENDCHAR
STARTCHAR 0406
ENCODING 1030
SWIDTH 360 0
DWIDTH 10 0
BBX 8 19 1 0
BITMAP
FF
FF
3E
3C
3C
3C
3C
3C
3C
3C
3C
3C
3C
3C
3C
3C
3E
FF
FF
ENDCHAR
STARTCHAR 0407
ENCODING 1031
SWIDTH 360 0
DWIDTH 10 0
BBX 9 24 1 0
BITMAP
E300
F780
F780
E300
0000
FF00
FF00
3E00
3C00
3C00
3C00
3C00
3C00
3C00
3C00
3C00
3C00
3C00
3C00
3C00
3C00
3E00
FF00
FF00
ENDCHAR
STARTCHAR 0408
ENCODING 1032
SWIDTH 360 0
DWIDTH 10 0
BBX 9 26 0 -7
BITMAP
7F80
7F80
1E00
1E00
1E00
1E00
1E00
1E00
1E00
1E00
1E00
1E00
1E00
1E00
1E00
1E00
1E00
1E00
1E00
1E00
1C00
3C00
3800
7000
E000
C000
ENDCHAR
STARTCHAR 0409
ENCODING 1033
SWIDTH 936 0
DWIDTH 26 0
BBX 25 19 0 0
BITMAP
0FFFC000
0FFFC000
031F0000
031F0000
030F0000
030F0000
030F0000
030F0000
030FF800
020FFE00
020F1F00
060F0F80
060F0F80
060F0F80
0E0F0F80
7C0F0F80
FC1F0F00
FC3FFE00
783FFC00
ENDCHAR
STARTCHAR 040A
ENCODING 1034
SWIDTH 1008 0
DWIDTH 28 0
BBX 26 19 1 0
BITMAP
FF1FF000
FF1FF000
3E0F8000
3C078000
3C078000
3C078000
3C078000
3C078000
3FFFF800
3FFFFF00
3C078F80
3C0787C0
3C0787C0
3C0787C0
3C0787C0
3C0787C0
3E0F8780
FF1FFF00
FF1FFC00
ENDCHAR
STARTCHAR 040B
ENCODING 1035
SWIDTH 864 0
DWIDTH 24 0
BBX 22 19 1 0
BITMAP
FFFF00
FFFF00
E3C700
C3C300
C3C300
03C000
03C000
03C000
03DF80
03FFE0
03C1E0
03C0F0
03C0F0
03C0F0
03C0F0
03C0F0
03E0F0
0FF3FC
0FF3FC
ENDCHAR
STARTCHAR 040C
ENCODING 1036
SWIDTH 720 0
DWIDTH 20 0
BBX 19 26 1 0
BITMAP
003800
007000
007000
006000
00C000
000000
000000
FF0FC0
FF0FC0
3E0700
3C0E00
3C1C00
3C1800
3C3000
3C6000
3CE000
3DF000
3CF800
3CF800
3C7C00
3C3E00
3C3E00
3C1F00
3E0F80
FF0FE0
FF07E0
ENDCHAR
STARTCHAR 040D
ENCODING 1037
SWIDTH 756 0
DWIDTH 21 0
BBX 19 24 1 0
BITMAP
01C000
01C000
00E000
004000
000000
FF03E0
FF07E0
3E07C0
3C0F80
3C0F80
3C1F80
3C3780
3C3780
3C6780
3C6780
3CC780
3CC780
3D8780
3D8780
3F0780
3F0780
3E07C0
FE1FE0
FC1FE0
ENDCHAR
STARTCHAR 040E
ENCODING 1038
SWIDTH 648 0
DWIDTH 18 0
BBX 18 25 0 0
BITMAP
070700
070700
078700
03FE00
00F800
000000
FF07C0
7F07C0
3E0380
1E0380
1F0300
0F0200
078600
07C400
03CC00
03E800
01F800
01F800
00F000
007000
006000
00E000
1FC000
1F8000
1F0000
ENDCHAR
STARTCHAR 040F
ENCODING 1039
SWIDTH 756 0
DWIDTH 21 0
BBX 19 24 1 -5
BITMAP
FF1FE0
FF1FE0
3E0780
3C0780
3C0780
3C0780
3C0780
3C0780
3C0780
3C0780
3C0780
3C0780
3C0780
3C0780
3C0780
3C0780
3E0780
FFFFE0
FFFFE0
00F000
00E000
00E000
00E000
00E000
ENDCHAR
STARTCHAR 0410
ENCODING 1040
SWIDTH 684 0
DWIDTH 19 0
BBX 19 19 0 0
BITMAP
006000
00E000
00F000
01F000
01F000
01F800
037800
037C00
063C00
063E00
041E00
0C1F00
0FFF00
1FFF00
180F80
300780
3007C0
7C0FE0
FC1FE0
ENDCHAR
STARTCHAR 0411
ENCODING 1041
SWIDTH 648 0
DWIDTH 18 0
BBX 16 19 1 0
BITMAP
FFFC
FFFC
3C1C
3C0C
3C06
3C00
3C00
3C00
3FE0
3FFC
3C3E
3C1F
3C1F
3C0F
3C0F
3C1F
3E1E
FFFC
FFF0
ENDCHAR
STARTCHAR 0412
ENCODING 1042
SWIDTH 648 0
DWIDTH 18 0
BBX 16 19 1 0
BITMAP
FFF0
FFFC
3C3E
3C1E
3C1E
3C1E
3C1E
3C3C
3FF0
3FFC
3C3E
3C1F
3C0F
3C0F
3C0F
3C0F
3E1F
FFFE
FFF8
ENDCHAR
STARTCHAR 0413
ENCODING 1043
SWIDTH 576 0
DWIDTH 16 0
BBX 14 19 1 0
BITMAP
FFFC
FFFC
3C1C
3C0C
3C0C
3C00
3C00
3C00
3C00
3C00
3C00
3C00
3C00
3C00
3C00
3C00
3E00
FF80
FF80
ENDCHAR
STARTCHAR 0414
ENCODING 1044
SWIDTH 720 0
DWIDTH 20 0
BBX 19 24 1 -5
BITMAP
1FFF80
1FFF80
061F00
061E00
061E00
061E00
061E00
061E00
061E00
061E00
061E00
0C1E00
0C1E00
0C1E00
0C1E00
181E00
381E00
FFFFC0
FFFFE0
E001E0
E001C0
E000C0
E000C0
E000C0
ENDCHAR
STARTCHAR 0415
ENCODING 1045
SWIDTH 612 0
DWIDTH 17 0
BBX 16 19 1 0
BITMAP
FFFC
FFFC
3C1C
3C0C
3C0E
3C00
3C10
3C30
3C70
3FF0
3CF0
3C30
3C30
3C00
3C07
3C06
3E0E
FFFE
FFFE
ENDCHAR
STARTCHAR 0416
ENCODING 1046
SWIDTH 1044 0
DWIDTH 29 0
BBX 29 19 0 0
BITMAP
7F1FE7F0
7F1FE7F0
0E0F83C0
07078300
03078600
01878E00
00C79C00
00679800
00F7BC00
01F7BC00
01E7BE00
03E79E00
03C79F00
07C78F80
0F878F80
0F0787C0
1F0F83E0
FE1FE3F8
7E1FE1F8
ENDCHAR
STARTCHAR 0417
ENCODING 1047
SWIDTH 576 0
DWIDTH 16 0
BBX 14 19 1 0
BITMAP
1FC0
7FF0
70F8
7078
6078
0078
0078
00F0
07C0
0FF0
01F8
007C
003C
603C
603C
703C
F078
FFF0
3FE0
ENDCHAR
STARTCHAR 0418
ENCODING 1048
SWIDTH 756 0
DWIDTH 21 0
BBX 19 19 1 0
BITMAP
FF03E0
FF07E0
3E07C0
3C0F80
3C0F80
3C1F80
3C3780
3C3780
3C6780
3C6780
3CC780
3CC780
3D8780
3D8780
3F0780
3F0780
3E07C0
FE1FE0
FC1FE0
ENDCHAR
STARTCHAR 0419
ENCODING 1049
SWIDTH 756 0
DWIDTH 21 0
BBX 19 25 1 0
BITMAP
060400
0E0E00
0F0E00
07FC00
01F000
000000
FF03E0
FF07E0
3E07C0
3C0F80
3C0F80
3C1F80
3C3780
3C3780
3C6780
3C6780
3CC780
3CC780
3D8780
3D8780
3F0780
3F0780
3E07C0
FE1FE0
FC1FE0
ENDCHAR
STARTCHAR 041A
ENCODING 1050
SWIDTH 720 0
DWIDTH 20 0
BBX 19 19 1 0
BITMAP
FF0FC0
FF0FC0
3E0700
3C0E00
3C1C00
3C1800
3C3000
3C6000
3CE000
3DF000
3CF800
3CF800
3C7C00
3C3E00
3C3E00
3C1F00
3E0F80
FF0FE0
FF07E0
ENDCHAR
STARTCHAR 041B
ENCODING 1051
SWIDTH 684 0
DWIDTH 19 0
BBX 18 19 0 0
BITMAP
0FFFC0
0FFFC0
030F80
030F00
030F00
030F00
030F00
030F00
030F00
020F00
020F00
060F00
060F00
060F00
0E0F00
7C0F00
FC0F80
FC3FC0
783FC0
ENDCHAR
STARTCHAR 041C
ENCODING 1052
SWIDTH 936 0
DWIDTH 26 0
BBX 25 19 1 0
BITMAP
7E003F00
7F007F00
1F007C00
1F007C00
1F80FC00
1F80FC00
1FC0BC00
13C1BC00
13E1BC00
33E33E00
31E33E00
31F21E00
30F61E00
30FE1E00
307C1E00
307C1E00
70381F00
FC387F80
FC387F80
ENDCHAR
STARTCHAR 041D
ENCODING 1053
SWIDTH 756 0
DWIDTH 21 0
BBX 19 19 1 0
BITMAP
FF1FE0
FF1FE0
3E07C0
3C0780
3C0780
3C0780
3C0780
3C0780
3FFF80
3FFF80
3C0780
3C0780
3C0780
3C0780
3C0780
3C0780
3E07C0
FF1FE0
FF1FE0
ENDCHAR
STARTCHAR 041E
ENCODING 1054
SWIDTH 720 0
DWIDTH 20 0
BBX 19 19 1 0
BITMAP
03F800
0FFE00
1E1F00
3C0F80
7807C0
7803C0
F003C0
F003E0
F003E0
F003E0
F003E0
F803E0
F803C0
7803C0
7803C0
3C0780
3E0F00
0FFE00
07F800
ENDCHAR
STARTCHAR 041F
ENCODING 1055
SWIDTH 756 0
DWIDTH 21 0
BBX 19 19 1 0
BITMAP
FFFFE0
FFFFE0
3C0780
3C0780
3C0780
3C0780
3C0780
3C0780
3C0780
3C0780
3C0780
3C0780
3C0780
3C0780
3C0780
3C0780
3E0780
FF1FE0
FF1FE0
ENDCHAR
STARTCHAR 0420
ENCODING 1056
SWIDTH 612 0
DWIDTH 17 0
BBX 16 19 1 0
BITMAP
FFE0
FFFC
3C3E
3C1E
3C1F
3C1F
3C1F
3C1F
3C1E
3C1E
3C3C
3DF8
3C80
3C00
3C00
3C00
3E00
FF80
FF80
ENDCHAR
STARTCHAR 0421
ENCODING 1057
SWIDTH 612 0
DWIDTH 17 0
BBX 16 19 1 0
BITMAP
03F8
0FFF
1E0E
3C06
7806
7806
F800
F000
F000
F000
F000
F800
F800
7800
7C00
3E00
3F03
0FFE
07F8
ENDCHAR
STARTCHAR 0422
ENCODING 1058
SWIDTH 648 0
DWIDTH 18 0
BBX 16 19 1 0
BITMAP
FFFF
FFFF
E3C7
C3C3
C3C3
03C0
03C0
03C0
03C0
03C0
03C0
03C0
03C0
03C0
03C0
03C0
03C0
1FF8
1FF8
ENDCHAR
STARTCHAR 0423
ENCODING 1059
SWIDTH 648 0
DWIDTH 18 0
BBX 18 19 0 0
BITMAP
FF07C0
7F07C0
3E0380
1E0380
1F0300
0F0200
078600
07C400
03CC00
03E800
01F800
01F800
00F000
007000
006000
00E000
1FC000
1F8000
1F0000
ENDCHAR
STARTCHAR 0424
ENCODING 1060
SWIDTH 864 0
DWIDTH 24 0
BBX 22 20 1 0
BITMAP
03FF00
03FF00
007800
007800
07FFC0
1F7FF0
7C78F8
78787C
F0787C
F0783C
F0783C
F8783C
787878
7C78F8
3F7BF0
0FFFC0
007800
007800
03FF00
03FF00
ENDCHAR
STARTCHAR 0425
ENCODING 1061
SWIDTH 684 0
DWIDTH 19 0
BBX 18 19 1 0
BITMAP
FF9F80
FF1F80
3E0F00
3F0E00
1F0C00
0F9800
0F9800
07F000
03E000
03E000
03F000
03F800
06F800
0C7C00
0C7C00
183E00
383F00
FC7F80
FC7FC0
ENDCHAR
STARTCHAR 0426
ENCODING 1062
SWIDTH 792 0
DWIDTH 22 0
BBX 21 24 1 -5
BITMAP
FF1FE0
FF1FE0
3E0780
3C0780
3C0780
3C0780
3C0780
3C0780
3C0780
3C0780
3C0780
3C0780
3C0780
3C0780
3C0780
3C0780
3C0780
FFFFF0
FFFFF8
000078
000038
000030
000030
000030
ENDCHAR
STARTCHAR 0427
ENCODING 1063
SWIDTH 720 0
DWIDTH 20 0
BBX 18 19 1 0
BITMAP
FF3FC0
FF3FC0
3C0F80
3C0F00
3C0F00
3C0F00
3C0F00
3C0F00
3E0F00
1F0F00
0FFF00
03EF00
000F00
000F00
000F00
000F00
000F80
007FC0
007FC0
ENDCHAR
STARTCHAR 0428
ENCODING 1064
SWIDTH 1044 0
DWIDTH 29 0
BBX 27 19 1 0
BITMAP
FF3FDFE0
FF3F9FE0
3E1F0780
3C0F0780
3C0F0780
3C0F0780
3C0F0780
3C0F0780
3C0F0780
3C0F0780
3C0F0780
3C0F0780
3C0F0780
3C0F0780
3C0F0780
3C0F0780
3C0F0780
FFFFFFE0
FFFFFFE0
ENDCHAR
STARTCHAR 0429
ENCODING 1065
SWIDTH 1080 0
DWIDTH 30 0
BBX 29 24 1 -5
BITMAP
FF3FDFE0
FF3F9FE0
3E1F0780
3C0F0780
3C0F0780
3C0F0780
3C0F0780
3C0F0780
3C0F0780
3C0F0780
3C0F0780
3C0F0780
3C0F0780
3C0F0780
3C0F0780
3C0F0780
3C0F0780
FFFFFFF0
FFFFFFF8
00000078
00000038
00000030
00000030
00000030
ENDCHAR
STARTCHAR 042A
ENCODING 1066
SWIDTH 756 0
DWIDTH 21 0
BBX 19 19 1 0
BITMAP
FFF800
FFF800
E3E000
C3C000
C3C000
03C000
03C000
03C000
03FE00
03FFC0
03C7E0
03C3E0
03C1E0
03C1E0
03C1E0
03C1E0
07C3E0
0FFFC0
0FFF00
ENDCHAR
STARTCHAR 042B
ENCODING 1067
SWIDTH 936 0
DWIDTH 26 0
BBX 24 19 1 0
BITMAP
FF80FF
FF80FF
3E007C
3E003C
3C003C
3C003C
3C003C
3C003C
3FE03C
3FFC3C
3C7E3C
3C3E3C
3C1E3C
3C1E3C
3C1E3C
3C1E3C
3E3E3C
FFFCFF
FFF0FF
ENDCHAR
STARTCHAR 042C
ENCODING 1068
SWIDTH 648 0
DWIDTH 18 0
BBX 16 19 1 0
BITMAP
FF80
FF80
3E00
3E00
3C00
3C00
3C00
3C00
3FF0
3FFC
3C3F
3C1F
3C0F
3C0F
3C0F
3C1F
3E1F
FFFE
FFF8
ENDCHAR
STARTCHAR 042D
ENCODING 1069
SWIDTH 612 0
DWIDTH 17 0
BBX 16 19 1 0
BITMAP
1FC0
7FF0
707C
603C
603E
601E
001F
001F
001F
0FFF
0FFF
001F
001E
201E
E01E
E03C
7078
FDF0
3FE0
ENDCHAR
STARTCHAR 042E
ENCODING 1070
SWIDTH 1044 0
DWIDTH 29 0
BBX 27 19 1 0
BITMAP
FF01F800
FF07FE00
3E1E0F80
3C1C07C0
3C3C03C0
3C3C03E0
3C7803E0
3C7801E0
3FF801E0
3FF801E0
3C7801E0
3C7801E0
3C7C01E0
3C7C01E0
3C3C03C0
3C3E03C0
3E1F0780
FF0FFF00
FF03FC00
ENDCHAR
STARTCHAR 042F
ENCODING 1071
SWIDTH 648 0
DWIDTH 18 0
BBX 18 19 0 0
BITMAP
01FFC0
07FFC0
0F0F80
1E0F00
1E0F00
1E0F00
1E0F00
1F0F00
0F0F00
07FF00
03FF00
03CF00
07CF00
0F8F00
0F8F00
1F0F00
3E0F00
FE3FC0
FC3FC0
ENDCHAR
STARTCHAR 0430
ENCODING 1072
SWIDTH 468 0
DWIDTH 13 0
BBX 13 13 1 0
BITMAP
0F80
3FC0
73C0
F3E0
F1E0
03E0
0FE0
79E0
F1E0
F1E0
F1F0
FFF8
7DF0
ENDCHAR
STARTCHAR 0431
ENCODING 1073
SWIDTH 540 0
DWIDTH 15 0
BBX 14 20 1 0
BITMAP
001C
007C
03F8
0FF8
1FF0
3000
7000
7000
77E0
FFF0
F0F8
F078
F07C
F03C
F03C
F03C
F078
7878
3FF0
1FC0
ENDCHAR
STARTCHAR 0432
ENCODING 1074
SWIDTH 540 0
DWIDTH 15 0
BBX 14 13 1 0
BITMAP
FFC0
FFF0
7878
3878
3878
38E0
3FF0
38F8
387C
383C
7C7C
FFF8
FFE0
ENDCHAR
STARTCHAR 0433
ENCODING 1075
SWIDTH 468 0
DWIDTH 13 0
BBX 12 13 1 0
BITMAP
FFF0
FFF0
7C70
3C30
3C30
3C00
3C00
3C00
3C00
3C00
7C00
FF00
FF00
ENDCHAR
STARTCHAR 0434
ENCODING 1076
SWIDTH 612 0
DWIDTH 17 0
BBX 17 18 0 -5
BITMAP
1FFE00
1FFE00
0C3C00
043C00
043C00
0C3C00
0C3C00
0C3C00
0C3C00
1C3C00
183C00
7FFF00
FFFF80
E00700
600700
600300
600300
600300
ENDCHAR
STARTCHAR 0435
ENCODING 1077
SWIDTH 504 0
DWIDTH 14 0
BBX 12 13 1 0
BITMAP
0F80
3FE0
78E0
70F0
F0F0
F0F0
FFF0
F000
F000
F800
7C30
3FF0
1FC0
ENDCHAR
STARTCHAR 0436
ENCODING 1078
SWIDTH 864 0
DWIDTH 24 0
BBX 23 13 1 0
BITMAP
FEFEFE
7CFE7C
187C30
0C7860
0638C0
033980
07BBC0
0FBBE0
0F39E0
1E38F0
3E7CF8
FCFE7E
F8FE3E
ENDCHAR
STARTCHAR 0437
ENCODING 1079
SWIDTH 468 0
DWIDTH 13 0
BBX 12 13 1 0
BITMAP
3F80
FFE0
E1E0
E1E0
61E0
0FC0
1FC0
07E0
01F0
E1F0
E1E0
F3E0
FF80
ENDCHAR
STARTCHAR 0438
ENCODING 1080
SWIDTH 612 0
DWIDTH 17 0
BBX 16 13 1 0
BITMAP
FE1F
FE3F
7C3E
387C
38FC
38FC
39BC
3B3C
3B3C
3E3C
7C3C
FC7F
F87F
ENDCHAR
STARTCHAR 0439
ENCODING 1081
SWIDTH 612 0
DWIDTH 17 0
BBX 16 19 1 0
BITMAP
381C
3C38
1C38
0FF0
0180
0000
FE1F
FE3F
7C3E
387C
38FC
38FC
39BC
3B3C
3B3C
3E3C
7C3C
FC7F
F87F
ENDCHAR
STARTCHAR 043A
ENCODING 1082
SWIDTH 576 0
DWIDTH 16 0
BBX 15 13 1 0
BITMAP
FE7E
FE7E
7C38
3C60
38E0
3DC0
3FC0
3FE0
3DE0
3CF0
7CF8
FE7E
FE3E
ENDCHAR
STARTCHAR 043B
ENCODING 1083
SWIDTH 576 0
DWIDTH 16 0
BBX 15 13 0 0
BITMAP
1FFE
1FFE
063C
063C
063C
043C
043C
0C3C
0C3C
1C3C
F83C
F8FE
F0FE
ENDCHAR
STARTCHAR 043C
ENCODING 1084
SWIDTH 720 0
DWIDTH 20 0
BBX 19 13 1 0
BITMAP
FC07C0
7E0FC0
3E0F80
3F1F80
3F1F80
2F9780
27B780
27A780
23E780
63C3C0
61C3C0
F1CFE0
F98FE0
ENDCHAR
STARTCHAR 043D
ENCODING 1085
SWIDTH 648 0
DWIDTH 18 0
BBX 16 13 1 0
BITMAP
FE7F
FE7F
7C3E
3C1C
3C1C
3C1C
3FFC
3C1C
3C1C
3C1C
7C3E
FE7F
FE7F
ENDCHAR
STARTCHAR 043E
ENCODING 1086
SWIDTH 540 0
DWIDTH 15 0
BBX 14 13 1 0
BITMAP
0FC0
3FF0
78F8
7078
F07C
F03C
F03C
F03C
F03C
F878
7878
3FF0
1FC0
ENDCHAR
STARTCHAR 043F
ENCODING 1087
SWIDTH 612 0
DWIDTH 17 0
BBX 16 13 1 0
BITMAP
FFFF
FFFF
7C3E
3C3C
3C3C
3C3C
3C3C
3C3C
3C3C
3C3C
7C3C
FE7F
FE7F
ENDCHAR
STARTCHAR 0440
ENCODING 1088
SWIDTH 612 0
DWIDTH 17 0
BBX 16 20 1 -7
BITMAP
0CF8
FDFC
FF3E
3C1E
3C1E
3C1F
3C1F
3C1E
3C1E
3C1E
3C3C
3E78
3FF0
3C00
3C00
3C00
3C00
3E00
FF80
FF80
ENDCHAR
STARTCHAR 0441
ENCODING 1089
SWIDTH 432 0
DWIDTH 12 0
BBX 11 13 1 0
BITMAP
0FC0
3FE0
78E0
70E0
F060
F000
F000
F000
F000
F800
7C20
3FE0
1FC0
ENDCHAR
STARTCHAR 0442
ENCODING 1090
SWIDTH 540 0
DWIDTH 15 0
BBX 15 13 0 0
BITMAP
7FFE
7FFE
63CE
E3C6
03C0
03C0
03C0
03C0
03C0
03C0
03C0
1FF0
1FF0
ENDCHAR
STARTCHAR 0443
ENCODING 1091
SWIDTH 540 0
DWIDTH 15 0
BBX 15 20 0 -7
BITMAP
FF3E
FF3E
3E1C
3E18
1E18
1F10
0F30
0FB0
07E0
07E0
03C0
03C0
0380
0180
0180
0300
6F00
7E00
7C00
3800
ENDCHAR
STARTCHAR 0444
ENCODING 1092
SWIDTH 792 0
DWIDTH 22 0
BBX 20 27 1 -7
BITMAP
003000
03F000
03F000
00F000
00F000
00F000
00F000
07FE00
1FFF80
3CF7E0
78F1E0
F0F1F0
F0F0F0
F0F0F0
F0F0F0
F0F0F0
F8F1E0
7CF3E0
3FFFC0
0FFF00
00F000
00F000
00F000
00F000
00F000
03FC00
03FC00
ENDCHAR
STARTCHAR 0445
ENCODING 1093
SWIDTH 540 0
DWIDTH 15 0
BBX 14 13 1 0
BITMAP
FE7C
FE7C
7E30
3E60
1FE0
0FC0
0FC0
0FC0
1BE0
39F0
31F0
FBFC
FBFC
ENDCHAR
STARTCHAR 0446
ENCODING 1094
SWIDTH 648 0
DWIDTH 18 0
BBX 17 18 1 -5
BITMAP
FE7F00
FE7F00
7C3E00
3C3C00
3C3C00
3C3C00
3C3C00
3C3C00
3C3C00
3C3C00
7C3C00
FFFF80
FFFF80
000380
000380
000380
000380
000180
ENDCHAR
STARTCHAR 0447
ENCODING 1095
SWIDTH 576 0
DWIDTH 16 0
BBX 16 13 0 0
BITMAP
FE7F
FE7E
3C3C
3C3C
3C3C
3C3C
3E3C
1FFC
023C
003C
003C
00FE
00FF
ENDCHAR
STARTCHAR 0448
ENCODING 1096
SWIDTH 864 0
DWIDTH 24 0
BBX 23 13 1 0
BITMAP
FEFEFE
FEFEFE
7C7878
3C7878
3C7878
3C7878
3C7878
3C7878
3C7878
3C7878
7C7878
FFFFFE
FFFFFE
ENDCHAR
STARTCHAR 0449
ENCODING 1097
SWIDTH 900 0
DWIDTH 25 0
BBX 24 18 1 -5
BITMAP
FEFEFE
FEFEFE
7C7878
3C7878
3C7878
3C7878
3C7878
3C7878
3C7878
3C7878
7C7878
FFFFFF
FFFFFF
000007
000007
000007
000007
000007
ENDCHAR
STARTCHAR 044A
ENCODING 1098
SWIDTH 612 0
DWIDTH 17 0
BBX 16 13 0 0
BITMAP
7FF0
7FE0
6780
E780
E780
07F8
07FE
079F
078F
078F
078F
0FFE
0FFC
ENDCHAR
STARTCHAR 044B
ENCODING 1099
SWIDTH 828 0
DWIDTH 23 0
BBX 21 13 1 0
BITMAP
FF03F8
FF03F8
7C01F0
3C00F0
3C00F0
3FE0F0
3FF0F0
3CF8F0
3C78F0
3C78F0
7C79F0
FFFBF8
FFE3F8
ENDCHAR
STARTCHAR 044C
ENCODING 1100
SWIDTH 540 0
DWIDTH 15 0
BBX 14 13 1 0
BITMAP
FF00
FF00
7C00
3C00
3C00
3FE0
3FF8
3C7C
3C7C
3C7C
7C7C
FFF8
FFE0
ENDCHAR
STARTCHAR 044D
ENCODING 1101
SWIDTH 468 0
DWIDTH 13 0
BBX 11 13 1 0
BITMAP
7E00
FF80
E3C0
C3E0
01E0
01E0
3FE0
3DE0
01E0
C1E0
C3C0
FF80
7F00
ENDCHAR
STARTCHAR 044E
ENCODING 1102
SWIDTH 792 0
DWIDTH 22 0
BBX 21 13 1 0
BITMAP
FE0F80
FE3FE0
7C70F0
3CF0F0
3CF078
3CF078
3FF078
3FF078
3CF078
3CF070
7C78F0
FE7FE0
FE1FC0
ENDCHAR
STARTCHAR 044F
ENCODING 1103
SWIDTH 540 0
DWIDTH 15 0
BBX 15 13 0 0
BITMAP
07FE
1FFE
3C78
3C78
3C78
3C78
1F78
0FF8
0F78
0E78
1E78
7CFE
FCFE
ENDCHAR
STARTCHAR 0450
ENCODING 1104
SWIDTH 504 0
DWIDTH 14 0
BBX 12 20 1 0
BITMAP
1C00
3C00
0C00
0E00
0600
0000
0000
0F80
3FE0
78E0
70F0
F0F0
F0F0
FFF0
F000
F000
F800
7C30
3FF0
1FC0
ENDCHAR
STARTCHAR 0451
ENCODING 1105
SWIDTH 504 0
DWIDTH 14 0
BBX 12 18 1 0
BITMAP
78E0
79F0
78E0
3040
0000
0F80
3FE0
78E0
70F0
F0F0
F0F0
FFF0
F000
F000
F800
7C30
3FF0
1FC0
ENDCHAR
STARTCHAR 0452
ENCODING 1106
SWIDTH 612 0
DWIDTH 17 0
BBX 16 27 0 -7
BITMAP
0400
7E00
7E00
1E00
1E00
FFE0
1E00
1E78
1EFC
1FFE
1F1E
1E1F
1E0F
1E0F
1E0F
1E0F
1E0F
1E0F
7F0E
7F8E
001E
001E
003C
0038
0070
01E0
00C0
ENDCHAR
STARTCHAR 0453
ENCODING 1107
SWIDTH 468 0
DWIDTH 13 0
BBX 12 20 1 0
BITMAP
03C0
0380
0300
0700
0600
0000
0000
FFF0
FFF0
7C70
3C30
3C30
3C00
3C00
3C00
3C00
3C00
7C00
FF00
FF00
ENDCHAR
STARTCHAR 0454
ENCODING 1108
SWIDTH 468 0
DWIDTH 13 0
BBX 11 13 1 0
BITMAP
0FC0
3FE0
78E0
7060
F000
F000
FF80
F300
F000
F060
7860
3FE0
1FE0
ENDCHAR
STARTCHAR 0455
ENCODING 1109
SWIDTH 432 0
DWIDTH 12 0
BBX 11 13 1 0
BITMAP
1F80
7FC0
F1C0
F0C0
F800
7E00
7F80
1FC0
03E0
C1E0
E1E0
FFC0
7F80
ENDCHAR
STARTCHAR 0456
ENCODING 1110
SWIDTH 324 0
DWIDTH 9 0
BBX 8 19 1 0
BITMAP
3C
7C
7C
38
00
00
0C
FC
FC
3C
3C
3C
3C
3C
3C
3C
3C
FF
FF
ENDCHAR
STARTCHAR 0457
ENCODING 1111
SWIDTH 324 0
DWIDTH 9 0
BBX 10 18 0 0
BITMAP
F380
F7C0
F780
6100
0000
0600
7E00
7E00
1E00
1E00
1E00
1E00
1E00
1E00
1E00
1E00
7F80
7F80
ENDCHAR
STARTCHAR 0458
ENCODING 1112
SWIDTH 288 0
DWIDTH 8 0
BBX 7 26 0 -7
BITMAP
1E
3E
3E
1C
00
00
06
7E
7E
1E
1E
1E
1E
1E
1E
1E
1E
1E
1E
1E
1C
3C
38
70
E0
40
ENDCHAR
STARTCHAR 0459
ENCODING 1113
SWIDTH 792 0
DWIDTH 22 0
BBX 22 13 0 0
BITMAP
1FFE00
1FFE00
063C00
063C00
063C00
063FE0
063FF8
043C78
0C3C7C
0C3C7C
FC3C7C
F8FFF8
F0FFE0
ENDCHAR
STARTCHAR 045A
ENCODING 1114
SWIDTH 828 0
DWIDTH 23 0
BBX 22 13 1 0
BITMAP
FEFF00
FEFF00
7C3C00
3C3C00
3C3C00
3C3C00
3FFFF0
3C3CF8
3C3C7C
3C3C7C
7C3C7C
FE7FF8
FEFFE0
ENDCHAR
STARTCHAR 045B
ENCODING 1115
SWIDTH 648 0
DWIDTH 18 0
BBX 17 20 0 0
BITMAP
040000
7E0000
7E0000
1E0000
1E0000
FFE000
1E0000
1E0000
1EFC00
1FFE00
1F1E00
1E1F00
1E0F00
1E0F00
1E0F00
1E0F00
1E0F00
1E1F00
7F3F80
7FBF80
ENDCHAR
STARTCHAR 045C
ENCODING 1116
SWIDTH 576 0
DWIDTH 16 0
BBX 15 20 1 0
BITMAP
0070
0070
00E0
00C0
01C0
0000
0000
FE7E
FE7E
7C38
3C60
38E0
3DC0
3FC0
3FE0
3DE0
3CF0
7CF8
FE7E
FE3E
ENDCHAR
STARTCHAR 045D
ENCODING 1117
SWIDTH 612 0
DWIDTH 17 0
BBX 16 20 1 0
BITMAP
0700
0700
0700
0380
0180
0000
0000
FE1F
FE3F
7C3E
387C
38FC
38FC
39BC
3B3C
3B3C
3E3C
7C3C
FC7F
F87F
ENDCHAR
STARTCHAR 045E
ENCODING 1118
SWIDTH 540 0
DWIDTH 15 0
BBX 15 26 0 -7
BITMAP
1C0E
1E1C
0E3C
07F8
00C0
0000
FF3E
FF3E
3E1C
3E18
1E18
1F10
0F30
0FB0
07E0
07E0
03C0
03C0
0380
0180
0180
0300
6F00
7E00
7C00
3800
ENDCHAR
STARTCHAR 045F
ENCODING 1119
SWIDTH 612 0
DWIDTH 17 0
BBX 16 18 1 -5
BITMAP
FE7F
FE7F
7C3E
3C3C
3C3C
3C3C
3C3C
3C3C
3C3C
3C3C
7C3C
FFFF
FFFF
03C0
0380
0380
0180
0180
ENDCHAR
STARTCHAR 0462
ENCODING 1122
SWIDTH 720 0
DWIDTH 20 0
BBX 19 20 0 0
BITMAP
1FF000
0FF000
07C000
07C000
7FFE00
7FFE00
67CE00
67C600
E7C600
07C000
07FE00
07FFC0
07C7E0
07C3E0
07C1E0
07C1E0
07C1E0
07C3E0
0FFFC0
1FFF00
ENDCHAR
STARTCHAR 0463
ENCODING 1123
SWIDTH 612 0
DWIDTH 17 0
BBX 17 20 0 0
BITMAP
018000
1F8000
1F8000
078000
078000
078000
078000
7FFC00
7FFC00
678C00
E78C00
078000
07F800
07FF00
078F80
078780
078780
078F80
1FFF00
1FFC00
ENDCHAR
STARTCHAR 046A
ENCODING 1130
SWIDTH 936 0
DWIDTH 26 0
BBX 26 19 0 0
BITMAP
1FFFFE00
1FFFFE00
07C01C00
03E01800
03E03000
01F06000
00F8C000
007CC000
003D8000
00FFE000
03FFF800
07DE7800
079E7C00
0F9E3C00
0F1E3E00
1F1E1E00
1E1F1F00
FE7F8FC0
7C7F8FC0
ENDCHAR
STARTCHAR 046B
ENCODING 1131
SWIDTH 792 0
DWIDTH 22 0
BBX 22 13 0 0
BITMAP
3FFFF0
3FFFF0
0F80C0
07C180
03E300
01F600
03FF80
0FFFC0
1F79E0
1E78F0
3E78F0
FCFEFC
78FE7C
ENDCHAR
STARTCHAR 0472
ENCODING 1138
SWIDTH 720 0
DWIDTH 20 0
BBX 19 19 1 0
BITMAP
03F800
0FFE00
1E1F00
3C0F80
7807C0
7803C0
F003C0
F003E0
F7E7E0
FFFFE0
FCFFE0
F803E0
F803C0
7803C0
7803C0
3C0780
3E0F00
0FFE00
07F800
ENDCHAR
STARTCHAR 0473
ENCODING 1139
SWIDTH 540 0
DWIDTH 15 0
BBX 14 13 1 0
BITMAP
0FC0
3FF0
78F8
7078
F07C
F67C
FFFC
FBBC
F03C
F878
7878
3FF0
1FC0
ENDCHAR
STARTCHAR 0474
ENCODING 1140
SWIDTH 720 0
DWIDTH 20 0
BBX 20 19 0 0
BITMAP
FF00E0
7F01F0
3E03F0
3E03A0
1E0300
1F0600
0F0600
0F0400
0F8C00
078C00
078800
03D800
03D800
03D000
01F000
01F000
00E000
00E000
00E000
ENDCHAR
STARTCHAR 0475
ENCODING 1141
SWIDTH 504 0
DWIDTH 14 0
BBX 15 13 0 0
BITMAP
FE1C
FE3E
7C3C
3C30
3E60
1E60
1F40
0FC0
0FC0
0780
0780
0780
0300
ENDCHAR
STARTCHAR 048A
ENCODING 1162
SWIDTH 792 0
DWIDTH 22 0
BBX 21 30 1 -5
BITMAP
060400
0E0E00
0F0E00
07FC00
01F000
000000
FF03E0
FF07E0
3E07C0
3C0F80
3C0F80
3C1F80
3C3780
3C3780
3C6780
3C6780
3CC780
3CC780
3D8780
3D8780
3F0780
3F0780
3E07C0
FE1FF0
FC1FF8
000078
000070
0000F0
0000E0
0000C0
ENDCHAR
STARTCHAR 048B
ENCODING 1163
SWIDTH 648 0
DWIDTH 18 0
BBX 17 24 1 -5
BITMAP
381C00
3C3800
1C3800
0FF000
018000
000000
FE1F00
FE3F00
7C3E00
387C00
38FC00
38FC00
39BC00
3B3C00
3B3C00
3E3C00
7C3C00
FC7F80
F87F80
000780
000700
000700
000E00
000400
ENDCHAR
STARTCHAR 048C
ENCODING 1164
SWIDTH 648 0
DWIDTH 18 0
BBX 17 19 0 0
BITMAP
7FC000
7FC000
1F0000
1F0000
FFE000
FFE000
1E0000
1E0000
1FF800
1FFE00
1E1F80
1E0F80
1E0780
1E0780
1E0780
1E0F80
1F0F80
7FFF00
7FFC00
ENDCHAR
STARTCHAR 048D
ENCODING 1165
SWIDTH 576 0
DWIDTH 16 0
BBX 15 20 0 0
BITMAP
0C00
7E00
FE00
3E00
1E00
1E00
1E00
FFE0
FFE0
1E00
1E00
1E00
1FF8
1EFC
1E3E
1E3E
1E1E
3E3E
7FFC
7FF0
ENDCHAR
STARTCHAR 048E
ENCODING 1166
SWIDTH 612 0
DWIDTH 17 0
BBX 16 19 1 0
BITMAP
FFE0
FFFC
3C3E
3C1E
3C0F
3C0F
3C0F
3C0F
3C6E
3C7E
3C3C
3DFC
3C86
3C02
3C00
3C00
3E00
FF80
FF80
ENDCHAR
STARTCHAR 048F
ENCODING 1167
SWIDTH 612 0
DWIDTH 17 0
BBX 16 20 1 -7
BITMAP
0CF8
FDFC
FF3E
3C1E
3C1E
3C1F
3C1F
3C1E
3C1E
3CDE
3C7C
3EF8
3FF8
3C0C
3C00
3C00
3C00
3E00
FF80
FF80
ENDCHAR
STARTCHAR 0490
ENCODING 1168
SWIDTH 540 0
DWIDTH 15 0
BBX 14 24 1 0
BITMAP
0018
0018
0018
001C
001C
FFFC
FFF8
3C00
3C00
3C00
3C00
3C00
3C00
3C00
3C00
3C00
3C00
3C00
3C00
3C00
3C00
3E00
FF80
FF80
ENDCHAR
STARTCHAR 0491
ENCODING 1169
SWIDTH 432 0
DWIDTH 12 0
BBX 11 18 1 0
BITMAP
0060
0060
0060
00E0
00E0
FFE0
FFE0
7C00
3C00
3C00
3C00
3C00
3C00
3C00
3C00
7C00
FF00
FF00
ENDCHAR
STARTCHAR 0492
ENCODING 1170
SWIDTH 576 0
DWIDTH 16 0
BBX 15 19 0 0
BITMAP
7FFE
7FFE
1E0E
1E06
1E06
1E00
1E00
1E00
1E00
FFF0
FFF0
1E00
1E00
1E00
1E00
1E00
1F00
7FC0
7FC0
ENDCHAR
STARTCHAR 0493
ENCODING 1171
SWIDTH 468 0
DWIDTH 13 0
BBX 13 13 0 0
BITMAP
7FF8
7FF8
3E38
1E18
1E18
1E00
FFC0
FFC0
1E00
1E00
3E00
7F80
7F80
ENDCHAR
STARTCHAR 0494
ENCODING 1172
SWIDTH 648 0
DWIDTH 18 0
BBX 16 26 1 -7
BITMAP
FFFC
FFFC
3C1C
3C0C
3C0E
3C00
3C00
3C00
3C40
3FF8
3E7C
3C3E
3C1F
3C1F
3C1F
3C0F
3E0F
FF0F
FF0F
001E
001E
001C
003C
0038
0070
0060
ENDCHAR
STARTCHAR 0495
ENCODING 1173
SWIDTH 540 0
DWIDTH 15 0
BBX 14 20 1 -7
BITMAP
FFF8
FFF8
3C38
3C18
3C00
3C00
3FE0
3FF8
3C78
3C3C
3C3C
FE3C
FF3C
003C
003C
0078
0070
00F0
01E0
0080
ENDCHAR
STARTCHAR 0496
ENCODING 1174
SWIDTH 1080 0
DWIDTH 30 0
BBX 30 24 0 -5
BITMAP
7F1FC7F0
7F1FC7F0
0E0F8380
060F8300
030F8600
018F8C00
01CF9800
00EFB800
00EFB800
01FFFC00
03EFBE00
03CFBE00
07CF9F00
078F8F00
0F8F8F80
1F0F87C0
3F0F87E0
FE1FC3F8
FE1FC3FC
0000003C
00000018
00000018
00000018
00000018
ENDCHAR
STARTCHAR 0497
ENCODING 1175
SWIDTH 864 0
DWIDTH 24 0
BBX 25 18 0 -5
BITMAP
7E7F7E00
7E7F7E00
1C3C3800
063C3000
073C6000
03BCC000
03BDC000
07FDE000
0FBCF000
0F3CF800
1E3C7C00
FE7F3F00
7C7F3F80
00000380
00000380
00000300
00000300
00000300
ENDCHAR
STARTCHAR 0498
ENCODING 1176
SWIDTH 576 0
DWIDTH 16 0
BBX 14 24 1 -5
BITMAP
1FC0
7FF0
70F8
7078
6078
0078
0078
00F0
07C0
0FF0
01F8
007C
003C
603C
603C
703C
F078
FFF0
3FE0
0700
0700
0700
0700
0700
ENDCHAR
STARTCHAR 0499
ENCODING 1177
SWIDTH 468 0
DWIDTH 13 0
BBX 12 18 1 -5
BITMAP
3F80
FFE0
E1E0
E1E0
61E0
0FC0
1FC0
07E0
01F0
E1F0
E1E0
F3E0
FF80
0E00
0C00
0C00
0C00
0C00
ENDCHAR
STARTCHAR 049A
ENCODING 1178
SWIDTH 756 0
DWIDTH 21 0
BBX 20 24 1 -5
BITMAP
FF0FC0
FF0FC0
3E0700
3C0E00
3C1C00
3C1800
3C3000
3C6000
3CE000
3DF000
3CF800
3CF800
3C7C00
3C3E00
3C3E00
3C1F00
3E0F80
FF0FF0
FF07F0
0000F0
000070
000070
000070
000070
ENDCHAR
STARTCHAR 049B
ENCODING 1179
SWIDTH 576 0
DWIDTH 16 0
BBX 16 18 1 -5
BITMAP
FE7E
FE7E
7C38
3C60
38E0
3DC0
3FC0
3FE0
3DE0
3CF0
7CF8
FE7F
FE3F
0007
0007
0007
0007
0007
ENDCHAR
STARTCHAR 049C
ENCODING 1180
SWIDTH 756 0
DWIDTH 21 0
BBX 20 19 1 0
BITMAP
FF01C0
FF03C0
3E07C0
3C06C0
3CCCE0
3C8C00
3C9800
3CB000
3FE000
3FF800
3CBC00
3C9E00
3C9E00
3CDF00
3C0F00
3C0F80
3E0F80
FF07F0
FF03E0
ENDCHAR
STARTCHAR 049D
ENCODING 1181
SWIDTH 648 0
DWIDTH 18 0
BBX 17 13 1 0
BITMAP
FF0780
FF0F00
3C0F00
3D9B80
3DB000
3DE000
3FF000
3DF800
3DBC00
3DBC00
3C1E00
FE1F80
FF0F80
ENDCHAR
STARTCHAR 049E
ENCODING 1182
SWIDTH 720 0
DWIDTH 20 0
BBX 20 19 0 0
BITMAP
7F81E0
7F83E0
1F07E0
1E06E0
FFCC60
FFDC00
1E1800
1E3000
1FE000
1FF800
1E7C00
1E3E00
1E1E00
1E1F00
1E0F80
1E0F80
1F07C0
7F87F0
7F83F0
ENDCHAR
STARTCHAR 049F
ENCODING 1183
SWIDTH 612 0
DWIDTH 17 0
BBX 16 20 1 0
BITMAP
0800
FC00
FC00
3C00
3C00
FFC0
3C00
3C1E
3C3E
3C3E
3C6E
3CC0
3F80
3FE0
3DE0
3CF0
3CF8
3C78
FE7F
FE3E
ENDCHAR
STARTCHAR 04A0
ENCODING 1184
SWIDTH 828 0
DWIDTH 23 0
BBX 22 19 1 0
BITMAP
FFF078
FFF0F8
E3E0F8
C3C198
C3C398
03C300
03C600
03CE00
03FC00
03FF00
03CF80
03C780
03C3C0
03C3E0
03C3E0
03C1F0
03E1F0
0FF0FC
1FF0FC
ENDCHAR
STARTCHAR 04A1
ENCODING 1185
SWIDTH 684 0
DWIDTH 19 0
BBX 19 13 0 0
BITMAP
7FE1C0
7FE3C0
63C7C0
E3CCC0
03CC00
03F800
03FC00
03DE00
03DF00
03CF00
07CF80
0FE7E0
1FE3E0
ENDCHAR
STARTCHAR 04A2
ENCODING 1186
SWIDTH 828 0
DWIDTH 23 0
BBX 21 24 1 -5
BITMAP
FF1FE0
FF1FE0
3E07C0
3C0780
3C0780
3C0780
3C0780
3C0780
3FFF80
3FFF80
3C0780
3C0780
3C0780
3C0780
3C0780
3C0780
3E07C0
FF1FF8
FF1FF8
000038
000038
000038
000038
000038
ENDCHAR
STARTCHAR 04A3
ENCODING 1187
SWIDTH 684 0
DWIDTH 19 0
BBX 18 18 1 -5
BITMAP
FE7F00
FE7F00
7C3E00
3C1C00
3C1C00
3C1C00
3FFC00
3C1C00
3C1C00
3C1C00
7C3E00
FE7F80
FE7FC0
0001C0
0001C0
000180
000180
000180
ENDCHAR
STARTCHAR 04A4
ENCODING 1188
SWIDTH 900 0
DWIDTH 25 0
BBX 24 19 1 0
BITMAP
FF3FFE
FF3FFE
3E0F8E
3C0F86
3C0F83
3C0F80
3C0F80
3C0F80
3FFF80
3FFF80
3C0F80
3C0F80
3C0F80
3C0F80
3C0F80
3C0F80
3E0F80
FF1FE0
FF3FF0
ENDCHAR
STARTCHAR 04A5
ENCODING 1189
SWIDTH 756 0
DWIDTH 21 0
BBX 20 13 1 0
BITMAP
FE7FE0
FE7FE0
7C3C70
3C3C30
3C3C00
3C3C00
3FFC00
3C3C00
3C3C00
3C3C00
7C3C00
FE7F00
FE7F80
ENDCHAR
STARTCHAR 04A8
ENCODING 1192
SWIDTH 900 0
DWIDTH 25 0
BBX 24 19 1 0
BITMAP
038000
0F87C0
1E1FF0
3C38F8
787878
78707C
F8F03C
F0F03C
F0F03C
F0F03C
F0F03C
F8F83C
F87878
787878
7C7C70
3C3EE0
1F1FC7
0FEFFE
03FFF8
ENDCHAR
STARTCHAR 04A9
ENCODING 1193
SWIDTH 756 0
DWIDTH 21 0
BBX 20 13 1 0
BITMAP
0C0000
3E7F00
78E780
79E3C0
F1E3C0
F3C3C0
F3C3C0
F1E3C0
F1E3C0
79E380
7CF720
3FFFF0
0FFFC0
ENDCHAR
STARTCHAR 04AA
ENCODING 1194
SWIDTH 612 0
DWIDTH 17 0
BBX 16 24 1 -5
BITMAP
03F8
0FFF
1E0E
3C06
7806
7806
F800
F000
F000
F000
F000
F800
F800
7800
7C00
3E00
3F03
0FFE
07F8
00E0
00E0
00E0
00E0
00E0
ENDCHAR
STARTCHAR 04AB
ENCODING 1195
SWIDTH 432 0
DWIDTH 12 0
BBX 11 18 1 -5
BITMAP
0FC0
3FE0
78E0
70E0
F060
F000
F000
F000
F000
F800
7C20
3FE0
1FC0
0700
0700
0300
0300
0300
ENDCHAR
STARTCHAR 04AC
ENCODING 1196
SWIDTH 648 0
DWIDTH 18 0
BBX 16 24 1 -5
BITMAP
FFFF
FFFF
E3C7
C3C3
C3C3
03C0
03C0
03C0
03C0
03C0
03C0
03C0
03C0
03C0
03C0
03C0
03C0
1FF8
1FFC
001C
001C
001C
001C
001C
ENDCHAR
STARTCHAR 04AD
ENCODING 1197
SWIDTH 540 0
DWIDTH 15 0
BBX 15 18 0 -5
BITMAP
7FFE
7FFE
63CE
E3C6
03C0
03C0
03C0
03C0
03C0
03C0
03C0
1FF0
1FF8
0038
0038
0038
0038
0038
ENDCHAR
STARTCHAR 04AE
ENCODING 1198
SWIDTH 612 0
DWIDTH 17 0
BBX 17 19 0 0
BITMAP
FF0F80
7F0F80
3E0700
1E0600
1F0600
0F0C00
0F8C00
079800
07D800
03F000
03F000
01E000
01E000
01E000
01E000
01E000
03E000
0FF800
0FFC00
ENDCHAR
STARTCHAR 04AF
ENCODING 1199
SWIDTH 540 0
DWIDTH 15 0
BBX 15 20 0 -7
BITMAP
FF3E
FF3E
3C1C
3E18
1E18
1F10
0F30
0F30
07E0
07E0
03C0
03C0
03C0
03C0
03C0
03C0
03C0
03C0
0FF0
0FF0
ENDCHAR
STARTCHAR 04B0
ENCODING 1200
SWIDTH 612 0
DWIDTH 17 0
BBX 17 19 0 0
BITMAP
FF0F80
7F0F80
3E0700
1E0600
1F0600
0F0C00
0F8C00
079800
07D800
03F000
03F000
01E000
1FFC00
1FFC00
01E000
01E000
03E000
0FF800
0FFC00
ENDCHAR
STARTCHAR 04B1
ENCODING 1201
SWIDTH 540 0
DWIDTH 15 0
BBX 15 20 0 -7
BITMAP
FF3E
FF3E
3C1C
3E18
1E18
1F10
0F30
0F30
07E0
07E0
03C0
1FF8
1FF8
03C0
03C0
03C0
03C0
03C0
0FF0
0FF0
ENDCHAR
STARTCHAR 04B2
ENCODING 1202
SWIDTH 720 0
DWIDTH 20 0
BBX 19 24 1 -5
BITMAP
FF9F80
FF1F80
3E0F00
3F0E00
1F0C00
0F9800
0F9800
07F000
03E000
03E000
03F000
03F800
06F800
0C7C00
0C7C00
183E00
383F00
FC7FC0
FC7FE0
0001C0
0000C0
0000C0
0000C0
0000C0
ENDCHAR
STARTCHAR 04B3
ENCODING 1203
SWIDTH 540 0
DWIDTH 15 0
BBX 15 18 1 -5
BITMAP
FE7C
FE7C
7E30
3E60
1FE0
0FC0
0FC0
0FC0
1BE0
39F0
31F0
FBFE
FBFE
000E
000E
000E
000E
000E
ENDCHAR
STARTCHAR 04B4
ENCODING 1204
SWIDTH 1008 0
DWIDTH 28 0
BBX 27 24 1 -5
BITMAP
FFFE7F80
FFFE7F80
E3CE3E00
C3C61E00
C3C61E00
03C01E00
03C01E00
03C01E00
03C01E00
03C01E00
03C01E00
03C01E00
03C01E00
03C01E00
03C01E00
03C01E00
03E03E00
0FFFFFC0
0FFFFFE0
000001E0
000000C0
000000C0
000000C0
000000C0
ENDCHAR
STARTCHAR 04B5
ENCODING 1205
SWIDTH 828 0
DWIDTH 23 0
BBX 23 18 0 -5
BITMAP
7FFBF8
7FFBF8
63D9F0
E3CCF0
03C0F0
03C0F0
03C0F0
03C0F0
03C0F0
03C0F0
07C0F0
0FFFFE
0FFFFE
00000E
00000E
00000E
00000E
00000E
ENDCHAR
STARTCHAR 04B6
ENCODING 1206
SWIDTH 756 0
DWIDTH 21 0
BBX 20 24 1 -5
BITMAP
FF3FC0
FF3FC0
3C0F80
3C0F00
3C0F00
3C0F00
3C0F00
3C0F00
3E0F00
1F0F00
0FFF00
03EF00
000F00
000F00
000F00
000F00
000F80
007FE0
007FF0
000070
000070
000070
000070
000070
ENDCHAR
STARTCHAR 04B7
ENCODING 1207
SWIDTH 612 0
DWIDTH 17 0
BBX 17 18 0 -5
BITMAP
FE7F00
FE7E00
3C3C00
3C3C00
3C3C00
3C3C00
3E3C00
1FFC00
023C00
003C00
003C00
00FF80
00FF80
000380
000380
000380
000380
000380
ENDCHAR
STARTCHAR 04B8
ENCODING 1208
SWIDTH 756 0
DWIDTH 21 0
BBX 19 19 1 0
BITMAP
FF1FE0
FF1FE0
3C07C0
3C0780
3C0780
3C6780
3C6780
3E6780
1E6780
1FFF80
07FF80
006780
006780
006780
006780
000780
0007C0
003FE0
003FE0
ENDCHAR
STARTCHAR 04B9
ENCODING 1209
SWIDTH 648 0
DWIDTH 18 0
BBX 17 13 0 0
BITMAP
FF3F80
7E3F80
3C1F00
3C8F00
3CCF00
3ECF00
1FFF00
0FEF00
00CF00
00CF00
000F00
007F80
007F80
ENDCHAR
STARTCHAR 04BA
ENCODING 1210
SWIDTH 720 0
DWIDTH 20 0
BBX 19 19 1 0
BITMAP
FF8000
FF8000
3E0000
3C0000
3C0000
3C0000
3C0000
3C2000
3FFE00
3F7E00
3C0F00
3C0F00
3C0F00
3C0F80
3C0F80
3C0F80
3E0F80
FF1FC0
FF1FE0
ENDCHAR
STARTCHAR 04BB
ENCODING 1211
SWIDTH 648 0
DWIDTH 18 0
BBX 16 20 1 0
BITMAP
0800
FC00
FC00
3C00
3C00
3C00
3C00
3CF0
3DFC
3FFC
3C3C
3C1E
3C1E
3C1E
3C1E
3C1E
3C1E
3C3E
FE7F
FF7F
ENDCHAR
STARTCHAR 04BC
ENCODING 1212
SWIDTH 792 0
DWIDTH 22 0
BBX 21 19 1 0
BITMAP
003F00
00FFC0
01E1E0
03C0E0
7380F0
E780F0
E78078
EF8078
FFFFF8
3FFFF8
0F8000
0F8000
078000
078000
07C000
03E018
03F070
00FFE0
007F80
ENDCHAR
STARTCHAR 04BD
ENCODING 1213
SWIDTH 648 0
DWIDTH 18 0
BBX 16 13 1 0
BITMAP
00F8
03FE
778E
E70F
EF0F
FF07
7FFF
0F00
0F00
0F80
07C1
03FF
01FC
ENDCHAR
STARTCHAR 04BE
ENCODING 1214
SWIDTH 792 0
DWIDTH 22 0
BBX 21 24 1 -5
BITMAP
003F00
00FFC0
01E1E0
03C0E0
7380F0
E780F0
E78078
EF8078
FFFFF8
3FFFF8
0F8000
0F8000
078000
078000
07C000
03E018
01F070
00FFE0
007F80
000E00
000E00
000E00
000E00
000E00
ENDCHAR
STARTCHAR 04BF
ENCODING 1215
SWIDTH 648 0
DWIDTH 18 0
BBX 16 18 1 -5
BITMAP
00F8
03FE
778E
E70F
EF0F
FF07
7FFF
0F00
0F00
0F80
07C1
03FF
01FC
0070
0030
0030
0030
0030
ENDCHAR
STARTCHAR 04C0
ENCODING 1216
SWIDTH 360 0
DWIDTH 10 0
BBX 8 19 1 0
BITMAP
FF
FF
3E
3C
3C
3C
3C
3C
3C
3C
3C
3C
3C
3C
3C
3C
3E
FF
FF
ENDCHAR
STARTCHAR 04C1
ENCODING 1217
SWIDTH 1008 0
DWIDTH 28 0
BBX 29 25 0 0
BITMAP
00707000
00707000
00787000
003FE000
000F8000
00000000
7F1FC7F0
7F1FC7F0
0E0F8380
060F8300
030F8600
018F8C00
01CF9800
00EFB800
00EFB800
01FFFC00
03EFBE00
03CFBE00
07CF9F00
078F8F00
0F8F8F80
1F0F87C0
3F0F87E0
FE1FC3F8
FE1FC3F8
ENDCHAR
STARTCHAR 04C2
ENCODING 1218
SWIDTH 864 0
DWIDTH 24 0
BBX 24 19 0 0
BITMAP
03C1C0
01C1C0
01E380
00FF00
001800
000000
7E7F7E
7E7F7E
1C3C38
063C30
073C60
03BCC0
03BDC0
07FDE0
0FBCF0
0F3CF8
1E3C7C
FE7F3F
7C7F3F
ENDCHAR
STARTCHAR 04C3
ENCODING 1219
SWIDTH 684 0
DWIDTH 19 0
BBX 18 26 1 -7
BITMAP
FF0780
FF0F80
3E1F80
3C1980
3C3180
3C3000
3C6000
3CC000
3FC000
3FF800
3C7E00
3C1F00
3C0F80
3C0780
3C0780
3C07C0
3E07C0
FF0780
FF0780
000780
000700
000F00
001E00
003C00
007800
002000
ENDCHAR
STARTCHAR 04C4
ENCODING 1220
SWIDTH 576 0
DWIDTH 16 0
BBX 14 20 1 -7
BITMAP
FE3C
FE7C
7C7C
3CCC
3D80
3F00
3FE0
3CF8
3C78
3C3C
7C3C
FE3C
FE3C
003C
003C
0038
0078
00F0
01C0
0180
ENDCHAR
STARTCHAR 04C5
ENCODING 1221
SWIDTH 720 0
DWIDTH 20 0
BBX 20 24 0 -5
BITMAP
0FFFC0
0FFFC0
030F80
030F00
030F00
030F00
030F00
030F00
030F00
020F00
020F00
060F00
060F00
060F00
0E0F00
7C0F00
FC0F80
FC3FE0
783FF0
0000F0
0000E0
0001C0
0001C0
000180
ENDCHAR
STARTCHAR 04C6
ENCODING 1222
SWIDTH 612 0
DWIDTH 17 0
BBX 17 18 0 -5
BITMAP
1FFE00
1FFE00
063C00
063C00
063C00
043C00
043C00
0C3C00
0C3C00
1C3C00
F83C00
F8FF00
F0FF80
000700
000700
000E00
000E00
000C00
ENDCHAR
STARTCHAR 04C7
ENCODING 1223
SWIDTH 756 0
DWIDTH 21 0
BBX 19 26 1 -7
BITMAP
FF1FE0
FF1FE0
3E07C0
3C0780
3C0780
3C0780
3C0780
3C0780
3FFF80
3FFF80
3C0780
3C0780
3C0780
3C0780
3C0780
3C0780
3E0780
FF0780
FF0780
000780
000780
000700
000F00
001E00
001C00
001000
ENDCHAR
STARTCHAR 04C8
ENCODING 1224
SWIDTH 612 0
DWIDTH 17 0
BBX 16 20 1 -7
BITMAP
FE7F
FE7F
7C3E
3C3C
3C3C
3C3C
3FFC
3C3C
3C3C
3C3C
7C3C
FE3C
FE3C
003C
003C
0038
0078
0070
00E0
00C0
ENDCHAR
STARTCHAR 04C9
ENCODING 1225
SWIDTH 792 0
DWIDTH 22 0
BBX 21 24 1 -5
BITMAP
FF1FE0
FF1FE0
3E07C0
3C0780
3C0780
3C0780
3C0780
3C0780
3FFF80
3FFF80
3C0780
3C0780
3C0780
3C0780
3C0780
3C0780
3E07C0
FF1FF0
FF1FF8
000078
000070
0000F0
0000E0
0000C0
ENDCHAR
STARTCHAR 04CA
ENCODING 1226
SWIDTH 684 0
DWIDTH 19 0
BBX 17 18 1 -5
BITMAP
FE7F00
FE7F00
7C3E00
3C1C00
3C1C00
3C1C00
3FFC00
3C1C00
3C1C00
3C1C00
7C3E00
FE7F80
FE7F80
000380
000380
000700
000600
000600
ENDCHAR
STARTCHAR 04CB
ENCODING 1227
SWIDTH 720 0
DWIDTH 20 0
BBX 18 24 1 -5
BITMAP
FF3FC0
FF3FC0
3C0F80
3C0F00
3C0F00
3C0F00
3C0F00
3C0F00
3E0F00
1F0F00
0FFF00
03EF00
000F00
000F00
000F00
000F00
000F80
007FC0
00FFC0
00E000
00E000
00E000
006000
006000
ENDCHAR
STARTCHAR 04CC
ENCODING 1228
SWIDTH 576 0
DWIDTH 16 0
BBX 16 18 0 -5
BITMAP
FE7F
FE7E
3C3C
3C3C
3C3C
3C3C
3E3C
1FFC
023C
003C
003C
01FE
01FF
01C0
01C0
01C0
0180
0180
ENDCHAR
STARTCHAR 04CD
ENCODING 1229
SWIDTH 1008 0
DWIDTH 28 0
BBX 27 24 1 -5
BITMAP
7E003F00
7F007F00
1F007C00
1F007C00
1F80FC00
1F80FC00
1FC0BC00
13C1BC00
13E1BC00
33E33E00
31E33E00
31F21E00
30F61E00
30FE1E00
307C1E00
307C1E00
70381F00
FC387FC0
FC387FE0
000001C0
000001C0
00000380
00000780
00000300
ENDCHAR
STARTCHAR 04CE
ENCODING 1230
SWIDTH 756 0
DWIDTH 21 0
BBX 20 18 1 -5
BITMAP
FC07C0
7E0FC0
3E0F80
3F1F80
3F1F80
2F9780
27B780
27A780
23E780
63C3C0
61C3C0
F1CFF0
F98FF0
000070
000070
0000E0
0000C0
0000C0
ENDCHAR
STARTCHAR 04CF
ENCODING 1231
SWIDTH 324 0
DWIDTH 9 0
BBX 8 20 1 0
BITMAP
08
FC
FC
3C
3C
3C
3C
3C
3C
3C
3C
3C
3C
3C
3C
3C
3C
3C
FF
FF
ENDCHAR
STARTCHAR 04D0
ENCODING 1232
SWIDTH 684 0
DWIDTH 19 0
BBX 19 25 0 0
BITMAP
060C00
0E0E00
0F0E00
07FC00
01F000
000000
006000
00E000
00F000
01F000
01F000
01F800
037800
037C00
063C00
063E00
041E00
0C1F00
0FFF00
1FFF00
180F80
300780
3007C0
7C0FE0
FC1FE0
ENDCHAR
STARTCHAR 04D1
ENCODING 1233
SWIDTH 540 0
DWIDTH 15 0
BBX 13 19 2 0
BITMAP
E1C0
E1C0
7380
7F80
0C00
0000
0F80
3FC0
73E0
F1E0
F1E0
03E0
0FE0
39E0
F1E0
F1E0
F1F0
FFF8
7DF0
ENDCHAR
STARTCHAR 04D2
ENCODING 1234
SWIDTH 684 0
DWIDTH 19 0
BBX 19 24 0 0
BITMAP
071C00
0F9E00
0F1E00
071C00
000000
006000
00E000
00F000
01F000
01F000
01F800
037800
037C00
063C00
063E00
041E00
0C1F00
0FFF00
1FFF00
180F80
300780
3007C0
7C0FE0
FC1FE0
ENDCHAR
STARTCHAR 04D3
ENCODING 1235
SWIDTH 540 0
DWIDTH 15 0
BBX 13 18 2 0
BITMAP
F3C0
F3C0
F3C0
6080
0000
0F80
3FC0
73E0
F1E0
F1E0
03E0
0FE0
39E0
F1E0
F1E0
F1F0
FFF8
7DF0
ENDCHAR
STARTCHAR 04D4
ENCODING 1236
SWIDTH 936 0
DWIDTH 26 0
BBX 26 19 0 0
BITMAP
00FFFF00
007FFF00
003F8700
00378380
00378180
00678000
00C78000
00C78C00
01878C00
01FFFC00
03FFFC00
07078C00
06078C00
0C078000
0C0781C0
180781C0
38078380
7E1FFF80
FE1FFF80
ENDCHAR
STARTCHAR 04D5
ENCODING 1237
SWIDTH 720 0
DWIDTH 20 0
BBX 18 13 1 0
BITMAP
3F1E00
7FFF80
71F380
71E3C0
21E1C0
01FFC0
1FFFC0
79E000
F1E000
F1F000
F3F0C0
FF7FC0
7C3F80
ENDCHAR
STARTCHAR 04D6
ENCODING 1238
SWIDTH 612 0
DWIDTH 17 0
BBX 16 25 1 0
BITMAP
1830
3838
3C38
1FF0
07C0
0000
FFFC
FFFC
3C1C
3C0C
3C0E
3C00
3C10
3C30
3C70
3FF0
3CF0
3C30
3C30
3C00
3C07
3C06
3E0E
FFFE
FFFE
ENDCHAR
STARTCHAR 04D7
ENCODING 1239
SWIDTH 504 0
DWIDTH 14 0
BBX 12 19 1 0
BITMAP
70E0
70E0
39C0
3FC0
0600
0000
0F80
3FE0
78E0
70F0
F0F0
F0F0
FFF0
F000
F000
F800
7C30
3FF0
1FC0
ENDCHAR
STARTCHAR 04D8
ENCODING 1240
SWIDTH 648 0
DWIDTH 18 0
BBX 17 19 1 0
BITMAP
1FE000
7FF800
703C00
701E00
601F00
200F00
000F00
000F80
000F80
FFFF80
FFFF80
F00F00
F00F00
F00F00
780E00
781E00
3C1C00
1FF800
0FE000
ENDCHAR
STARTCHAR 04D9
ENCODING 1241
SWIDTH 504 0
DWIDTH 14 0
BBX 12 13 1 0
BITMAP
3F80
FFC0
E1E0
E0F0
60F0
00F0
FFF0
FFF0
F0F0
F0F0
71E0
7FC0
1F80
ENDCHAR
STARTCHAR 04DA
ENCODING 1242
SWIDTH 648 0
DWIDTH 18 0
BBX 17 24 1 0
BITMAP
0E3800
1E7C00
1E7800
0C3800
000000
1FE000
7FF800
703C00
701E00
601F00
200F00
000F00
000F80
000F80
FFFF80
FFFF80
F00F00
F00F00
F00F00
780E00
781E00
3C1C00
1FF800
0FE000
ENDCHAR
STARTCHAR 04DB
ENCODING 1243
SWIDTH 504 0
DWIDTH 14 0
BBX 12 18 1 0
BITMAP
79E0
79E0
79E0
30C0
0000
3F80
FFC0
E1E0
E0F0
60F0
00F0
FFF0
FFF0
F0F0
F0F0
71E0
7FC0
1F80
ENDCHAR
STARTCHAR 04DC
ENCODING 1244
SWIDTH 1008 0
DWIDTH 28 0
BBX 29 24 0 0
BITMAP
0038E000
0079F000
0078F000
0038E000
00000000
7F1FC7F0
7F1FC7F0
0E0F8380
060F8300
030F8600
018F8C00
01CF9800
00EFB800
00EFB800
01FFFC00
03EFBE00
03CFBE00
07CF9F00
078F8F00
0F8F8F80
1F0F87C0
3F0F87E0
FE1FC3F8
FE1FC3F8
ENDCHAR
STARTCHAR 04DD
ENCODING 1245
SWIDTH 864 0
DWIDTH 24 0
BBX 24 18 0 0
BITMAP
01E380
01E7C0
01E780
00C100
000000
7E7F7E
7E7F7E
1C3C38
063C30
073C60
03BCC0
03BDC0
07FDE0
0FBCF0
0F3CF8
1E3C7C
FE7F3F
7C7F3F
ENDCHAR
STARTCHAR 04DE
ENCODING 1246
SWIDTH 576 0
DWIDTH 16 0
BBX 14 24 1 0
BITMAP
38F0
3CF0
3CF0
3860
0000
1FC0
7FF0
70F8
7078
6078
0078
0078
00F0
07C0
0FF0
01F8
007C
003C
603C
603C
703C
F078
FFF0
3FE0
ENDCHAR
STARTCHAR 04DF
ENCODING 1247
SWIDTH 468 0
DWIDTH 13 0
BBX 12 18 1 0
BITMAP
71E0
79E0
79E0
20C0
0000
3F80
FFE0
E1E0
E1E0
61E0
0FC0
1FC0
07E0
01F0
E1F0
E1E0
F3E0
FF80
ENDCHAR
STARTCHAR 04E0
ENCODING 1248
SWIDTH 540 0
DWIDTH 15 0
BBX 14 19 1 0
BITMAP
7FF8
7FF8
7FF0
7FF0
7060
60C0
0180
0300
07C0
0FF0
07F8
00F8
007C
207C
607C
6078
F078
FFF0
3FC0
ENDCHAR
STARTCHAR 04E1
ENCODING 1249
SWIDTH 468 0
DWIDTH 13 0
BBX 12 20 1 -7
BITMAP
7FE0
7FE0
7FE0
78C0
61C0
E180
0300
0700
0F00
1FC0
0FE0
03E0
01F0
00F0
40F0
60F0
E0E0
E1E0
FFC0
3F00
ENDCHAR
STARTCHAR 04E2
ENCODING 1250
SWIDTH 756 0
DWIDTH 21 0
BBX 19 23 1 0
BITMAP
07FE00
07FE00
000000
000000
FF03E0
FF07E0
3E07C0
3C0F80
3C0F80
3C1F80
3C3780
3C3780
3C6780
3C6780
3CC780
3CC780
3D8780
3D8780
3F0780
3F0780
3E07C0
FE1FE0
FC1FE0
ENDCHAR
STARTCHAR 04E3
ENCODING 1251
SWIDTH 612 0
DWIDTH 17 0
BBX 16 18 1 0
BITMAP
1FF8
1FF8
0000
0000
0000
FE1F
FE3F
7C3E
387C
38FC
38FC
39BC
3B3C
3B3C
3E3C
7C3C
FC7F
F87F
ENDCHAR
STARTCHAR 04E4
ENCODING 1252
SWIDTH 756 0
DWIDTH 21 0
BBX 19 24 1 0
BITMAP
071E00
079E00
079E00
070C00
000000
FF03E0
FF07E0
3E07C0
3C0F80
3C0F80
3C1F80
3C3780
3C3780
3C6780
3C6780
3CC780
3CC780
3D8780
3D8780
3F0780
3F0780
3E07C0
FE1FE0
FC1FE0
ENDCHAR
STARTCHAR 04E5
ENCODING 1253
SWIDTH 612 0
DWIDTH 17 0
BBX 16 18 1 0
BITMAP
1E78
1E78
1E78
0830
0000
FE1F
FE3F
7C3E
387C
38FC
38FC
39BC
3B3C
3B3C
3E3C
7C3C
FC7F
F87F
ENDCHAR
STARTCHAR 04E6
ENCODING 1254
SWIDTH 720 0
DWIDTH 20 0
BBX 19 24 1 0
BITMAP
071C00
0F3E00
0F3E00
061C00
000000
03F800
0FFE00
1E1F00
3C0F80
7807C0
7803C0
F003C0
F003E0
F003E0
F003E0
F003E0
F803E0
F803C0
7803C0
7803C0
3C0780
3E0F00
0FFE00
07F800
ENDCHAR
STARTCHAR 04E7
ENCODING 1255
SWIDTH 540 0
DWIDTH 15 0
BBX 14 18 1 0
BITMAP
38F0
3CF0
3CF0
1060
0000
0FC0
3FF0
78F8
7078
F07C
F03C
F03C
F03C
F03C
F878
7878
3FF0
1FC0
ENDCHAR
STARTCHAR 04E8
ENCODING 1256
SWIDTH 720 0
DWIDTH 20 0
BBX 19 19 1 0
BITMAP
03F800
0FFE00
1E1F00
3C0F80
7807C0
7803C0
F003C0
F003E0
FFFFE0
FFFFE0
F003E0
F803E0
F803C0
7803C0
7803C0
3C0780
3E0F00
0FFE00
07F800
ENDCHAR
STARTCHAR 04E9
ENCODING 1257
SWIDTH 540 0
DWIDTH 15 0
BBX 14 13 1 0
BITMAP
0FC0
3FF0
78F8
7078
F07C
F03C
FFFC
FC3C
F03C
F878
7878
3FF0
1FC0
ENDCHAR
STARTCHAR 04EA
ENCODING 1258
SWIDTH 720 0
DWIDTH 20 0
BBX 19 24 1 0
BITMAP
071C00
0F3E00
0F3E00
061C00
000000
03F800
0FFE00
1E1F00
3C0F80
7807C0
7803C0
F003C0
F003E0
FFFFE0
FFFFE0
F003E0
F803E0
F803C0
7803C0
7803C0
3C0780
3E0F00
0FFE00
07F800
ENDCHAR
STARTCHAR 04EB
ENCODING 1259
SWIDTH 540 0
DWIDTH 15 0
BBX 14 18 1 0
BITMAP
38F0
3CF0
3CF0
1060
0000
0FC0
3FF0
78F8
7078
F07C
F03C
FFFC
FC3C
F03C
F878
7878
3FF0
1FC0
ENDCHAR
STARTCHAR 04EC
ENCODING 1260
SWIDTH 612 0
DWIDTH 17 0
BBX 16 24 1 0
BITMAP
38F0
3CF0
3CF0
3860
0000
1FC0
7FF0
707C
603C
603E
601E
001F
001F
001F
0FFF
0FFF
001F
001E
201E
E01E
E03C
7078
FDF0
3FE0
ENDCHAR
STARTCHAR 04ED
ENCODING 1261
SWIDTH 468 0
DWIDTH 13 0
BBX 12 18 0 0
BITMAP
71C0
F3E0
F1E0
20C0
0000
3F00
7FC0
71E0
61F0
00F0
00F0
1FF0
1EF0
00F0
60F0
61E0
7FC0
3F80
ENDCHAR
STARTCHAR 04EE
ENCODING 1262
SWIDTH 648 0
DWIDTH 18 0
BBX 18 23 0 0
BITMAP
07FF00
07FF00
000000
000000
FF07C0
7F07C0
3E0380
1E0380
1F0300
0F0200
078600
07C400
03CC00
03E800
01F800
01F800
00F000
007000
006000
00E000
1FC000
1F8000
1F0000
ENDCHAR
STARTCHAR 04EF
ENCODING 1263
SWIDTH 540 0
DWIDTH 15 0
BBX 15 25 0 -7
BITMAP
0FFC
0FFC
0000
0000
0000
FF3E
FF3E
3E1C
3E18
1E18
1F10
0F30
0FB0
07E0
07E0
03C0
03C0
0380
0180
0180
0300
6F00
7E00
7C00
3800
ENDCHAR
STARTCHAR 04F0
ENCODING 1264
SWIDTH 648 0
DWIDTH 18 0
BBX 18 24 0 0
BITMAP
038E00
079F00
078F00
038E00
000000
FF07C0
7F07C0
3E0380
1E0380
1F0300
0F0200
078600
07C400
03CC00
03E800
01F800
01F800
00F000
007000
006000
00E000
1FC000
1F8000
1F0000
ENDCHAR
STARTCHAR 04F1
ENCODING 1265
SWIDTH 540 0
DWIDTH 15 0
BBX 15 25 0 -7
BITMAP
0F3C
0F3C
0F3C
0618
0000
FF3E
FF3E
3E1C
3E18
1E18
1F10
0F30
0FB0
07E0
07E0
03C0
03C0
0380
0180
0180
0300
6F00
7E00
7C00
3800
ENDCHAR
STARTCHAR 04F2
ENCODING 1266
SWIDTH 648 0
DWIDTH 18 0
BBX 18 24 0 1
BITMAP
00E700
01CE00
018C00
008400
000000
FF07C0
7F07C0
3E0380
1E0380
1F0300
0F0200
078600
07C400
03CC00
03E800
01F800
01F800
00F000
007000
006000
00E000
1FC000
1F8000
1F0000
ENDCHAR
STARTCHAR 04F3
ENCODING 1267
SWIDTH 540 0
DWIDTH 15 0
BBX 15 27 0 -7
BITMAP
01CE
039C
039C
0318
0630
0000
0000
FF3E
FF3E
3E1C
3E18
1E18
1F10
0F30
0FB0
07E0
07E0
03C0
03C0
0380
0180
0180
0300
6F00
7E00
7C00
3800
ENDCHAR
STARTCHAR 04F4
ENCODING 1268
SWIDTH 720 0
DWIDTH 20 0
BBX 18 24 1 0
BITMAP
0F1C00
0F3C00
0F3C00
061800
000000
FF3FC0
FF3FC0
3C0F80
3C0F00
3C0F00
3C0F00
3C0F00
3C0F00
3E0F00
1F0F00
0FFF00
03EF00
000F00
000F00
000F00
000F00
000F80
007FC0
007FC0
ENDCHAR
STARTCHAR 04F5
ENCODING 1269
SWIDTH 576 0
DWIDTH 16 0
BBX 16 18 0 0
BITMAP
1E78
1E78
1E78
0830
0000
FE7F
FE7E
3C3C
3C3C
3C3C
3C3C
3E3C
1FFC
023C
003C
003C
00FE
00FF
ENDCHAR
STARTCHAR 04F6
ENCODING 1270
SWIDTH 576 0
DWIDTH 16 0
BBX 14 24 1 -5
BITMAP
FFFC
FFFC
3C1C
3C0C
3C0C
3C00
3C00
3C00
3C00
3C00
3C00
3C00
3C00
3C00
3C00
3C00
3E00
FFC0
FFC0
01C0
01C0
01C0
01C0
01C0
ENDCHAR
STARTCHAR 04F7
ENCODING 1271
SWIDTH 468 0
DWIDTH 13 0
BBX 12 18 1 -5
BITMAP
FFF0
FFF0
7C70
3C30
3C30
3C00
3C00
3C00
3C00
3C00
7C00
FF80
FF80
0380
0380
0380
0380
0380
ENDCHAR
STARTCHAR 04F8
ENCODING 1272
SWIDTH 936 0
DWIDTH 26 0
BBX 24 24 1 0
BITMAP
00E380
01F3C0
01F3C0
00E180
000000
FF80FF
FF80FF
3E007C
3E003C
3C003C
3C003C
3C003C
3C003C
3FE03C
3FFC3C
3C7E3C
3C3E3C
3C1E3C
3C1E3C
3C1E3C
3C1E3C
3E3E3C
FFFCFF
FFF0FF
ENDCHAR
STARTCHAR 04F9
ENCODING 1273
SWIDTH 828 0
DWIDTH 23 0
BBX 21 18 1 0
BITMAP
038F00
07CF00
038F00
010400
000000
FF03F8
FF03F8
7C01F0
3C00F0
3C00F0
3FE0F0
3FF0F0
3CF8F0
3C78F0
3C78F0
7C79F0
FFFBF8
FFE3F8
ENDCHAR
STARTCHAR 04FA
ENCODING 1274
SWIDTH 576 0
DWIDTH 16 0
BBX 15 26 0 -7
BITMAP
7FFE
7FFE
1E0E
1E06
1E06
1E00
1E00
1E00
1E00
FFF0
FFF0
1E00
1E00
1E00
1E00
1E00
1F00
7FE0
7FF0
00F0
00F0
00F0
01E0
03C0
0780
0600
ENDCHAR
STARTCHAR 04FB
ENCODING 1275
SWIDTH 468 0
DWIDTH 13 0
BBX 13 20 0 -7
BITMAP
7FF8
7FF8
3E38
1E18
1E18
1E00
FFC0
FFC0
1E00
1E00
3E00
7FC0
7FE0
01E0
01E0
01C0
03C0
0780
0F00
0C00
ENDCHAR
STARTCHAR 04FC
ENCODING 1276
SWIDTH 684 0
DWIDTH 19 0
BBX 17 26 1 -7
BITMAP
FF1F80
FF1F80
7E0E00
3E0C00
1F0C00
0F9800
07F000
07F000
03E000
01F000
03F800
03F800
067C00
0C3E00
0C1F00
181F00
380F80
FC0780
FE0780
000380
000380
000780
000700
000F00
001C00
001800
ENDCHAR
STARTCHAR 04FD
ENCODING 1277
SWIDTH 540 0
DWIDTH 15 0
BBX 14 20 1 -7
BITMAP
FE7C
FE7C
7C30
3E60
1FC0
0FC0
07C0
0FC0
0FE0
19F0
30F8
FC78
FC3C
003C
003C
003C
0038
0038
0070
0040
ENDCHAR
STARTCHAR 04FE
ENCODING 1278
SWIDTH 684 0
DWIDTH 19 0
BBX 18 19 1 0
BITMAP
FF9F80
FF1F80
3E0F00
3F0E00
1F0C00
0F9800
0F9800
07F000
03E000
7FFF80
7FFF00
03F800
06F800
0C7C00
0C7C00
183E00
383F00
FC7F80
FC7FC0
ENDCHAR
STARTCHAR 04FF
ENCODING 1279
SWIDTH 540 0
DWIDTH 15 0
BBX 14 13 1 0
BITMAP
FE7C
FE7C
7E30
3E60
1FE0
0FC0
FFF8
0FC0
1BE0
39F0
31F0
FBFC
FBFC
ENDCHAR
STARTCHAR 0510
ENCODING 1296
SWIDTH 576 0
DWIDTH 16 0
BBX 14 19 1 0
BITMAP
0FE0
3FF8
3C38
7838
7818
7800
7C00
3E00
1FC0
0FC0
3E00
7800
F800
F80C
F81C
F81C
783C
3FFC
1FF0
ENDCHAR
STARTCHAR 0511
ENCODING 1297
SWIDTH 468 0
DWIDTH 13 0
BBX 11 13 1 0
BITMAP
1FC0
7FE0
7860
F060
7800
7E00
0F00
7E00
F000
F060
F060
7FE0
3FE0
ENDCHAR
STARTCHAR 0512
ENCODING 1298
SWIDTH 684 0
DWIDTH 19 0
BBX 18 26 0 -7
BITMAP
0FFFC0
0FFFC0
030F80
030F00
030F00
030F00
030F00
030F00
030F00
020F00
020F00
060F00
060F00
060F00
0E0F00
7C0F00
FC0F00
FC0F00
780F00
000F00
000F00
000E00
001E00
003C00
003800
002000
ENDCHAR
STARTCHAR 0513
ENCODING 1299
SWIDTH 576 0
DWIDTH 16 0
BBX 16 20 0 -7
BITMAP
1FFF
1FFF
063C
063C
063C
063C
063C
043C
0C3C
0C3C
FC3C
F83C
F03C
003C
0038
0038
0070
00F0
00E0
0080
ENDCHAR
STARTCHAR 051A
ENCODING 1306
SWIDTH 720 0
DWIDTH 20 0
BBX 21 24 1 -6
BITMAP
03F800
0FFE00
1E1F00
3C0F80
7807C0
7803C0
F003C0
F003E0
F003E0
F003E0
F003E0
F803E0
F803C0
7803C0
7803C0
3C0780
3E0F00
0FFE00
07F800
003E00
000F80
0007E0
0007F8
0003F0
ENDCHAR
STARTCHAR 051B
ENCODING 1307
SWIDTH 576 0
DWIDTH 16 0
BBX 16 20 1 -7
BITMAP
07E0
1FF8
387C
783C
F03C
F03C
F03C
F03C
F03C
F83C
783C
7FFC
1F3C
003C
003C
003C
007C
007C
01FE
01FF
ENDCHAR
STARTCHAR 051C
ENCODING 1308
SWIDTH 972 0
DWIDTH 27 0
BBX 27 19 0 0
BITMAP
FF8307E0
7F0307E0
3E0781C0
3E078180
1E0F8180
1E0FC180
1F0FC100
0F1BE300
0F1BE300
0F99E200
0FB1F600
07B0F600
07F0F600
07E0FC00
03E07C00
03E07C00
03C07800
01C03800
01803800
ENDCHAR
STARTCHAR 051D
ENCODING 1309
SWIDTH 756 0
DWIDTH 21 0
BBX 21 13 0 0
BITMAP
FF18F8
FF1CF8
3C3C30
3C3C30
1E3E20
1E7E60
1E6F60
0FCF40
0FCFC0
0F87C0
078780
078380
070380
ENDCHAR
STARTCHAR 0524
ENCODING 1316
SWIDTH 792 0
DWIDTH 22 0
BBX 21 24 1 -5
BITMAP
FFFFE0
FFFFE0
3C0780
3C0780
3C0780
3C0780
3C0780
3C0780
3C0780
3C0780
3C0780
3C0780
3C0780
3C0780
3C0780
3C0780
3E0780
FF1FF0
FF1FF8
000078
000038
000030
000030
000030
ENDCHAR
STARTCHAR 0525
ENCODING 1317
SWIDTH 648 0
DWIDTH 18 0
BBX 17 18 1 -5
BITMAP
FFFF00
FFFF00
7C3E00
3C3C00
3C3C00
3C3C00
3C3C00
3C3C00
3C3C00
3C3C00
7C3C00
FE7F80
FE7F80
000380
000380
000180
000180
000180
ENDCHAR
STARTCHAR 0526
ENCODING 1318
SWIDTH 756 0
DWIDTH 21 0
BBX 20 24 1 -5
BITMAP
FF8000
FF8000
3E0000
3C0000
3C0000
3C0000
3C0000
3C2000
3FFE00
3F7E00
3C0F00
3C0F00
3C0F00
3C0F80
3C0F80
3C0F80
3E0F80
FF1FF0
FF1FF0
000070
000070
000070
000070
000070
ENDCHAR
STARTCHAR 0527
ENCODING 1319
SWIDTH 684 0
DWIDTH 19 0
BBX 18 25 1 -5
BITMAP
080000
FC0000
FC0000
3C0000
3C0000
3C0000
3C0000
3CF000
3DFC00
3FFC00
3C3C00
3C1E00
3C1E00
3C1E00
3C1E00
3C1E00
3C1E00
3C3E00
FE7F80
FF7FC0
0001C0
0001C0
000180
000180
000180
ENDCHAR
STARTCHAR 0528
ENCODING 1320
SWIDTH 756 0
DWIDTH 21 0
BBX 19 26 1 -7
BITMAP
FF1FE0
FF1FE0
3E07C0
3C0780
3C0780
3C0780
3C0780
3C0780
3FFF80
3FFF80
3C0780
3C0780
3C0780
3C0780
3C0780
3C0780
3C07C0
3C1FE0
3C1FE0
3C0000
3C0000
380000
780000
F00000
E00000
800000
ENDCHAR
STARTCHAR 0529
ENCODING 1321
SWIDTH 648 0
DWIDTH 18 0
BBX 17 20 0 -7
BITMAP
7FBF80
7F3F80
1E1F00
1E0F00
1E0F00
1E0F00
1FFF00
1E0F00
1E0F00
1E0F00
1E0F00
1E3F80
1E3F80
1E0000
1C0000
3C0000
380000
700000
E00000
400000
ENDCHAR
STARTCHAR 052E
ENCODING 1326
SWIDTH 756 0
DWIDTH 21 0
BBX 20 24 0 -5
BITMAP
0FFFC0
0FFFC0
030F80
030F00
030F00
030F00
030F00
030F00
030F00
020F00
020F00
060F00
060F00
060F00
0E0F00
7C0F00
FC0F80
FC3FF0
783FF0
000070
000070
000070
000070
000070
ENDCHAR
STARTCHAR 052F
ENCODING 1327
SWIDTH 612 0
DWIDTH 17 0
BBX 17 18 0 -5
BITMAP
1FFE00
1FFE00
063C00
063C00
063C00
043C00
043C00
0C3C00
0C3C00
1C3C00
F83C00
F8FF80
F0FF80
000380
000380
000380
000380
000380
ENDCHAR
STARTCHAR 058F
ENCODING 1423
SWIDTH 612 0
DWIDTH 17 0
BBX 15 19 1 0
BITMAP
1F80
3FE0
71E0
F0F0
F0F0
E0F0
80F0
00F0
0FFE
0FFE
00F0
00F0
0FFE
1FFE
00F0
00F0
00F8
07FC
07FC
ENDCHAR
STARTCHAR 1E08
ENCODING 7688
SWIDTH 612 0
DWIDTH 17 0
BBX 16 31 1 -7
BITMAP
0078
0070
00E0
0040
0000
03F8
0FFF
1E0E
3C06
7806
7806
F800
F000
F000
F000
F000
F800
F800
7800
7C00
3E00
3F03
0FFE
07F8
00C0
01C0
01E0
0060
0060
01E0
0180
ENDCHAR
STARTCHAR 1E09
ENCODING 7689
SWIDTH 432 0
DWIDTH 12 0
BBX 11 27 1 -7
BITMAP
01C0
01C0
0380
0300
0600
0000
0000
0FC0
3FE0
78E0
70E0
F060
F000
F000
F000
F000
F800
7C20
3FE0
1FC0
0600
0600
0780
0380
0180
0700
0600
ENDCHAR
STARTCHAR 1E0C
ENCODING 7692
SWIDTH 720 0
DWIDTH 20 0
BBX 18 25 1 -6
BITMAP
FFF000
FFFE00
3C1F00
3C0F80
3C07C0
3C07C0
3C03C0
3C03C0
3C03C0
3C03C0
3C03C0
3C03C0
3C03C0
3C03C0
3C0780
3C0780
3E0F00
FFFC00
FFF000
000000
000000
01C000
03C000
03E000
03C000
ENDCHAR
STARTCHAR 1E0D
ENCODING 7693
SWIDTH 576 0
DWIDTH 16 0
BBX 15 26 1 -6
BITMAP
0008
00FC
01FC
007C
003C
003C
003C
07FC
1FFC
387C
783C
F03C
F03C
F03C
F03C
F03C
F83C
7C3E
7FFE
3F38
0000
0000
0380
07C0
07C0
0780
ENDCHAR
STARTCHAR 1E0E
ENCODING 7694
SWIDTH 720 0
DWIDTH 20 0
BBX 18 23 1 -4
BITMAP
FFF000
FFFE00
3C1F00
3C0F80
3C07C0
3C07C0
3C03C0
3C03C0
3C03C0
3C03C0
3C03C0
3C03C0
3C03C0
3C03C0
3C0780
3C0780
3E0F00
FFFC00
FFF000
000000
000000
000000
1FF800
ENDCHAR
STARTCHAR 1E0F
ENCODING 7695
SWIDTH 576 0
DWIDTH 16 0
BBX 15 24 1 -4
BITMAP
0008
00FC
01FC
007C
003C
003C
003C
07FC
1FFC
387C
783C
F03C
F03C
F03C
F03C
F03C
F83C
7C3E
7FFE
3F38
0000
0000
0000
3FF8
ENDCHAR
STARTCHAR 1E10
ENCODING 7696
SWIDTH 720 0
DWIDTH 20 0
BBX 18 27 1 -8
BITMAP
FFF000
FFFE00
3C1F00
3C0F80
3C07C0
3C07C0
3C03C0
3C03C0
3C03C0
3C03C0
3C03C0
3C03C0
3C03C0
3C03C0
3C0780
3C0780
3E0F00
FFFC00
FFF000
000000
00C000
03C000
03C000
01C000
01C000
018000
030000
ENDCHAR
STARTCHAR 1E11
ENCODING 7697
SWIDTH 576 0
DWIDTH 16 0
BBX 15 28 1 -8
BITMAP
0008
00FC
01FC
007C
003C
003C
003C
07FC
1FFC
387C
783C
F03C
F03C
F03C
F03C
F03C
F83C
7C3E
7FFE
3F38
0000
0080
0780
07C0
0380
0180
0300
0700
ENDCHAR
STARTCHAR 1E14
ENCODING 7700
SWIDTH 612 0
DWIDTH 17 0
BBX 16 28 1 0
BITMAP
0E00
0700
0300
0100
0000
3FF8
3FF0
0000
0000
FFFC
FFFC
3C1C
3C0C
3C0E
3C00
3C10
3C30
3C70
3FF0
3CF0
3C30
3C30
3C00
3C07
3C06
3E0E
FFFE
FFFE
ENDCHAR
STARTCHAR 1E15
ENCODING 7701
SWIDTH 504 0
DWIDTH 14 0
BBX 12 22 1 0
BITMAP
1C00
0E00
0600
0200
0000
7FF0
7FE0
0000
0000
0F80
3FE0
78E0
70F0
F0F0
F0F0
FFF0
F000
F000
F800
7C30
3FF0
1FC0
ENDCHAR
STARTCHAR 1E16
ENCODING 7702
SWIDTH 612 0
DWIDTH 17 0
BBX 16 28 1 0
BITMAP
01E0
01C0
0380
0100
0000
3FF8
3FF0
0000
0000
FFFC
FFFC
3C1C
3C0C
3C0E
3C00
3C10
3C30
3C70
3FF0
3CF0
3C30
3C30
3C00
3C07
3C06
3E0E
FFFE
FFFE
ENDCHAR
STARTCHAR 1E17
ENCODING 7703
SWIDTH 504 0
DWIDTH 14 0
BBX 12 22 1 0
BITMAP
03C0
0380
0700
0600
0000
7FF0
7FE0
0000
0000
0F80
3FE0
78E0
70F0
F0F0
F0F0
FFF0
F000
F000
F800
7C30
3FF0
1FC0
ENDCHAR
STARTCHAR 1E1C
ENCODING 7708
SWIDTH 612 0
DWIDTH 17 0
BBX 16 31 1 -7
BITMAP
1830
1EF0
1FE0
07C0
0000
FFFC
FFFC
3C1C
3C0C
3C0E
3C00
3C10
3C30
3C70
3FF0
3CF0
3C30
3C30
3C00
3C07
3C06
3E0E
FFFE
FFFE
0100
0300
03C0
00C0
00C0
03C0
0300
ENDCHAR
STARTCHAR 1E1D
ENCODING 7709
SWIDTH 504 0
DWIDTH 14 0
BBX 12 27 1 -7
BITMAP
2030
7070
78E0
3FE0
1FC0
0200
0000
0F80
3FE0
78E0
70F0
F0F0
F0F0
FFF0
F000
F000
F800
7C30
3FF0
1FC0
0600
0600
0780
0380
0180
0700
0600
ENDCHAR
STARTCHAR 1E20
ENCODING 7712
SWIDTH 684 0
DWIDTH 19 0
BBX 18 23 1 0
BITMAP
07FE00
0FFE00
000000
000000
03FC00
0FFF00
1E0700
3C0700
780300
780300
F80000
F00000
F00000
F00000
F03FC0
F81F80
F80700
780700
7C0700
3C0700
3E0F00
1FFF00
07FC00
ENDCHAR
STARTCHAR 1E21
ENCODING 7713
SWIDTH 540 0
DWIDTH 15 0
BBX 13 25 1 -7
BITMAP
7FE0
7FE0
0000
0000
0000
1FF8
7FF8
78E0
F0F0
F0F0
F0F0
78F0
7FE0
3F80
7000
7000
7FF0
7FF8
3FF8
61F8
E038
E038
F070
FFE0
3F00
ENDCHAR
STARTCHAR 1E24
ENCODING 7716
SWIDTH 756 0
DWIDTH 21 0
BBX 19 25 1 -6
BITMAP
FF1FE0
FF1FE0
3E07C0
3C0780
3C0780
3C0780
3C0780
3C0780
3FFF80
3FFF80
3C0780
3C0780
3C0780
3C0780
3C0780
3C0780
3E07C0
FF1FE0
FF1FE0
000000
000000
006000
00F000
01F000
00F000
ENDCHAR
STARTCHAR 1E25
ENCODING 7717
SWIDTH 648 0
DWIDTH 18 0
BBX 16 26 1 -6
BITMAP
0800
FC00
FC00
3C00
3C00
3C00
3C00
3CF0
3DFC
3FFC
3C3C
3C1E
3C1E
3C1E
3C1E
3C1E
3C1E
3C3E
FE7F
FF7F
0000
0000
01C0
03C0
03E0
03C0
ENDCHAR
STARTCHAR 1E2A
ENCODING 7722
SWIDTH 756 0
DWIDTH 21 0
BBX 19 25 1 -6
BITMAP
FF1FE0
FF1FE0
3E07C0
3C0780
3C0780
3C0780
3C0780
3C0780
3FFF80
3FFF80
3C0780
3C0780
3C0780
3C0780
3C0780
3C0780
3E07C0
FF1FE0
FF1FE0
000000
020400
070C00
03FC00
03F800
00C000
ENDCHAR
STARTCHAR 1E2B
ENCODING 7723
SWIDTH 648 0
DWIDTH 18 0
BBX 16 26 1 -6
BITMAP
0800
FC00
FC00
3C00
3C00
3C00
3C00
3CF0
3DFC
3FFC
3C3C
3C1E
3C1E
3C1E
3C1E
3C1E
3C1E
3C3E
FE7F
FF7F
0000
0410
0C18
0FF0
07F0
0080
ENDCHAR
STARTCHAR 1E2E
ENCODING 7726
SWIDTH 360 0
DWIDTH 10 0
BBX 9 29 1 0
BITMAP
0F00
0E00
0C00
1800
0000
E300
F780
F780
E300
0000
FF00
FF00
3E00
3C00
3C00
3C00
3C00
3C00
3C00
3C00
3C00
3C00
3C00
3C00
3C00
3C00
3E00
FF00
FF00
ENDCHAR
STARTCHAR 1E2F
ENCODING 7727
SWIDTH 324 0
DWIDTH 9 0
BBX 9 23 0 0
BITMAP
0700
0700
0E00
0C00
0000
6100
F780
F780
7380
0000
0600
7E00
7E00
1E00
1E00
1E00
1E00
1E00
1E00
1E00
1E00
7F80
7F80
ENDCHAR
STARTCHAR 1E36
ENCODING 7734
SWIDTH 576 0
DWIDTH 16 0
BBX 15 25 1 -6
BITMAP
FF00
FF00
3E00
3C00
3C00
3C00
3C00
3C00
3C00
3C00
3C00
3C00
3C00
3C00
3C06
3C0E
3E0E
FFFE
FFFE
0000
0000
0380
07C0
07C0
0380
ENDCHAR
STARTCHAR 1E37
ENCODING 7735
SWIDTH 324 0
DWIDTH 9 0
BBX 8 26 1 -6
BITMAP
08
FC
FC
3C
3C
3C
3C
3C
3C
3C
3C
3C
3C
3C
3C
3C
3C
3C
FF
FF
00
00
38
7C
7C
3C
ENDCHAR
STARTCHAR 1E3A
ENCODING 7738
SWIDTH 576 0
DWIDTH 16 0
BBX 15 23 1 -4
BITMAP
FF00
FF00
3E00
3C00
3C00
3C00
3C00
3C00
3C00
3C00
3C00
3C00
3C00
3C00
3C06
3C0E
3E0E
FFFE
FFFE
0000
0000
0000
3FF8
ENDCHAR
STARTCHAR 1E3B
ENCODING 7739
SWIDTH 324 0
DWIDTH 9 0
BBX 9 25 0 -5
BITMAP
0400
7E00
7E00
1E00
1E00
1E00
1E00
1E00
1E00
1E00
1E00
1E00
1E00
1E00
1E00
1E00
1E00
1E00
7F80
7F80
0000
0000
0000
FF80
E000
ENDCHAR
STARTCHAR 1E42
ENCODING 7746
SWIDTH 936 0
DWIDTH 26 0
BBX 25 25 1 -6
BITMAP
7E003F00
7F007F00
1F007C00
1F007C00
1F80FC00
1F80FC00
1FC0BC00
13C1BC00
13E1BC00
33E33E00
31E33E00
31F21E00
30F61E00
30FE1E00
307C1E00
307C1E00
70381F00
FC387F80
FC387F80
00000000
00000000
00380000
007C0000
007C0000
00380000
ENDCHAR
STARTCHAR 1E43
ENCODING 7747
SWIDTH 936 0
DWIDTH 26 0
BBX 25 19 1 -6
BITMAP
0CF03800
FDFCFC00
FFFFFE00
3C3E1E00
3C1E1E00
3C1E1E00
3C1E1E00
3C1E1E00
3C1E1E00
3C1E1E00
3C3E1F00
FF7F3F80
FF7F3F80
00000000
00000000
001C0000
003E0000
003E0000
001C0000
ENDCHAR
STARTCHAR 1E44
ENCODING 7748
SWIDTH 720 0
DWIDTH 20 0
BBX 18 24 1 0
BITMAP
00E000
01E000
01F000
01E000
000000
FC0FC0
FC0FC0
3E0380
3F0300
3F8100
3F8100
37C100
33E100
33F100
31F100
30F900
307D00
307F00
303F00
301F00
300F00
300F00
FC0700
FC0300
ENDCHAR
STARTCHAR 1E45
ENCODING 7749
SWIDTH 648 0
DWIDTH 18 0
BBX 16 18 1 1
BITMAP
03C0
03E0
03C0
0000
0000
0C70
FDFC
FFFC
3C3E
3C1E
3C1E
3C1E
3C1E
3C1E
3C1E
3C1E
FF7F
FF7F
ENDCHAR
STARTCHAR 1E46
ENCODING 7750
SWIDTH 720 0
DWIDTH 20 0
BBX 18 25 1 -6
BITMAP
FC0FC0
FC0FC0
3E0380
3F0300
3F8100
3F8100
37C100
33E100
33F100
31F100
30F900
307D00
307F00
303F00
301F00
300F00
300F00
FC0700
FC0300
000000
000000
006000
00F000
00F000
00F000
ENDCHAR
STARTCHAR 1E47
ENCODING 7751
SWIDTH 648 0
DWIDTH 18 0
BBX 16 19 1 -6
BITMAP
0C70
FDFC
FFFC
3C3E
3C1E
3C1E
3C1E
3C1E
3C1E
3C1E
3C1E
FF7F
FF7F
0000
0000
01C0
03C0
03E0
03C0
ENDCHAR
STARTCHAR 1E48
ENCODING 7752
SWIDTH 720 0
DWIDTH 20 0
BBX 18 23 1 -4
BITMAP
FC0FC0
FC0FC0
3E0380
3F0300
3F8100
3F8100
37C100
33E100
33F100
31F100
30F900
307D00
307F00
303F00
301F00
300F00
300F00
FC0700
FC0300
000000
000000
000000
07FE00
ENDCHAR
STARTCHAR 1E49
ENCODING 7753
SWIDTH 648 0
DWIDTH 18 0
BBX 16 17 1 -4
BITMAP
0C70
FDFC
FFFC
3C3E
3C1E
3C1E
3C1E
3C1E
3C1E
3C1E
3C1E
FF7F
FF7F
0000
0000
0000
1FF8
ENDCHAR
STARTCHAR 1E4C
ENCODING 7756
SWIDTH 720 0
DWIDTH 20 0
BBX 19 29 1 0
BITMAP
007800
007000
00E000
004000
000000
03C400
0FFC00
0CF800
000000
000000
03F800
0FFE00
1E1F00
3C0F80
7807C0
7803C0
F003C0
F003E0
F003E0
F003E0
F003E0
F803E0
F803C0
7803C0
7803C0
3C0780
3E0F00
0FFE00
07F800
ENDCHAR
STARTCHAR 1E4D
ENCODING 7757
SWIDTH 540 0
DWIDTH 15 0
BBX 14 23 1 0
BITMAP
01C0
0380
0300
0200
0000
1E30
3FF0
37E0
0000
0000
0FC0
3FF0
78F8
7078
F07C
F03C
F03C
F03C
F03C
F878
7878
3FF0
1FC0
ENDCHAR
STARTCHAR 1E4E
ENCODING 7758
SWIDTH 720 0
DWIDTH 20 0
BBX 19 29 1 0
BITMAP
071C00
0F3E00
0F3E00
071C00
000000
03C400
0FFC00
0CF800
000000
000000
03F800
0FFE00
1E1F00
3C0F80
7807C0
7803C0
F003C0
F003E0
F003E0
F003E0
F003E0
F803E0
F803C0
7803C0
7803C0
3C0780
3E0F00
0FFE00
07F800
ENDCHAR
STARTCHAR 1E4F
ENCODING 7759
SWIDTH 540 0
DWIDTH 15 0
BBX 14 23 1 0
BITMAP
38E0
3CF0
3CF0
3860
0000
1E30
3FF0
37E0
0000
0000
0FC0
3FF0
78F8
7078
F07C
F03C
F03C
F03C
F03C
F878
7878
3FF0
1FC0
ENDCHAR
STARTCHAR 1E50
ENCODING 7760
SWIDTH 720 0
DWIDTH 20 0
BBX 19 28 1 0
BITMAP
038000
01C000
00C000
004000
000000
0FFE00
0FFC00
000000
000000
03F800
0FFE00
1E1F00
3C0F80
7807C0
7803C0
F003C0
F003E0
F003E0
F003E0
F003E0
F803E0
F803C0
7803C0
7803C0
3C0780
3E0F00
0FFE00
07F800
ENDCHAR
STARTCHAR 1E51
ENCODING 7761
SWIDTH 540 0
DWIDTH 15 0
BBX 14 22 1 0
BITMAP
1E00
0E00
0700
0300
0000
3FF0
3FF0
0000
0000
0FC0
3FF0
78F8
7078
F07C
F03C
F03C
F03C
F03C
F878
7878
3FF0
1FC0
ENDCHAR
STARTCHAR 1E52
ENCODING 7762
SWIDTH 720 0
DWIDTH 20 0
BBX 19 28 1 0
BITMAP
007800
007000
00E000
004000
000000
0FFE00
0FFC00
000000
000000
03F800
0FFE00
1E1F00
3C0F80
7807C0
7803C0
F003C0
F003E0
F003E0
F003E0
F003E0
F803E0
F803C0
7803C0
7803C0
3C0780
3E0F00
0FFE00
07F800
ENDCHAR
STARTCHAR 1E53
ENCODING 7763
SWIDTH 540 0
DWIDTH 15 0
BBX 14 22 1 0
BITMAP
01C0
0380
0300
0300
0000
3FF0
3FF0
0000
0000
0FC0
3FF0
78F8
7078
F07C
F03C
F03C
F03C
F03C
F878
7878
3FF0
1FC0
ENDCHAR
STARTCHAR 1E5A
ENCODING 7770
SWIDTH 684 0
DWIDTH 19 0
BBX 18 25 1 -6
BITMAP
FFF000
FFFC00
3C3E00
3C1F00
3C0F00
3C0F00
3C0F00
3C1E00
3C3E00
3FFC00
3FF000
3CF800
3C7C00
3C3C00
3C3E00
3C1E00
3E1F00
FF0FC0
FF0FC0
000000
000000
00E000
01F000
01F000
01E000
ENDCHAR
STARTCHAR 1E5B
ENCODING 7771
SWIDTH 468 0
DWIDTH 13 0
BBX 12 19 1 -6
BITMAP
0CE0
FDF0
FFF0
3A60
3C60
3C00
3C00
3C00
3C00
3C00
3C00
FF80
FF80
0000
0000
1C00
3E00
3E00
1C00
ENDCHAR
STARTCHAR 1E5E
ENCODING 7774
SWIDTH 684 0
DWIDTH 19 0
BBX 18 23 1 -4
BITMAP
FFF000
FFFC00
3C3E00
3C1F00
3C0F00
3C0F00
3C0F00
3C1E00
3C3E00
3FFC00
3FF000
3CF800
3C7C00
3C3C00
3C3E00
3C1E00
3E1F00
FF0FC0
FF0FC0
000000
000000
000000
0FFE00
ENDCHAR
STARTCHAR 1E5F
ENCODING 7775
SWIDTH 468 0
DWIDTH 13 0
BBX 13 17 0 -4
BITMAP
0670
7EF8
7FF8
1D30
1E30
1E00
1E00
1E00
1E00
1E00
1E00
7FC0
7FC0
0000
0000
0000
FFE0
ENDCHAR
STARTCHAR 1E60
ENCODING 7776
SWIDTH 540 0
DWIDTH 15 0
BBX 14 24 1 0
BITMAP
0780
0780
0780
0780
0000
0FC0
3FF0
7870
7070
7030
7800
7C00
7F00
3FC0
3FF0
0FF0
03F8
00F8
607C
6038
7038
F078
FFF0
3FE0
ENDCHAR
STARTCHAR 1E61
ENCODING 7777
SWIDTH 432 0
DWIDTH 12 0
BBX 11 18 1 1
BITMAP
1E00
1F00
1E00
0400
0000
1F80
7FC0
F1C0
F0C0
F800
7E00
7F80
1FC0
03E0
C1E0
E1E0
FFC0
7F80
ENDCHAR
STARTCHAR 1E62
ENCODING 7778
SWIDTH 540 0
DWIDTH 15 0
BBX 14 25 1 -6
BITMAP
0FC0
3FF0
7870
7070
7030
7800
7C00
7F00
3FC0
3FF0
0FF0
03F8
00F8
607C
6038
7038
F078
FFF0
3FE0
0000
0000
0300
0780
0780
0780
ENDCHAR
STARTCHAR 1E63
ENCODING 7779
SWIDTH 432 0
DWIDTH 12 0
BBX 11 19 1 -6
BITMAP
1F80
7FC0
F1C0
F0C0
F800
7E00
7F80
1FC0
03E0
C1E0
E1E0
FFC0
7F80
0000
0000
0E00
1F00
1F00
1E00
ENDCHAR
STARTCHAR 1E64
ENCODING 7780
SWIDTH 540 0
DWIDTH 15 0
BBX 14 30 1 0
BITMAP
0300
07C0
07C0
0780
0000
0000
01C0
0380
0300
0000
0000
0FC0
3FF0
7870
7070
7030
7800
7C00
7F00
3FC0
3FF0
0FF0
03F8
00F8
607C
6038
7038
F078
FFF0
3FE0
ENDCHAR
STARTCHAR 1E65
ENCODING 7781
SWIDTH 432 0
DWIDTH 12 0
BBX 11 24 1 0
BITMAP
0400
0F00
1F00
0F00
0000
0000
0780
0700
0E00
0400
0000
1F80
7FC0
F1C0
F0C0
F800
7E00
7F80
1FC0
03E0
C1E0
E1E0
FFC0
7F80
ENDCHAR
STARTCHAR 1E66
ENCODING 7782
SWIDTH 540 0
DWIDTH 15 0
BBX 14 30 1 0
BITMAP
0300
0780
0780
0780
0000
1020
3CE0
1FC0
0F80
0700
0000
0FC0
3FF0
7870
7070
7030
7800
7C00
7F00
3FC0
3FF0
0FF0
03F8
00F8
607C
6038
7038
F078
FFF0
3FE0
ENDCHAR
STARTCHAR 1E67
ENCODING 7783
SWIDTH 432 0
DWIDTH 12 0
BBX 11 24 1 0
BITMAP
0E00
1E00
1F00
1E00
0000
0000
F1C0
7F80
1E00
0C00
0000
1F80
7FC0
F1C0
F0C0
F800
7E00
7F80
1FC0
03E0
C1E0
E1E0
FFC0
7F80
ENDCHAR
STARTCHAR 1E68
ENCODING 7784
SWIDTH 540 0
DWIDTH 15 0
BBX 14 30 1 -6
BITMAP
0780
0780
0780
0780
0000
0FC0
3FF0
7870
7070
7030
7800
7C00
7F00
3FC0
3FF0
0FF0
03F8
00F8
607C
6038
7038
F078
FFF0
3FE0
0000
0000
0300
0780
0780
0780
ENDCHAR
STARTCHAR 1E69
ENCODING 7785
SWIDTH 432 0
DWIDTH 12 0
BBX 11 24 1 -5
BITMAP
1E00
1F00
1E00
0400
0000
1F80
7FC0
F1C0
F0C0
F800
7E00
7F80
1FC0
03E0
C1E0
E1E0
FFC0
7F80
0000
0000
0E00
1F00
1F00
1E00
ENDCHAR
STARTCHAR 1E6C
ENCODING 7788
SWIDTH 648 0
DWIDTH 18 0
BBX 16 25 1 -6
BITMAP
FFFF
FFFF
E3C7
C3C3
C3C3
03C0
03C0
03C0
03C0
03C0
03C0
03C0
03C0
03C0
03C0
03C0
03C0
1FF8
1FF8
0000
0000
0180
03C0
03C0
03C0
ENDCHAR
STARTCHAR 1E6D
ENCODING 7789
SWIDTH 360 0
DWIDTH 10 0
BBX 10 23 0 -6
BITMAP
0C00
3C00
3C00
3C00
3C00
FFC0
3F00
3C00
3C00
3C00
3C00
3C00
3C00
3C00
1E00
1FC0
0F80
0000
0000
0700
0F00
0F00
0F00
ENDCHAR
STARTCHAR 1E6E
ENCODING 7790
SWIDTH 648 0
DWIDTH 18 0
BBX 16 23 1 -4
BITMAP
FFFF
FFFF
E3C7
C3C3
C3C3
03C0
03C0
03C0
03C0
03C0
03C0
03C0
03C0
03C0
03C0
03C0
03C0
1FF8
1FF8
0000
0000
0000
1FF8
ENDCHAR
STARTCHAR 1E6F
ENCODING 7791
SWIDTH 360 0
DWIDTH 10 0
BBX 11 21 0 -4
BITMAP
0C00
3C00
3C00
3C00
3C00
FFC0
3F00
3C00
3C00
3C00
3C00
3C00
3C00
3C00
1E00
1FC0
0F80
0000
0000
0000
7FE0
ENDCHAR
STARTCHAR 1E78
ENCODING 7800
SWIDTH 684 0
DWIDTH 19 0
BBX 17 29 1 0
BITMAP
007800
007000
006000
000000
000000
03C600
07FC00
04FC00
000000
000000
FF1F80
FF1F80
7C0700
3C0600
3C0600
3C0600
3C0600
3C0600
3C0600
3C0600
3C0600
3C0600
3C0600
3C0600
3C0600
3E0600
1E0C00
1FFC00
0FF000
ENDCHAR
STARTCHAR 1E79
ENCODING 7801
SWIDTH 576 0
DWIDTH 16 0
BBX 16 26 0 0
BITMAP
0070
00E0
00E0
00C0
0180
0000
0000
0708
0FF8
1FF8
10E0
0000
0000
0C0C
7C7E
FC7E
3C3E
3C1E
3C1E
3C1E
3C1E
3C1E
3C1E
3E1F
1FFF
0F9C
ENDCHAR
STARTCHAR 1E7A
ENCODING 7802
SWIDTH 684 0
DWIDTH 19 0
BBX 17 28 1 0
BITMAP
071C00
0F9E00
0F9E00
071C00
000000
07FE00
0FFE00
000000
000000
FF1F80
FF1F80
7C0700
3C0600
3C0600
3C0600
3C0600
3C0600
3C0600
3C0600
3C0600
3C0600
3C0600
3C0600
3C0600
3E0600
1E0C00
1FFC00
0FF000
ENDCHAR
STARTCHAR 1E7B
ENCODING 7803
SWIDTH 576 0
DWIDTH 16 0
BBX 16 22 0 0
BITMAP
0E38
1E7C
1E78
0E38
0000
1FFC
1FF8
0000
0000
0C0C
7C7E
FC7E
3C3E
3C1E
3C1E
3C1E
3C1E
3C1E
3C1E
3E1F
1FFF
0F9C
ENDCHAR
STARTCHAR 1E80
ENCODING 7808
SWIDTH 972 0
DWIDTH 27 0
BBX 27 24 0 0
BITMAP
000E0000
00060000
00070000
00020000
00000000
FF8307E0
7F0307E0
3E0781C0
3E078180
1E0F8180
1E0FC180
1F0FC100
0F1BE300
0F1BE300
0F99E200
0FB1F600
07B0F600
07F0F600
07E0FC00
03E07C00
03E07C00
03C07800
01C03800
01803800
ENDCHAR
STARTCHAR 1E81
ENCODING 7809
SWIDTH 756 0
DWIDTH 21 0
BBX 21 20 0 0
BITMAP
00F000
007000
003000
003800
001800
000000
000000
FF18F8
FF1CF8
3C3C30
3C3C30
1E3E20
1E7E60
1E6F60
0FCF40
0FCFC0
0F87C0
078780
078380
070380
ENDCHAR
STARTCHAR 1E82
ENCODING 7810
SWIDTH 972 0
DWIDTH 27 0
BBX 27 24 0 0
BITMAP
0001C000
00038000
00030000
00000000
00000000
FF8307E0
7F0307E0
3E0781C0
3E078180
1E0F8180
1E0FC180
1F0FC100
0F1BE300
0F1BE300
0F99E200
0FB1F600
07B0F600
07F0F600
07E0FC00
03E07C00
03E07C00
03C07800
01C03800
01803800
ENDCHAR
STARTCHAR 1E83
ENCODING 7811
SWIDTH 756 0
DWIDTH 21 0
BBX 21 20 0 0
BITMAP
000F00
000E00
000C00
001C00
001800
000000
000000
FF18F8
FF1CF8
3C3C30
3C3C30
1E3E20
1E7E60
1E6F60
0FCF40
0FCFC0
0F87C0
078780
078380
070380
ENDCHAR
STARTCHAR 1E84
ENCODING 7812
SWIDTH 972 0
DWIDTH 27 0
BBX 27 24 0 0
BITMAP
0038F000
003CF000
003CF000
00186000
00000000
FF8307E0
7F0307E0
3E0781C0
3E078180
1E0F8180
1E0FC180
1F0FC100
0F1BE300
0F1BE300
0F99E200
0FB1F600
07B0F600
07F0F600
07E0FC00
03E07C00
03E07C00
03C07800
01C03800
01803800
ENDCHAR
STARTCHAR 1E85
ENCODING 7813
SWIDTH 756 0
DWIDTH 21 0
BBX 21 18 0 0
BITMAP
01E780
01E780
01E780
00C100
000000
FF18F8
FF1CF8
3C3C30
3C3C30
1E3E20
1E7E60
1E6F60
0FCF40
0FCFC0
0F87C0
078780
078380
070380
ENDCHAR
STARTCHAR 1E8E
ENCODING 7822
SWIDTH 612 0
DWIDTH 17 0
BBX 17 24 0 0
BITMAP
00F000
00F000
00F000
00F000
000000
FF0F80
7F0F80
3E0700
1E0600
1F0600
0F0C00
0F8C00
079800
07D800
03F000
03F000
01E000
01E000
01E000
01E000
01E000
03E000
0FF800
0FFC00
ENDCHAR
STARTCHAR 1E8F
ENCODING 7823
SWIDTH 540 0
DWIDTH 15 0
BBX 15 26 0 -7
BITMAP
0080
01E0
01E0
01E0
0000
0000
FF3E
FF3E
3E1C
3E18
1E18
1F10
0F30
0FB0
07E0
07E0
03C0
03C0
0380
0180
0180
0300
6F00
7E00
7C00
3800
ENDCHAR
STARTCHAR 1E90
ENCODING 7824
SWIDTH 576 0
DWIDTH 16 0
BBX 15 25 1 0
BITMAP
0080
03C0
0FE0
1EF0
0820
0000
7FFC
7FFC
707C
70F8
60F8
21F0
01F0
03E0
03C0
07C0
0F80
0F80
1F00
1F00
3E0E
7C0C
7C1C
FFFC
FFFC
ENDCHAR
STARTCHAR 1E91
ENCODING 7825
SWIDTH 504 0
DWIDTH 14 0
BBX 12 20 1 0
BITMAP
0700
0F00
1F80
39C0
70E0
0000
0000
7FF0
7FF0
61E0
63E0
67C0
0780
0F80
1F00
3E30
3C30
7C70
FFF0
FFF0
ENDCHAR
STARTCHAR 1E92
ENCODING 7826
SWIDTH 576 0
DWIDTH 16 0
BBX 15 25 1 -6
BITMAP
7FFC
7FFC
707C
70F8
60F8
21F0
01F0
03E0
03C0
07C0
0F80
0F80
1F00
1F00
3E0E
7C0C
7C1C
FFFC
FFFC
0000
0000
0380
07C0
07C0
0380
ENDCHAR
STARTCHAR 1E93
ENCODING 7827
SWIDTH 504 0
DWIDTH 14 0
BBX 12 19 1 -6
BITMAP
7FF0
7FF0
61E0
63E0
67C0
0780
0F80
1F00
3E30
3C30
7C70
FFF0
FFF0
0000
0000
0700
0F00
0F00
0F00
ENDCHAR
STARTCHAR 1E97
ENCODING 7831
SWIDTH 360 0
DWIDTH 10 0
BBX 10 21 0 0
BITMAP
F3C0
F3C0
F3C0
0000
0C00
3C00
3C00
3C00
3C00
FFC0
3F00
3C00
3C00
3C00
3C00
3C00
3C00
3C00
1E00
1FC0
0F80
ENDCHAR
STARTCHAR 1E9E
ENCODING 7838
SWIDTH 720 0
DWIDTH 20 0
BBX 19 19 1 0
BITMAP
01FF80
0FFFC0
1E0780
1E0F80
3C1F00
3C1F00
3C3E00
3C7C00
3C7E00
3C3F80
3C07C0
3C03C0
3C03E0
3C01E0
3CC1E0
3CE1E0
3CE3C0
FCFF80
FC7F00
ENDCHAR
STARTCHAR 1EA0
ENCODING 7840
SWIDTH 684 0
DWIDTH 19 0
BBX 19 25 0 -6
BITMAP
006000
00E000
00F000
01F000
01F000
01F800
037800
037C00
063C00
063E00
041E00
0C1F00
0FFF00
1FFF00
180F80
300780
3007C0
7C0FE0
FC1FE0
000000
000000
01C000
03E000
03E000
01E000
ENDCHAR
STARTCHAR 1EA1
ENCODING 7841
SWIDTH 540 0
DWIDTH 15 0
BBX 13 19 2 -6
BITMAP
0F80
3FC0
73E0
F1E0
F1E0
03E0
0FE0
39E0
F1E0
F1E0
F1F0
FFF8
7DF0
0000
0000
0E00
1F00
1F00
0E00
ENDCHAR
STARTCHAR 1EA2
ENCODING 7842
SWIDTH 684 0
DWIDTH 19 0
BBX 19 25 0 0
BITMAP
01F000
01B000
013000
006000
004000
000000
006000
00E000
00F000
01F000
01F000
01F800
037800
037C00
063C00
063E00
041E00
0C1F00
0FFF00
1FFF00
180F80
300780
3007C0
7C0FE0
FC1FE0
ENDCHAR
STARTCHAR 1EA3
ENCODING 7843
SWIDTH 540 0
DWIDTH 15 0
BBX 13 20 2 0
BITMAP
0E00
3F00
3300
0600
0C00
0C00
0000
0F80
3FC0
73E0
F1E0
F1E0
03E0
0FE0
39E0
F1E0
F1E0
F1F0
FFF8
7DF0
ENDCHAR
STARTCHAR 1EA4
ENCODING 7844
SWIDTH 684 0
DWIDTH 19 0
BBX 19 28 0 0
BITMAP
000180
000380
000700
002600
00F000
03F800
073C00
040800
000000
006000
00E000
00F000
01F000
01F000
01F800
037800
037C00
063C00
063E00
041E00
0C1F00
0FFF00
1FFF00
180F80
300780
3007C0
7C0FE0
FC1FE0
ENDCHAR
STARTCHAR 1EA5
ENCODING 7845
SWIDTH 540 0
DWIDTH 15 0
BBX 13 22 2 0
BITMAP
0030
0070
0060
00E0
1E00
3F00
F3C0
4080
0000
0F80
3FC0
73E0
F1E0
F1E0
03E0
0FE0
39E0
F1E0
F1E0
F1F0
FFF8
7DF0
ENDCHAR
STARTCHAR 1EA6
ENCODING 7846
SWIDTH 684 0
DWIDTH 19 0
BBX 19 28 0 0
BITMAP
001800
001C00
000C00
002E00
00F000
03F800
073C00
040800
000000
006000
00E000
00F000
01F000
01F000
01F800
037800
037C00
063C00
063E00
041E00
0C1F00
0FFF00
1FFF00
180F80
300780
3007C0
7C0FE0
FC1FE0
ENDCHAR
STARTCHAR 1EA7
ENCODING 7847
SWIDTH 540 0
DWIDTH 15 0
BBX 13 22 2 0
BITMAP
0180
0380
01C0
00C0
1E00
3F00
F3C0
4080
0000
0F80
3FC0
73E0
F1E0
F1E0
03E0
0FE0
39E0
F1E0
F1E0
F1F0
FFF8
7DF0
ENDCHAR
STARTCHAR 1EA8
ENCODING 7848
SWIDTH 684 0
DWIDTH 19 0
BBX 19 29 0 0
BITMAP
001F00
001B00
001300
000600
002600
00F000
03F800
073C00
040800
000000
006000
00E000
00F000
01F000
01F000
01F800
037800
037C00
063C00
063E00
041E00
0C1F00
0FFF00
1FFF00
180F80
300780
3007C0
7C0FE0
FC1FE0
ENDCHAR
STARTCHAR 1EA9
ENCODING 7849
SWIDTH 540 0
DWIDTH 15 0
BBX 13 23 2 0
BITMAP
01E0
03B0
0330
00E0
00C0
1E00
3F00
F3C0
4080
0000
0F80
3FC0
73E0
F1E0
F1E0
03E0
0FE0
39E0
F1E0
F1E0
F1F0
FFF8
7DF0
ENDCHAR
STARTCHAR 1EAA
ENCODING 7850
SWIDTH 684 0
DWIDTH 19 0
BBX 19 29 0 0
BITMAP
07E600
0FFC00
047800
000000
002000
00F000
03F800
073C00
040800
000000
006000
00E000
00F000
01F000
01F000
01F800
037800
037C00
063C00
063E00
041E00
0C1F00
0FFF00
1FFF00
180F80
300780
3007C0
7C0FE0
FC1FE0
ENDCHAR
STARTCHAR 1EAB
ENCODING 7851
SWIDTH 540 0
DWIDTH 15 0
BBX 13 23 2 0
BITMAP
7CC0
FFC0
8F80
0000
0000
1E00
3F00
F3C0
4080
0000
0F80
3FC0
73E0
F1E0
F1E0
03E0
0FE0
39E0
F1E0
F1E0
F1F0
FFF8
7DF0
ENDCHAR
STARTCHAR 1EAC
ENCODING 7852
SWIDTH 684 0
DWIDTH 19 0
BBX 19 31 0 -6
BITMAP
002000
00F000
03F800
073C00
040800
000000
006000
00E000
00F000
01F000
01F000
01F800
037800
037C00
063C00
063E00
041E00
0C1F00
0FFF00
1FFF00
180F80
300780
3007C0
7C0FE0
FC1FE0
000000
000000
01C000
03E000
03E000
01E000
ENDCHAR
STARTCHAR 1EAD
ENCODING 7853
SWIDTH 540 0
DWIDTH 15 0
BBX 13 26 2 -6
BITMAP
0E00
0E00
3F00
7380
E1C0
0000
0000
0F80
3FC0
73E0
F1E0
F1E0
03E0
0FE0
39E0
F1E0
F1E0
F1F0
FFF8
7DF0
0000
0000
0E00
1F00
1F00
0E00
ENDCHAR
STARTCHAR 1EAE
ENCODING 7854
SWIDTH 684 0
DWIDTH 19 0
BBX 19 28 0 0
BITMAP
003800
007000
006000
00C000
060C00
07FC00
03F800
01F000
000000
006000
00E000
00F000
01F000
01F000
01F800
037800
037C00
063C00
063E00
041E00
0C1F00
0FFF00
1FFF00
180F80
300780
3007C0
7C0FE0
FC1FE0
ENDCHAR
STARTCHAR 1EAF
ENCODING 7855
SWIDTH 540 0
DWIDTH 15 0
BBX 13 22 2 0
BITMAP
0780
0700
0E00
0C00
60C0
7BC0
7F80
1F00
0000
0F80
3FC0
73E0
F1E0
F1E0
03E0
0FE0
39E0
F1E0
F1E0
F1F0
FFF8
7DF0
ENDCHAR
STARTCHAR 1EB0
ENCODING 7856
SWIDTH 684 0
DWIDTH 19 0
BBX 19 28 0 0
BITMAP
03C000
01C000
00E000
006000
060C00
07FC00
03F800
01F000
000000
006000
00E000
00F000
01F000
01F000
01F800
037800
037C00
063C00
063E00
041E00
0C1F00
0FFF00
1FFF00
180F80
300780
3007C0
7C0FE0
FC1FE0
ENDCHAR
STARTCHAR 1EB1
ENCODING 7857
SWIDTH 540 0
DWIDTH 15 0
BBX 13 22 2 0
BITMAP
3800
1C00
0C00
0E00
60C0
7BC0
7F80
1F00
0000
0F80
3FC0
73E0
F1E0
F1E0
03E0
0FE0
39E0
F1E0
F1E0
F1F0
FFF8
7DF0
ENDCHAR
STARTCHAR 1EB2
ENCODING 7858
SWIDTH 684 0
DWIDTH 19 0
BBX 19 29 0 0
BITMAP
00E000
01B000
01B000
006000
004000
060C00
07FC00
03F800
01F000
000000
006000
00E000
00F000
01F000
01F000
01F800
037800
037C00
063C00
063E00
041E00
0C1F00
0FFF00
1FFF00
180F80
300780
3007C0
7C0FE0
FC1FE0
ENDCHAR
STARTCHAR 1EB3
ENCODING 7859
SWIDTH 540 0
DWIDTH 15 0
BBX 13 23 2 0
BITMAP
1E00
3B00
3300
0E00
0C00
60C0
7BC0
7F80
1F00
0000
0F80
3FC0
73E0
F1E0
F1E0
03E0
0FE0
39E0
F1E0
F1E0
F1F0
FFF8
7DF0
ENDCHAR
STARTCHAR 1EB4
ENCODING 7860
SWIDTH 684 0
DWIDTH 19 0
BBX 19 29 0 0
BITMAP
018000
07FE00
0FFC00
003800
000000
060C00
07FC00
03F800
01F000
000000
006000
00E000
00F000
01F000
01F000
01F800
037800
037C00
063C00
063E00
041E00
0C1F00
0FFF00
1FFF00
180F80
300780
3007C0
7C0FE0
FC1FE0
ENDCHAR
STARTCHAR 1EB5
ENCODING 7861
SWIDTH 540 0
DWIDTH 15 0
BBX 13 23 2 0
BITMAP
1000
7FC0
FF80
8700
0000
60C0
7BC0
7F80
1F00
0000
0F80
3FC0
73E0
F1E0
F1E0
03E0
0FE0
39E0
F1E0
F1E0
F1F0
FFF8
7DF0
ENDCHAR
STARTCHAR 1EB6
ENCODING 7862
SWIDTH 684 0
DWIDTH 19 0
BBX 19 30 0 -6
BITMAP
060C00
07FC00
03F800
01F000
000000
006000
00E000
00F000
01F000
01F000
01F800
037800
037C00
063C00
063E00
041E00
0C1F00
0FFF00
1FFF00
180F80
300780
3007C0
7C0FE0
FC1FE0
000000
000000
01C000
03E000
03E000
01E000
ENDCHAR
STARTCHAR 1EB7
ENCODING 7863
SWIDTH 540 0
DWIDTH 15 0
BBX 13 26 2 -6
BITMAP
4040
C0C0
F1C0
7FC0
7F80
0C00
0000
0F80
3FC0
73E0
F1E0
F1E0
03E0
0FE0
39E0
F1E0
F1E0
F1F0
FFF8
7DF0
0000
0000
0E00
1F00
1F00
0E00
ENDCHAR
STARTCHAR 1EB8
ENCODING 7864
SWIDTH 612 0
DWIDTH 17 0
BBX 16 25 1 -6
BITMAP
FFFC
FFFC
3C1C
3C0C
3C0E
3C00
3C10
3C30
3C70
3FF0
3CF0
3C30
3C30
3C00
3C07
3C06
3E0E
FFFE
FFFE
0000
0000
0180
03C0
03C0
03C0
ENDCHAR
STARTCHAR 1EB9
ENCODING 7865
SWIDTH 504 0
DWIDTH 14 0
BBX 12 19 1 -6
BITMAP
0F80
3FE0
78E0
70F0
F0F0
F0F0
FFF0
F000
F000
F800
7C30
3FF0
1FC0
0000
0000
0700
0780
0F80
0780
ENDCHAR
STARTCHAR 1EBA
ENCODING 7866
SWIDTH 612 0
DWIDTH 17 0
BBX 16 25 1 0
BITMAP
07C0
06C0
04C0
0180
0300
0000
FFFC
FFFC
3C1C
3C0C
3C0E
3C00
3C10
3C30
3C70
3FF0
3CF0
3C30
3C30
3C00
3C07
3C06
3E0E
FFFE
FFFE
ENDCHAR
STARTCHAR 1EBB
ENCODING 7867
SWIDTH 504 0
DWIDTH 14 0
BBX 12 20 1 0
BITMAP
0200
1FC0
19C0
0380
0600
0700
0000
0F80
3FE0
78E0
70F0
F0F0
F0F0
FFF0
F000
F000
F800
7C30
3FF0
1FC0
ENDCHAR
STARTCHAR 1EBC
ENCODING 7868
SWIDTH 612 0
DWIDTH 17 0
BBX 16 24 1 0
BITMAP
0F10
3FF0
33E0
0000
0000
FFFC
FFFC
3C1C
3C0C
3C0E
3C00
3C10
3C30
3C70
3FF0
3CF0
3C30
3C30
3C00
3C07
3C06
3E0E
FFFE
FFFE
ENDCHAR
STARTCHAR 1EBD
ENCODING 7869
SWIDTH 504 0
DWIDTH 14 0
BBX 12 19 1 0
BITMAP
1C20
3FE0
7FE0
41C0
0000
0000
0F80
3FE0
78E0
70F0
F0F0
F0F0
FFF0
F000
F000
F800
7C30
3FF0
1FC0
ENDCHAR
STARTCHAR 1EBE
ENCODING 7870
SWIDTH 612 0
DWIDTH 17 0
BBX 16 28 1 0
BITMAP
000E
000C
001C
0118
07C0
0FE0
1CF0
1020
0000
FFFC
FFFC
3C1C
3C0C
3C0E
3C00
3C10
3C30
3C70
3FF0
3CF0
3C30
3C30
3C00
3C07
3C06
3E0E
FFFE
FFFE
ENDCHAR
STARTCHAR 1EBF
ENCODING 7871
SWIDTH 504 0
DWIDTH 14 0
BBX 14 22 1 0
BITMAP
000C
0018
0038
0030
0700
1FC0
39E0
2040
0000
0F80
3FE0
78E0
70F0
F0F0
F0F0
FFF0
F000
F000
F800
7C30
3FF0
1FC0
ENDCHAR
STARTCHAR 1EC0
ENCODING 7872
SWIDTH 612 0
DWIDTH 17 0
BBX 16 28 1 0
BITMAP
0060
00F0
0070
0138
07C0
0FE0
1CF0
1020
0000
FFFC
FFFC
3C1C
3C0C
3C0E
3C00
3C10
3C30
3C70
3FF0
3CF0
3C30
3C30
3C00
3C07
3C06
3E0E
FFFE
FFFE
ENDCHAR
STARTCHAR 1EC1
ENCODING 7873
SWIDTH 504 0
DWIDTH 14 0
BBX 12 22 1 0
BITMAP
00C0
01E0
00E0
0070
0700
1FC0
39E0
2040
0000
0F80
3FE0
78E0
70F0
F0F0
F0F0
FFF0
F000
F000
F800
7C30
3FF0
1FC0
ENDCHAR
STARTCHAR 1EC2
ENCODING 7874
SWIDTH 612 0
DWIDTH 17 0
BBX 16 29 1 0
BITMAP
007C
006C
004C
0018
0110
07C0
0FE0
1CF0
1020
0000
FFFC
FFFC
3C1C
3C0C
3C0E
3C00
3C10
3C30
3C70
3FF0
3CF0
3C30
3C30
3C00
3C07
3C06
3E0E
FFFE
FFFE
ENDCHAR
STARTCHAR 1EC3
ENCODING 7875
SWIDTH 504 0
DWIDTH 14 0
BBX 13 23 1 0
BITMAP
00F8
00D8
0098
0030
0060
0700
1FC0
39E0
2040
0000
0F80
3FE0
78E0
70F0
F0F0
F0F0
FFF0
F000
F000
F800
7C30
3FF0
1FC0
ENDCHAR
STARTCHAR 1EC4
ENCODING 7876
SWIDTH 612 0
DWIDTH 17 0
BBX 16 29 1 0
BITMAP
1FB8
3FF0
21E0
0000
0100
07C0
0FE0
1CF0
1020
0000
FFFC
FFFC
3C1C
3C0C
3C0E
3C00
3C10
3C30
3C70
3FF0
3CF0
3C30
3C30
3C00
3C07
3C06
3E0E
FFFE
FFFE
ENDCHAR
STARTCHAR 1EC5
ENCODING 7877
SWIDTH 504 0
DWIDTH 14 0
BBX 12 23 1 0
BITMAP
3E30
7FE0
63C0
0000
0000
0700
1FC0
39E0
2040
0000
0F80
3FE0
78E0
70F0
F0F0
F0F0
FFF0
F000
F000
F800
7C30
3FF0
1FC0
ENDCHAR
STARTCHAR 1EC6
ENCODING 7878
SWIDTH 612 0
DWIDTH 17 0
BBX 16 31 1 -6
BITMAP
0100
07C0
0FE0
1CF0
1020
0000
FFFC
FFFC
3C1C
3C0C
3C0E
3C00
3C10
3C30
3C70
3FF0
3CF0
3C30
3C30
3C00
3C07
3C06
3E0E
FFFE
FFFE
0000
0000
0180
03C0
03C0
03C0
ENDCHAR
STARTCHAR 1EC7
ENCODING 7879
SWIDTH 504 0
DWIDTH 14 0
BBX 12 26 1 -6
BITMAP
0300
0780
0FC0
3DE0
7070
2020
0000
0F80
3FE0
78E0
70F0
F0F0
F0F0
FFF0
F000
F000
F800
7C30
3FF0
1FC0
0000
0000
0700
0780
0F80
0780
ENDCHAR
STARTCHAR 1EC8
ENCODING 7880
SWIDTH 360 0
DWIDTH 10 0
BBX 8 25 1 0
BITMAP
3E
76
66
0C
18
00
FF
FF
3E
3C
3C
3C
3C
3C
3C
3C
3C
3C
3C
3C
3C
3C
3E
FF
FF
ENDCHAR
STARTCHAR 1EC9
ENCODING 7881
SWIDTH 324 0
DWIDTH 9 0
BBX 8 20 1 0
BITMAP
18
FE
EE
1C
18
18
00
0C
FC
FC
3C
3C
3C
3C
3C
3C
3C
3C
FF
FF
ENDCHAR
STARTCHAR 1ECA
ENCODING 7882
SWIDTH 360 0
DWIDTH 10 0
BBX 8 25 1 -6
BITMAP
FF
FF
3E
3C
3C
3C
3C
3C
3C
3C
3C
3C
3C
3C
3C
3C
3E
FF
FF
00
00
1C
3E
3E
3C
ENDCHAR
STARTCHAR 1ECB
ENCODING 7883
SWIDTH 324 0
DWIDTH 9 0
BBX 8 25 1 -6
BITMAP
3C
7C
7C
38
00
00
0C
FC
FC
3C
3C
3C
3C
3C
3C
3C
3C
FF
FF
00
00
18
3C
3C
3C
ENDCHAR
STARTCHAR 1ECC
ENCODING 7884
SWIDTH 720 0
DWIDTH 20 0
BBX 19 25 1 -6
BITMAP
03F800
0FFE00
1E1F00
3C0F80
7807C0
7803C0
F003C0
F003E0
F003E0
F003E0
F003E0
F803E0
F803C0
7803C0
7803C0
3C0780
3E0F00
0FFE00
07F800
000000
000000
00E000
01F000
01F000
01E000
ENDCHAR
STARTCHAR 1ECD
ENCODING 7885
SWIDTH 540 0
DWIDTH 15 0
BBX 14 19 1 -6
BITMAP
0FC0
3FF0
78F8
7078
F07C
F03C
F03C
F03C
F03C
F878
7878
3FF0
1FC0
0000
0000
0300
0780
0780
0780
ENDCHAR
STARTCHAR 1ECE
ENCODING 7886
SWIDTH 720 0
DWIDTH 20 0
BBX 19 25 1 0
BITMAP
01F000
01B000
013000
006000
00C000
000000
03F800
0FFE00
1E1F00
3C0F80
7807C0
7803C0
F003C0
F003E0
F003E0
F003E0
F003E0
F803E0
F803C0
7803C0
7803C0
3C0780
3E0F00
0FFE00
07F800
ENDCHAR
STARTCHAR 1ECF
ENCODING 7887
SWIDTH 540 0
DWIDTH 15 0
BBX 14 20 1 0
BITMAP
0300
0FC0
0DC0
0380
0300
0300
0000
0FC0
3FF0
78F8
7078
F07C
F03C
F03C
F03C
F03C
F878
7878
3FF0
1FC0
ENDCHAR
STARTCHAR 1ED0
ENCODING 7888
SWIDTH 720 0
DWIDTH 20 0
BBX 19 28 1 0
BITMAP
000380
000300
000700
004600
01F000
03F800
073C00
040800
000000
03F800
0FFE00
1E1F00
3C0F80
7807C0
7803C0
F003C0
F003E0
F003E0
F003E0
F003E0
F803E0
F803C0
7803C0
7803C0
3C0780
3E0F00
0FFE00
07F800
ENDCHAR
STARTCHAR 1ED1
ENCODING 7889
SWIDTH 540 0
DWIDTH 15 0
BBX 14 22 1 0
BITMAP
0004
001C
0018
0130
0780
0FC0
3DE0
1060
0000
0FC0
3FF0
78F8
7078
F07C
F03C
F03C
F03C
F03C
F878
7878
3FF0
1FC0
ENDCHAR
STARTCHAR 1ED2
ENCODING 7890
SWIDTH 720 0
DWIDTH 20 0
BBX 19 28 1 0
BITMAP
001800
003C00
001C00
004E00
01F000
03F800
073C00
040800
000000
03F800
0FFE00
1E1F00
3C0F80
7807C0
7803C0
F003C0
F003E0
F003E0
F003E0
F003E0
F803E0
F803C0
7803C0
7803C0
3C0780
3E0F00
0FFE00
07F800
ENDCHAR
STARTCHAR 1ED3
ENCODING 7891
SWIDTH 540 0
DWIDTH 15 0
BBX 14 22 1 0
BITMAP
0060
00E0
0070
0130
0780
0FC0
3DE0
1060
0000
0FC0
3FF0
78F8
7078
F07C
F03C
F03C
F03C
F03C
F878
7878
3FF0
1FC0
ENDCHAR
STARTCHAR 1ED4
ENCODING 7892
SWIDTH 720 0
DWIDTH 20 0
BBX 19 29 1 0
BITMAP
001F00
001B00
001300
000600
004400
01F000
03F800
073C00
040800
000000
03F800
0FFE00
1E1F00
3C0F80
7807C0
7803C0
F003C0
F003E0
F003E0
F003E0
F003E0
F803E0
F803C0
7803C0
7803C0
3C0780
3E0F00
0FFE00
07F800
ENDCHAR
STARTCHAR 1ED5
ENCODING 7893
SWIDTH 540 0
DWIDTH 15 0
BBX 14 23 1 0
BITMAP
0078
00DC
00DC
0038
0130
0780
0FC0
3DE0
1060
0000
0FC0
3FF0
78F8
7078
F07C
F03C
F03C
F03C
F03C
F878
7878
3FF0
1FC0
ENDCHAR
STARTCHAR 1ED6
ENCODING 7894
SWIDTH 720 0
DWIDTH 20 0
BBX 19 29 1 0
BITMAP
07EE00
0FFC00
087800
000000
004000
01F000
03F800
073C00
040800
000000
03F800
0FFE00
1E1F00
3C0F80
7807C0
7803C0
F003C0
F003E0
F003E0
F003E0
F003E0
F803E0
F803C0
7803C0
7803C0
3C0780
3E0F00
0FFE00
07F800
ENDCHAR
STARTCHAR 1ED7
ENCODING 7895
SWIDTH 540 0
DWIDTH 15 0
BBX 14 23 1 0
BITMAP
1F30
3FE0
23C0
0000
0100
0780
0FC0
3DE0
1060
0000
0FC0
3FF0
78F8
7078
F07C
F03C
F03C
F03C
F03C
F878
7878
3FF0
1FC0
ENDCHAR
STARTCHAR 1ED8
ENCODING 7896
SWIDTH 720 0
DWIDTH 20 0
BBX 19 31 1 -6
BITMAP
004000
01F000
03F800
073C00
040800
000000
03F800
0FFE00
1E1F00
3C0F80
7807C0
7803C0
F003C0
F003E0
F003E0
F003E0
F003E0
F803E0
F803C0
7803C0
7803C0
3C0780
3E0F00
0FFE00
07F800
000000
000000
00E000
01F000
01F000
01E000
ENDCHAR
STARTCHAR 1ED9
ENCODING 7897
SWIDTH 540 0
DWIDTH 15 0
BBX 14 26 1 -6
BITMAP
0300
0780
0FC0
1DE0
3870
0020
0000
0FC0
3FF0
78F8
7078
F07C
F03C
F03C
F03C
F03C
F878
7878
3FF0
1FC0
0000
0000
0300
0780
0780
0780
ENDCHAR
STARTCHAR 1EDA
ENCODING 7898
SWIDTH 720 0
DWIDTH 20 0
BBX 19 24 1 0
BITMAP
007800
007000
00E0C0
0040C0
0001C0
03FFC0
0FFF00
1E1F00
3C0F80
7807C0
7803C0
F003C0
F003E0
F003E0
F003E0
F003E0
F803E0
F803C0
7803C0
7803C0
3C0780
3E0F00
0FFE00
07F800
ENDCHAR
STARTCHAR 1EDB
ENCODING 7899
SWIDTH 576 0
DWIDTH 16 0
BBX 14 20 1 0
BITMAP
01E0
01C0
0180
0380
031C
000C
000C
0FFC
3FF0
78F8
7078
F07C
F03C
F03C
F03C
F03C
F878
7878
3FF0
1FC0
ENDCHAR
STARTCHAR 1EDC
ENCODING 7900
SWIDTH 720 0
DWIDTH 20 0
BBX 19 24 1 0
BITMAP
038000
01C000
00C0C0
0000C0
0001C0
03FFC0
0FFF00
1E1F00
3C0F80
7807C0
7803C0
F003C0
F003E0
F003E0
F003E0
F003E0
F803E0
F803C0
7803C0
7803C0
3C0780
3E0F00
0FFE00
07F800
ENDCHAR
STARTCHAR 1EDD
ENCODING 7901
SWIDTH 576 0
DWIDTH 16 0
BBX 14 20 1 0
BITMAP
0E00
0E00
0E00
0700
031C
000C
000C
0FFC
3FF0
78F8
7078
F07C
F03C
F03C
F03C
F03C
F878
7878
3FF0
1FC0
ENDCHAR
STARTCHAR 1EDE
ENCODING 7902
SWIDTH 720 0
DWIDTH 20 0
BBX 19 25 1 0
BITMAP
01F000
01B000
013000
0060C0
00C0C0
0001C0
03FFC0
0FFF00
1E1F00
3C0F80
7807C0
7803C0
F003C0
F003E0
F003E0
F003E0
F003E0
F803E0
F803C0
7803C0
7803C0
3C0780
3E0F00
0FFE00
07F800
ENDCHAR
STARTCHAR 1EDF
ENCODING 7903
SWIDTH 576 0
DWIDTH 16 0
BBX 14 20 1 0
BITMAP
0300
0FC0
0DC0
0380
031C
030C
000C
0FFC
3FF0
78F8
7078
F07C
F03C
F03C
F03C
F03C
F878
7878
3FF0
1FC0
ENDCHAR
STARTCHAR 1EE0
ENCODING 7904
SWIDTH 720 0
DWIDTH 20 0
BBX 19 24 1 0
BITMAP
03C400
0FFC00
0CF8C0
0000C0
0001C0
03FFC0
0FFF00
1E1F00
3C0F80
7807C0
7803C0
F003C0
F003E0
F003E0
F003E0
F003E0
F803E0
F803C0
7803C0
7803C0
3C0780
3E0F00
0FFE00
07F800
ENDCHAR
STARTCHAR 1EE1
ENCODING 7905
SWIDTH 576 0
DWIDTH 16 0
BBX 14 19 1 0
BITMAP
0E00
3FF0
3FE0
21DC
000C
000C
0FFC
3FF0
78F8
7078
F07C
F03C
F03C
F03C
F03C
F878
7878
3FF0
1FC0
ENDCHAR
STARTCHAR 1EE2
ENCODING 7906
SWIDTH 720 0
DWIDTH 20 0
BBX 19 28 1 -6
BITMAP
0000C0
0000C0
0001C0
03FFC0
0FFF00
1E1F00
3C0F80
7807C0
7803C0
F003C0
F003E0
F003E0
F003E0
F003E0
F803E0
F803C0
7803C0
7803C0
3C0780
3E0F00
0FFE00
07F800
000000
000000
00E000
01F000
01F000
01E000
ENDCHAR
STARTCHAR 1EE3
ENCODING 7907
SWIDTH 576 0
DWIDTH 16 0
BBX 14 22 1 -6
BITMAP
001C
000C
000C
0FFC
3FF0
78F8
7078
F07C
F03C
F03C
F03C
F03C
F878
7878
3FF0
1FC0
0000
0000
0300
0780
0780
0780
ENDCHAR
STARTCHAR 1EE4
ENCODING 7908
SWIDTH 684 0
DWIDTH 19 0
BBX 17 25 1 -6
BITMAP
FF1F80
FF1F80
7C0700
3C0600
3C0600
3C0600
3C0600
3C0600
3C0600
3C0600
3C0600
3C0600
3C0600
3C0600
3C0600
3E0600
1E0C00
1FFC00
0FF000
000000
000000
01C000
01E000
03E000
01E000
ENDCHAR
STARTCHAR 1EE5
ENCODING 7909
SWIDTH 576 0
DWIDTH 16 0
BBX 16 19 0 -6
BITMAP
0C0C
7C7E
FC7E
3C3E
3C1E
3C1E
3C1E
3C1E
3C1E
3C1E
3E1F
1FFF
0F9C
0000
0000
01C0
03E0
03E0
01C0
ENDCHAR
STARTCHAR 1EE6
ENCODING 7910
SWIDTH 684 0
DWIDTH 19 0
BBX 17 25 1 0
BITMAP
01F000
01B800
013000
006000
006000
000000
FF1F80
FF1F80
7C0700
3C0600
3C0600
3C0600
3C0600
3C0600
3C0600
3C0600
3C0600
3C0600
3C0600
3C0600
3C0600
3E0600
1E0C00
1FFC00
0FF000
ENDCHAR
STARTCHAR 1EE7
ENCODING 7911
SWIDTH 576 0
DWIDTH 16 0
BBX 16 20 0 0
BITMAP
0080
07E0
0670
00E0
0180
0180
0000
0C0C
7C7E
FC7E
3C3E
3C1E
3C1E
3C1E
3C1E
3C1E
3C1E
3E1F
1FFF
0F9C
ENDCHAR
STARTCHAR 1EE8
ENCODING 7912
SWIDTH 756 0
DWIDTH 21 0
BBX 20 24 1 0
BITMAP
007800
007000
006070
004070
000070
FF1FE0
FF1FC0
7C0700
3C0600
3C0600
3C0600
3C0600
3C0600
3C0600
3C0600
3C0600
3C0600
3C0600
3C0600
3C0600
3E0600
1E0C00
1FFC00
0FF000
ENDCHAR
STARTCHAR 1EE9
ENCODING 7913
SWIDTH 648 0
DWIDTH 18 0
BBX 17 20 0 0
BITMAP
007000
00F000
00E000
00C000
018380
000380
000380
0C0F00
7C7E00
FC7E00
3C3E00
3C1E00
3C1E00
3C1E00
3C1E00
3C1E00
3C1E00
3E1F00
1FFF00
0F9C00
ENDCHAR
STARTCHAR 1EEA
ENCODING 7914
SWIDTH 756 0
DWIDTH 21 0
BBX 20 24 1 0
BITMAP
03C000
01C000
00E070
006070
000070
FF1FE0
FF1FC0
7C0700
3C0600
3C0600
3C0600
3C0600
3C0600
3C0600
3C0600
3C0600
3C0600
3C0600
3C0600
3C0600
3E0600
1E0C00
1FFC00
0FF000
ENDCHAR
STARTCHAR 1EEB
ENCODING 7915
SWIDTH 648 0
DWIDTH 18 0
BBX 17 20 0 0
BITMAP
070000
070000
038000
018000
01C380
000380
000380
0C0F00
7C7E00
FC7E00
3C3E00
3C1E00
3C1E00
3C1E00
3C1E00
3C1E00
3C1E00
3E1F00
1FFF00
0F9C00
ENDCHAR
STARTCHAR 1EEC
ENCODING 7916
SWIDTH 756 0
DWIDTH 21 0
BBX 20 25 1 0
BITMAP
01F000
01B800
013000
006070
006070
000070
FF1FE0
FF1FC0
7C0700
3C0600
3C0600
3C0600
3C0600
3C0600
3C0600
3C0600
3C0600
3C0600
3C0600
3C0600
3C0600
3E0600
1E0C00
1FFC00
0FF000
ENDCHAR
STARTCHAR 1EED
ENCODING 7917
SWIDTH 648 0
DWIDTH 18 0
BBX 17 20 0 0
BITMAP
008000
07E000
067000
00E000
018380
018380
000380
0C0F00
7C7E00
FC7E00
3C3E00
3C1E00
3C1E00
3C1E00
3C1E00
3C1E00
3C1E00
3E1F00
1FFF00
0F9C00
ENDCHAR
STARTCHAR 1EEE
ENCODING 7918
SWIDTH 756 0
DWIDTH 21 0
BBX 20 24 1 0
BITMAP
03C600
07FC00
04FC70
000070
000070
FF1FE0
FF1FC0
7C0700
3C0600
3C0600
3C0600
3C0600
3C0600
3C0600
3C0600
3C0600
3C0600
3C0600
3C0600
3C0600
3E0600
1E0C00
1FFC00
0FF000
ENDCHAR
STARTCHAR 1EEF
ENCODING 7919
SWIDTH 648 0
DWIDTH 18 0
BBX 17 19 0 0
BITMAP
070800
0FF800
1FF800
10E380
000380
000380
0C0F00
7C7E00
FC7E00
3C3E00
3C1E00
3C1E00
3C1E00
3C1E00
3C1E00
3C1E00
3E1F00
1FFF00
0F9C00
ENDCHAR
STARTCHAR 1EF0
ENCODING 7920
SWIDTH 756 0
DWIDTH 21 0
BBX 20 28 1 -6
BITMAP
000070
000070
000070
FF1FE0
FF1FC0
7C0700
3C0600
3C0600
3C0600
3C0600
3C0600
3C0600
3C0600
3C0600
3C0600
3C0600
3C0600
3C0600
3E0600
1E0C00
1FFC00
0FF000
000000
000000
01C000
01E000
03E000
01E000
ENDCHAR
STARTCHAR 1EF1
ENCODING 7921
SWIDTH 648 0
DWIDTH 18 0
BBX 17 22 0 -6
BITMAP
000380
000380
000380
0C0F00
7C7E00
FC7E00
3C3E00
3C1E00
3C1E00
3C1E00
3C1E00
3C1E00
3C1E00
3E1F00
1FFF00
0F9C00
000000
000000
01C000
03E000
03E000
01C000
ENDCHAR
STARTCHAR 1EF2
ENCODING 7922
SWIDTH 612 0
DWIDTH 17 0
BBX 17 24 0 0
BITMAP
01C000
00E000
006000
004000
000000
FF0F80
7F0F80
3E0700
1E0600
1F0600
0F0C00
0F8C00
079800
07D800
03F000
03F000
01E000
01E000
01E000
01E000
01E000
03E000
0FF800
0FFC00
ENDCHAR
STARTCHAR 1EF3
ENCODING 7923
SWIDTH 540 0
DWIDTH 15 0
BBX 15 27 0 -7
BITMAP
0380
0380
0380
01C0
00C0
0000
0000
FF3E
FF3E
3E1C
3E18
1E18
1F10
0F30
0FB0
07E0
07E0
03C0
03C0
0380
0180
0180
0300
6F00
7E00
7C00
3800
ENDCHAR
STARTCHAR 1EF4
ENCODING 7924
SWIDTH 612 0
DWIDTH 17 0
BBX 17 25 0 -6
BITMAP
FF0F80
7F0F80
3E0700
1E0600
1F0600
0F0C00
0F8C00
079800
07D800
03F000
03F000
01E000
01E000
01E000
01E000
01E000
03E000
0FF800
0FFC00
000000
000000
01C000
01E000
03E000
01E000
ENDCHAR
STARTCHAR 1EF5
ENCODING 7925
SWIDTH 540 0
DWIDTH 15 0
BBX 15 20 0 -7
BITMAP
FF3E
FF3E
3E1C
3E18
1E18
1F10
0F30
0FB0
07E0
07E0
03C0
03C0
0380
0180
0180
0338
6F7C
7E7C
7C78
3800
ENDCHAR
STARTCHAR 1EF6
ENCODING 7926
SWIDTH 612 0
DWIDTH 17 0
BBX 17 25 0 0
BITMAP
00F000
019800
01B800
007000
006000
000000
FF0F80
7F0F80
3E0700
1E0600
1F0600
0F0C00
0F8C00
079800
07D800
03F000
03F000
01E000
01E000
01E000
01E000
01E000
03E000
0FF800
0FFC00
ENDCHAR
STARTCHAR 1EF7
ENCODING 7927
SWIDTH 540 0
DWIDTH 15 0
BBX 15 27 0 -7
BITMAP
00C0
03F0
0370
00E0
00C0
00C0
0000
FF3E
FF3E
3E1C
3E18
1E18
1F10
0F30
0FB0
07E0
07E0
03C0
03C0
0380
0180
0180
0300
6F00
7E00
7C00
3800
ENDCHAR
STARTCHAR 1EF8
ENCODING 7928
SWIDTH 612 0
DWIDTH 17 0
BBX 17 24 0 0
BITMAP
03E200
07FE00
067C00
000000
000000
FF0F80
7F0F80
3E0700
1E0600
1F0600
0F0C00
0F8C00
079800
07D800
03F000
03F000
01E000
01E000
01E000
01E000
01E000
03E000
0FF800
0FFC00
ENDCHAR
STARTCHAR 1EF9
ENCODING 7929
SWIDTH 540 0
DWIDTH 15 0
BBX 15 26 0 -7
BITMAP
0380
0FFC
0FF8
0870
0000
0000
FF3E
FF3E
3E1C
3E18
1E18
1F10
0F30
0FB0
07E0
07E0
03C0
03C0
0380
0180
0180
0300
6F00
7E00
7C00
3800
ENDCHAR
STARTCHAR 2007
ENCODING 8199
SWIDTH 540 0
DWIDTH 15 0
BBX 0 0 0 0
BITMAP
ENDCHAR
STARTCHAR 2008
ENCODING 8200
SWIDTH 180 0
DWIDTH 5 0
BBX 0 0 0 0
BITMAP
ENDCHAR
STARTCHAR 2009
ENCODING 8201
SWIDTH 72 0
DWIDTH 2 0
BBX 0 0 0 0
BITMAP
ENDCHAR
STARTCHAR 200A
ENCODING 8202
SWIDTH 36 0
DWIDTH 1 0
BBX 0 0 0 0
BITMAP
ENDCHAR
STARTCHAR 200B
ENCODING 8203
SWIDTH 0 0
DWIDTH 0 0
BBX 0 0 0 0
BITMAP
ENDCHAR
STARTCHAR 2010
ENCODING 8208
SWIDTH 396 0
DWIDTH 11 0
BBX 8 2 2 6
BITMAP
FF
FF
ENDCHAR
STARTCHAR 2011
ENCODING 8209
SWIDTH 396 0
DWIDTH 11 0
BBX 8 2 2 6
BITMAP
FF
FF
ENDCHAR
STARTCHAR 2012
ENCODING 8210
SWIDTH 540 0
DWIDTH 15 0
BBX 13 2 1 6
BITMAP
FFF8
FFF8
ENDCHAR
STARTCHAR 2013
ENCODING 8211
SWIDTH 576 0
DWIDTH 16 0
BBX 12 2 2 6
BITMAP
FFF0
FFF0
ENDCHAR
STARTCHAR 2014
ENCODING 8212
SWIDTH 1008 0
DWIDTH 28 0
BBX 25 2 2 6
BITMAP
FFFFFF80
FFFFFF80
ENDCHAR
STARTCHAR 2015
ENCODING 8213
SWIDTH 1008 0
DWIDTH 28 0
BBX 25 2 2 6
BITMAP
FFFFFF80
FFFFFF80
ENDCHAR
STARTCHAR 2016
ENCODING 8214
SWIDTH 324 0
DWIDTH 9 0
BBX 6 27 2 -7
BITMAP
CC
CC
CC
CC
CC
CC
CC
CC
CC
CC
CC
CC
CC
CC
CC
CC
CC
CC
CC
CC
CC
CC
CC
CC
CC
CC
CC
ENDCHAR
STARTCHAR 2018
ENCODING 8216
SWIDTH 252 0
DWIDTH 7 0
BBX 4 8 2 12
BITMAP
30
60
E0
E0
F0
F0
F0
C0
ENDCHAR
STARTCHAR 2019
ENCODING 8217
SWIDTH 252 0
DWIDTH 7 0
BBX 4 8 2 12
BITMAP
70
F0
F0
F0
70
60
60
C0
ENDCHAR
STARTCHAR 201A
ENCODING 8218
SWIDTH 252 0
DWIDTH 7 0
BBX 4 7 2 -3
BITMAP
F0
F0
F0
70
70
60
C0
ENDCHAR
STARTCHAR 201B
ENCODING 8219
SWIDTH 252 0
DWIDTH 7 0
BBX 4 8 2 12
BITMAP
C0
F0
F0
E0
C0
E0
60
20
ENDCHAR
STARTCHAR 201C
ENCODING 8220
SWIDTH 432 0
DWIDTH 12 0
BBX 9 8 2 12
BITMAP
3180
6300
E600
C700
F780
F780
F780
C400
ENDCHAR
STARTCHAR 201D
ENCODING 8221
SWIDTH 432 0
DWIDTH 12 0
BBX 9 8 2 12
BITMAP
7380
F780
F780
7380
7380
6300
6300
4600
ENDCHAR
STARTCHAR 201E
ENCODING 8222
SWIDTH 432 0
DWIDTH 12 0
BBX 9 7 2 -3
BITMAP
F780
F780
F780
7380
6300
6300
C600
ENDCHAR
STARTCHAR 201F
ENCODING 8223
SWIDTH 432 0
DWIDTH 12 0
BBX 9 8 2 12
BITMAP
C600
F780
F780
E700
C600
E700
6300
2100
ENDCHAR
STARTCHAR 2020
ENCODING 8224
SWIDTH 468 0
DWIDTH 13 0
BBX 11 26 1 -7
BITMAP
0200
0E00
0E00
0E00
0E00
0E00
FFE0
FFE0
EEE0
0E00
0E00
0E00
0E00
0E00
0E00
0C00
0C00
0400
0400
0400
0400
0400
0C00
0C00
0C00
0C00
ENDCHAR
STARTCHAR 2021
ENCODING 8225
SWIDTH 468 0
DWIDTH 13 0
BBX 11 24 1 -6
BITMAP
0200
0E00
0E00
0E00
0E00
0E00
FFE0
FFE0
E6E0
0600
0600
0600
0E00
0600
0600
0600
4620
FFE0
FFE0
0600
0600
0600
0E00
0E00
ENDCHAR
STARTCHAR 2022
ENCODING 8226
SWIDTH 360 0
DWIDTH 10 0
BBX 7 8 2 3
BITMAP
38
FC
FE
FE
FE
FE
7C
10
ENDCHAR
STARTCHAR 2023
ENCODING 8227
SWIDTH 360 0
DWIDTH 10 0
BBX 7 8 2 3
BITMAP
C0
F0
FC
FE
FE
F8
E0
40
ENDCHAR
STARTCHAR 2024
ENCODING 8228
SWIDTH 252 0
DWIDTH 7 0
BBX 4 4 2 0
BITMAP
F0
F0
F0
F0
ENDCHAR
STARTCHAR 2025
ENCODING 8229
SWIDTH 612 0
DWIDTH 17 0
BBX 14 4 2 0
BITMAP
F038
F07C
F078
F078
ENDCHAR
STARTCHAR 2026
ENCODING 8230
SWIDTH 900 0
DWIDTH 25 0
BBX 22 4 2 0
BITMAP
F0783C
F07C3C
F0783C
F0783C
ENDCHAR
STARTCHAR 2027
ENCODING 8231
SWIDTH 252 0
DWIDTH 7 0
BBX 4 4 2 5
BITMAP
F0
F0
F0
E0
ENDCHAR
STARTCHAR 202F
ENCODING 8239
SWIDTH 180 0
DWIDTH 5 0
BBX 0 0 0 0
BITMAP
ENDCHAR
STARTCHAR 2030
ENCODING 8240
SWIDTH 1224 0
DWIDTH 34 0
BBX 30 19 2 0
BITMAP
1E00C000
3F00C000
73818000
63830000
E1860000
E38E0000
739C0000
7F180000
1E300000
00600000
00C18060
01CFC1F8
039CE3B8
031C671C
0618771C
0C1C771C
181C671C
381EE3B8
300FC1F0
ENDCHAR
STARTCHAR 2031
ENCODING 8241
SWIDTH 1584 0
DWIDTH 44 0
BBX 40 19 2 0
BITMAP
1E00C00000
3F00C00000
7381800000
6383000000
E186000000
E38E000000
739C000000
7F18000000
1E30000000
0060000000
00C1004018
01CFC1F87E
039CE338E7
031C671CC7
0618771DC3
0C18671DC3
181C671CC7
381EE3B8FE
300FC1F07C
ENDCHAR
STARTCHAR 2032
ENCODING 8242
SWIDTH 288 0
DWIDTH 8 0
BBX 4 8 2 12
BITMAP
10
70
70
60
60
C0
C0
80
ENDCHAR
STARTCHAR 2033
ENCODING 8243
SWIDTH 468 0
DWIDTH 13 0
BBX 10 8 2 12
BITMAP
10C0
7380
7380
6300
6300
C600
C600
8400
ENDCHAR
STARTCHAR 2034
ENCODING 8244
SWIDTH 648 0
DWIDTH 18 0
BBX 15 8 2 12
BITMAP
10C6
738E
739C
631C
6318
C618
C630
8410
ENDCHAR
STARTCHAR 2035
ENCODING 8245
SWIDTH 252 0
DWIDTH 7 0
BBX 4 8 2 12
BITMAP
40
E0
E0
60
60
30
30
10
ENDCHAR
STARTCHAR 2036
ENCODING 8246
SWIDTH 468 0
DWIDTH 13 0
BBX 9 8 2 12
BITMAP
4300
E700
E300
6300
6300
3180
3180
1080
ENDCHAR
STARTCHAR 2037
ENCODING 8247
SWIDTH 612 0
DWIDTH 17 0
BBX 14 8 2 12
BITMAP
4218
E738
E718
6318
6318
318C
318C
1084
ENDCHAR
STARTCHAR 2038
ENCODING 8248
SWIDTH 540 0
DWIDTH 15 0
BBX 13 9 1 0
BITMAP
0300
0700
0F80
1DC0
18C0
3060
6030
E030
C018
ENDCHAR
STARTCHAR 2039
ENCODING 8249
SWIDTH 288 0
DWIDTH 8 0
BBX 5 9 2 2
BITMAP
18
30
70
E0
E0
F0
70
38
10
ENDCHAR
STARTCHAR 203A
ENCODING 8250
SWIDTH 324 0
DWIDTH 9 0
BBX 6 9 2 3
BITMAP
C0
60
78
38
3C
38
70
E0
C0
ENDCHAR
STARTCHAR 203D
ENCODING 8253
SWIDTH 612 0
DWIDTH 17 0
BBX 12 20 3 0
BITMAP
1F80
FFE0
E0F0
E2F0
CE70
0E70
0EF0
0EE0
0EC0
0DC0
0580
0700
0600
0600
0000
0000
0F00
0F00
0F00
0F00
ENDCHAR
STARTCHAR 203F
ENCODING 8255
SWIDTH 684 0
DWIDTH 19 0
BBX 16 4 2 -5
BITMAP
C003
FC3F
3FFC
0FF0
ENDCHAR
STARTCHAR 2040
ENCODING 8256
SWIDTH 684 0
DWIDTH 19 0
BBX 16 4 2 20
BITMAP
1FF8
7FFE
F00F
8001
ENDCHAR
STARTCHAR 2043
ENCODING 8259
SWIDTH 360 0
DWIDTH 10 0
BBX 7 5 2 5
BITMAP
FE
FE
FE
FE
FE
ENDCHAR
STARTCHAR 2044
ENCODING 8260
SWIDTH 216 0
DWIDTH 6 0
BBX 16 20 -5 0
BITMAP
0002
0007
000E
000C
0018
0038
0030
0060
00C0
01C0
0180
0300
0600
0E00
0C00
1800
3800
7000
6000
C000
ENDCHAR
STARTCHAR 204B
ENCODING 8267
SWIDTH 576 0
DWIDTH 16 0
BBX 14 26 1 -7
BITMAP
FFC0
FFF8
767C
363C
363C
363C
363C
363C
3678
37F0
3780
3600
3600
3600
3600
3600
3600
3600
3600
3600
3600
3600
3600
3600
3600
3600
ENDCHAR
STARTCHAR 2052
ENCODING 8274
SWIDTH 576 0
DWIDTH 16 0
BBX 14 17 1 1
BITMAP
0004
780C
F81C
F838
7070
00E0
00C0
0180
0300
0700
0E00
1C00
1838
303C
607C
E03C
C000
ENDCHAR
STARTCHAR 205D
ENCODING 8285
SWIDTH 252 0
DWIDTH 7 0
BBX 4 19 2 0
BITMAP
60
F0
F0
F0
00
00
00
60
F0
F0
F0
60
00
00
00
F0
F0
F0
F0
ENDCHAR
STARTCHAR 2070
ENCODING 8304
SWIDTH 432 0
DWIDTH 12 0
BBX 10 10 1 11
BITMAP
3F00
7380
E1C0
E1C0
E1C0
E1C0
E1C0
F1C0
7F80
1E00
ENDCHAR
STARTCHAR 2074
ENCODING 8308
SWIDTH 396 0
DWIDTH 11 0
BBX 10 13 1 8
BITMAP
0700
0700
0F00
1F00
3700
6700
4700
FFC0
FFC0
FFC0
0700
0700
0600
ENDCHAR
STARTCHAR 2075
ENCODING 8309
SWIDTH 324 0
DWIDTH 9 0
BBX 8 14 1 8
BITMAP
02
7E
7E
7E
C0
F0
FC
7E
1E
0F
0E
0E
FC
F8
ENDCHAR
STARTCHAR 2076
ENCODING 8310
SWIDTH 360 0
DWIDTH 10 0
BBX 9 13 1 11
BITMAP
0300
1F00
3800
7000
E000
FF00
FF80
E380
E380
E380
E380
7F00
3C00
ENDCHAR
STARTCHAR 2077
ENCODING 8311
SWIDTH 324 0
DWIDTH 9 0
BBX 8 13 1 8
BITMAP
FF
FF
FE
84
0C
18
18
38
30
70
70
70
60
ENDCHAR
STARTCHAR 2078
ENCODING 8312
SWIDTH 360 0
DWIDTH 10 0
BBX 9 13 1 11
BITMAP
1C00
7F00
E700
E300
FF00
7E00
3F00
6F00
E780
E380
E380
7F00
3E00
ENDCHAR
STARTCHAR 2079
ENCODING 8313
SWIDTH 360 0
DWIDTH 10 0
BBX 9 13 1 8
BITMAP
3E00
F700
E380
E380
E380
E380
FF80
3B80
0700
0700
1E00
7800
6000
ENDCHAR
STARTCHAR 2080
ENCODING 8320
SWIDTH 432 0
DWIDTH 12 0
BBX 10 10 1 -4
BITMAP
1E00
7780
E3C0
E1C0
E1C0
E1C0
E1C0
F1C0
7B80
3F00
ENDCHAR
STARTCHAR 2081
ENCODING 8321
SWIDTH 252 0
DWIDTH 7 0
BBX 6 10 1 -4
BITMAP
FC
FC
78
70
70
70
70
78
F8
FC
ENDCHAR
STARTCHAR 2082
ENCODING 8322
SWIDTH 324 0
DWIDTH 9 0
BBX 8 10 1 -4
BITMAP
7E
FF
C7
C7
0E
1C
33
7F
FF
FF
ENDCHAR
STARTCHAR 2083
ENCODING 8323
SWIDTH 324 0
DWIDTH 9 0
BBX 8 13 1 -7
BITMAP
FF
FF
FE
CC
0C
18
3E
3F
07
07
07
8E
FC
ENDCHAR
STARTCHAR 2084
ENCODING 8324
SWIDTH 396 0
DWIDTH 11 0
BBX 10 13 1 -7
BITMAP
0300
0700
0F00
1F00
3700
2700
6700
FFC0
FFC0
FFC0
0700
0700
0700
ENDCHAR
STARTCHAR 2085
ENCODING 8325
SWIDTH 324 0
DWIDTH 9 0
BBX 8 14 1 -7
BITMAP
02
7E
7E
7E
C0
E0
FC
FE
1E
0F
0F
0E
1E
F8
ENDCHAR
STARTCHAR 2086
ENCODING 8326
SWIDTH 360 0
DWIDTH 10 0
BBX 9 12 1 -4
BITMAP
0F00
3C00
7000
7000
EE00
FF00
E380
E380
E380
E380
7700
3E00
ENDCHAR
STARTCHAR 2087
ENCODING 8327
SWIDTH 324 0
DWIDTH 9 0
BBX 8 13 1 -7
BITMAP
FE
FF
FE
C4
0C
08
18
38
30
30
70
70
60
ENDCHAR
STARTCHAR 2088
ENCODING 8328
SWIDTH 360 0
DWIDTH 10 0
BBX 9 12 1 -4
BITMAP
7F00
E700
E300
F700
7E00
3E00
7F00
E780
E380
E380
F700
3E00
ENDCHAR
STARTCHAR 2089
ENCODING 8329
SWIDTH 360 0
DWIDTH 10 0
BBX 9 13 1 -7
BITMAP
3E00
7F00
E380
E380
E380
E380
F380
7F80
0780
0700
0E00
3C00
7000
ENDCHAR
STARTCHAR 20A1
ENCODING 8353
SWIDTH 612 0
DWIDTH 17 0
BBX 16 23 1 -3
BITMAP
0048
00CC
03FC
0FFF
1E0E
3C06
7806
7806
F800
F000
F000
F000
F000
F800
F800
7800
7C00
3E00
3F03
0FFE
07F8
06C0
06C0
ENDCHAR
STARTCHAR 20A3
ENCODING 8355
SWIDTH 576 0
DWIDTH 16 0
BBX 15 19 1 0
BITMAP
FFFC
FFFC
3C1C
3C0C
3C0E
3C00
3C00
3C30
3C30
3CF0
3FF0
3C70
3C30
FF80
FF80
3E00
3E00
FF80
FF80
ENDCHAR
STARTCHAR 20A4
ENCODING 8356
SWIDTH 576 0
DWIDTH 16 0
BBX 14 19 1 0
BITMAP
07F0
1FF8
3C78
3C38
7838
7C00
7C00
3E00
3E00
7FE0
FFC0
1E00
1E00
1C00
1DC8
3FFC
3FF8
7FF8
40F0
ENDCHAR
STARTCHAR 20A6
ENCODING 8358
SWIDTH 720 0
DWIDTH 20 0
BBX 20 19 0 0
BITMAP
7E07E0
7E07E0
1F01C0
1F8180
1FC080
1FC080
1BE080
19F080
7FFFF0
FFFFF0
187C80
183E80
183F80
181F80
180F80
180780
180780
7E0380
7E0180
ENDCHAR
STARTCHAR 20A7
ENCODING 8359
SWIDTH 612 0
DWIDTH 17 0
BBX 19 19 0 0
BITMAP
7FF800
7FFE00
1E1F00
1E0F00
1E0F80
1E0F80
FFFFE0
1E0F80
1E0F00
1E0F00
1E3E00
1EFC00
1E4000
1E0000
1E0000
1E0000
1F0000
7FC000
7FC000
ENDCHAR
ENDFONT
